%TF.GenerationSoftware,KiCad,Pcbnew,7.0.5*%
%TF.CreationDate,2023-11-16T23:15:32+01:00*%
%TF.ProjectId,STGSv0.2,53544753-7630-42e3-922e-6b696361645f,rev?*%
%TF.SameCoordinates,Original*%
%TF.FileFunction,Copper,L1,Top*%
%TF.FilePolarity,Positive*%
%FSLAX46Y46*%
G04 Gerber Fmt 4.6, Leading zero omitted, Abs format (unit mm)*
G04 Created by KiCad (PCBNEW 7.0.5) date 2023-11-16 23:15:32*
%MOMM*%
%LPD*%
G01*
G04 APERTURE LIST*
G04 Aperture macros list*
%AMRoundRect*
0 Rectangle with rounded corners*
0 $1 Rounding radius*
0 $2 $3 $4 $5 $6 $7 $8 $9 X,Y pos of 4 corners*
0 Add a 4 corners polygon primitive as box body*
4,1,4,$2,$3,$4,$5,$6,$7,$8,$9,$2,$3,0*
0 Add four circle primitives for the rounded corners*
1,1,$1+$1,$2,$3*
1,1,$1+$1,$4,$5*
1,1,$1+$1,$6,$7*
1,1,$1+$1,$8,$9*
0 Add four rect primitives between the rounded corners*
20,1,$1+$1,$2,$3,$4,$5,0*
20,1,$1+$1,$4,$5,$6,$7,0*
20,1,$1+$1,$6,$7,$8,$9,0*
20,1,$1+$1,$8,$9,$2,$3,0*%
G04 Aperture macros list end*
%TA.AperFunction,SMDPad,CuDef*%
%ADD10RoundRect,0.250000X1.025000X-0.787500X1.025000X0.787500X-1.025000X0.787500X-1.025000X-0.787500X0*%
%TD*%
%TA.AperFunction,SMDPad,CuDef*%
%ADD11RoundRect,0.250000X0.650000X-0.325000X0.650000X0.325000X-0.650000X0.325000X-0.650000X-0.325000X0*%
%TD*%
%TA.AperFunction,ComponentPad*%
%ADD12R,1.800000X1.800000*%
%TD*%
%TA.AperFunction,ComponentPad*%
%ADD13C,1.800000*%
%TD*%
%TA.AperFunction,SMDPad,CuDef*%
%ADD14RoundRect,0.250000X-0.625000X0.312500X-0.625000X-0.312500X0.625000X-0.312500X0.625000X0.312500X0*%
%TD*%
%TA.AperFunction,ComponentPad*%
%ADD15C,1.650000*%
%TD*%
%TA.AperFunction,ComponentPad*%
%ADD16R,1.650000X1.650000*%
%TD*%
%TA.AperFunction,SMDPad,CuDef*%
%ADD17R,2.000000X1.500000*%
%TD*%
%TA.AperFunction,SMDPad,CuDef*%
%ADD18R,2.000000X3.800000*%
%TD*%
%TA.AperFunction,SMDPad,CuDef*%
%ADD19RoundRect,0.150000X-0.150000X0.512500X-0.150000X-0.512500X0.150000X-0.512500X0.150000X0.512500X0*%
%TD*%
%TA.AperFunction,SMDPad,CuDef*%
%ADD20RoundRect,0.250000X0.625000X-0.312500X0.625000X0.312500X-0.625000X0.312500X-0.625000X-0.312500X0*%
%TD*%
%TA.AperFunction,ComponentPad*%
%ADD21R,1.600000X1.600000*%
%TD*%
%TA.AperFunction,ComponentPad*%
%ADD22O,1.600000X1.600000*%
%TD*%
%TA.AperFunction,SMDPad,CuDef*%
%ADD23R,1.000000X2.750000*%
%TD*%
%TA.AperFunction,SMDPad,CuDef*%
%ADD24RoundRect,0.150000X0.150000X-0.512500X0.150000X0.512500X-0.150000X0.512500X-0.150000X-0.512500X0*%
%TD*%
%TA.AperFunction,SMDPad,CuDef*%
%ADD25RoundRect,0.150000X0.150000X-0.825000X0.150000X0.825000X-0.150000X0.825000X-0.150000X-0.825000X0*%
%TD*%
%TA.AperFunction,SMDPad,CuDef*%
%ADD26RoundRect,0.250000X0.312500X0.625000X-0.312500X0.625000X-0.312500X-0.625000X0.312500X-0.625000X0*%
%TD*%
%TA.AperFunction,ComponentPad*%
%ADD27R,1.700000X1.700000*%
%TD*%
%TA.AperFunction,ComponentPad*%
%ADD28C,1.700000*%
%TD*%
%TA.AperFunction,ComponentPad*%
%ADD29C,3.500000*%
%TD*%
%TA.AperFunction,ComponentPad*%
%ADD30C,2.600000*%
%TD*%
%TA.AperFunction,ConnectorPad*%
%ADD31C,3.800000*%
%TD*%
%TA.AperFunction,SMDPad,CuDef*%
%ADD32RoundRect,0.250000X-0.450000X-0.425000X0.450000X-0.425000X0.450000X0.425000X-0.450000X0.425000X0*%
%TD*%
%TA.AperFunction,SMDPad,CuDef*%
%ADD33R,2.000000X1.200000*%
%TD*%
%TA.AperFunction,ComponentPad*%
%ADD34C,3.900000*%
%TD*%
%TA.AperFunction,SMDPad,CuDef*%
%ADD35C,2.000000*%
%TD*%
%TA.AperFunction,SMDPad,CuDef*%
%ADD36RoundRect,0.250000X0.625000X-0.375000X0.625000X0.375000X-0.625000X0.375000X-0.625000X-0.375000X0*%
%TD*%
%TA.AperFunction,SMDPad,CuDef*%
%ADD37RoundRect,0.250000X0.450000X0.425000X-0.450000X0.425000X-0.450000X-0.425000X0.450000X-0.425000X0*%
%TD*%
%TA.AperFunction,ComponentPad*%
%ADD38R,1.000000X1.000000*%
%TD*%
%TA.AperFunction,ComponentPad*%
%ADD39C,1.000000*%
%TD*%
%TA.AperFunction,SMDPad,CuDef*%
%ADD40RoundRect,0.150000X0.587500X0.150000X-0.587500X0.150000X-0.587500X-0.150000X0.587500X-0.150000X0*%
%TD*%
%TA.AperFunction,ComponentPad*%
%ADD41R,2.000000X4.600000*%
%TD*%
%TA.AperFunction,ComponentPad*%
%ADD42O,2.000000X4.200000*%
%TD*%
%TA.AperFunction,ComponentPad*%
%ADD43O,4.200000X2.000000*%
%TD*%
%TA.AperFunction,ComponentPad*%
%ADD44C,1.300000*%
%TD*%
%TA.AperFunction,SMDPad,CuDef*%
%ADD45RoundRect,0.250000X-0.650000X0.325000X-0.650000X-0.325000X0.650000X-0.325000X0.650000X0.325000X0*%
%TD*%
%TA.AperFunction,ComponentPad*%
%ADD46O,1.700000X1.700000*%
%TD*%
%TA.AperFunction,SMDPad,CuDef*%
%ADD47RoundRect,0.250000X1.000000X0.650000X-1.000000X0.650000X-1.000000X-0.650000X1.000000X-0.650000X0*%
%TD*%
%TA.AperFunction,SMDPad,CuDef*%
%ADD48RoundRect,0.250000X-0.650000X1.000000X-0.650000X-1.000000X0.650000X-1.000000X0.650000X1.000000X0*%
%TD*%
%TA.AperFunction,SMDPad,CuDef*%
%ADD49RoundRect,0.250000X-0.425000X0.450000X-0.425000X-0.450000X0.425000X-0.450000X0.425000X0.450000X0*%
%TD*%
%TA.AperFunction,ViaPad*%
%ADD50C,0.800000*%
%TD*%
%TA.AperFunction,ViaPad*%
%ADD51C,0.700000*%
%TD*%
%TA.AperFunction,Conductor*%
%ADD52C,0.200000*%
%TD*%
%TA.AperFunction,Conductor*%
%ADD53C,0.800000*%
%TD*%
%TA.AperFunction,Conductor*%
%ADD54C,0.600000*%
%TD*%
%TA.AperFunction,Conductor*%
%ADD55C,0.700000*%
%TD*%
%TA.AperFunction,Conductor*%
%ADD56C,0.400000*%
%TD*%
G04 APERTURE END LIST*
D10*
%TO.P,C9,1*%
%TO.N,+5V*%
X48895000Y-117412500D03*
%TO.P,C9,2*%
%TO.N,GND*%
X48895000Y-111187500D03*
%TD*%
D11*
%TO.P,C7,1*%
%TO.N,+9V*%
X35255200Y-129338600D03*
%TO.P,C7,2*%
%TO.N,GND*%
X35255200Y-126388600D03*
%TD*%
D12*
%TO.P,D2,1,K*%
%TO.N,GND*%
X73685400Y-102570200D03*
D13*
%TO.P,D2,2,A*%
%TO.N,Net-(D2-A)*%
X73685400Y-100030200D03*
%TD*%
D14*
%TO.P,R7,1*%
%TO.N,Net-(R10-Pad2)*%
X65913000Y-93393800D03*
%TO.P,R7,2*%
%TO.N,SCK*%
X65913000Y-96318800D03*
%TD*%
D15*
%TO.P,J6,1,Pin_1*%
%TO.N,+5V*%
X76911200Y-127762000D03*
D16*
%TO.P,J6,2,Pin_2*%
%TO.N,Net-(J6-Pin_2)*%
X79451200Y-127762000D03*
%TD*%
D11*
%TO.P,C8,1*%
%TO.N,+5V*%
X44323000Y-114505000D03*
%TO.P,C8,2*%
%TO.N,GND*%
X44323000Y-111555000D03*
%TD*%
D17*
%TO.P,U2,1,GND*%
%TO.N,GND*%
X38248200Y-124674600D03*
%TO.P,U2,2,VO*%
%TO.N,+5VL*%
X38248200Y-126974600D03*
D18*
X44548200Y-126974600D03*
D17*
%TO.P,U2,3,VI*%
%TO.N,+9V*%
X38248200Y-129274600D03*
%TD*%
D19*
%TO.P,Q4,1,B*%
%TO.N,MISO*%
X71907400Y-118897400D03*
%TO.P,Q4,2,E*%
%TO.N,GND*%
X70007400Y-118897400D03*
%TO.P,Q4,3,C*%
%TO.N,Net-(J6-Pin_2)*%
X70957400Y-121172400D03*
%TD*%
D20*
%TO.P,R6,1*%
%TO.N,Net-(Q2-C)*%
X55499000Y-96318800D03*
%TO.P,R6,2*%
%TO.N,Net-(D1-K)*%
X55499000Y-93393800D03*
%TD*%
D21*
%TO.P,U1,1,~{RESET}/PB5*%
%TO.N,RST*%
X61808200Y-107254200D03*
D22*
%TO.P,U1,2,XTAL1/PB3*%
%TO.N,ADC3*%
X64348200Y-107254200D03*
%TO.P,U1,3,XTAL2/PB4*%
%TO.N,ADC2*%
X66888200Y-107254200D03*
%TO.P,U1,4,GND*%
%TO.N,GND*%
X69428200Y-107254200D03*
%TO.P,U1,5,AREF/PB0*%
%TO.N,MOSI*%
X69428200Y-99634200D03*
%TO.P,U1,6,PB1*%
%TO.N,MISO*%
X66888200Y-99634200D03*
%TO.P,U1,7,PB2*%
%TO.N,SCK*%
X64348200Y-99634200D03*
%TO.P,U1,8,VCC*%
%TO.N,+5V*%
X61808200Y-99634200D03*
%TD*%
D23*
%TO.P,SW1,1,1*%
%TO.N,unconnected-(SW1-Pad1)*%
X60280798Y-118572001D03*
%TO.P,SW1,2,2*%
%TO.N,RST*%
X60280798Y-112821999D03*
%TO.P,SW1,3,K*%
%TO.N,unconnected-(SW1-K-Pad3)*%
X64280800Y-118572001D03*
%TO.P,SW1,4,A*%
%TO.N,GND*%
X64280800Y-112821999D03*
%TD*%
D24*
%TO.P,Q2,1,B*%
%TO.N,Q*%
X48646000Y-101079300D03*
%TO.P,Q2,2,E*%
%TO.N,GND*%
X50546000Y-101079300D03*
%TO.P,Q2,3,C*%
%TO.N,Net-(Q2-C)*%
X49596000Y-98804300D03*
%TD*%
D25*
%TO.P,U3,1,GND*%
%TO.N,GND*%
X40868600Y-108761300D03*
%TO.P,U3,2,TR*%
%TO.N,Net-(D6-K)*%
X42138600Y-108761300D03*
%TO.P,U3,3,Q*%
%TO.N,Q*%
X43408600Y-108761300D03*
%TO.P,U3,4,R*%
%TO.N,VBUS*%
X44678600Y-108761300D03*
%TO.P,U3,5,CV*%
%TO.N,unconnected-(U3-CV-Pad5)*%
X44678600Y-103811300D03*
%TO.P,U3,6,THR*%
%TO.N,Net-(D6-K)*%
X43408600Y-103811300D03*
%TO.P,U3,7,DIS*%
%TO.N,Net-(D6-A)*%
X42138600Y-103811300D03*
%TO.P,U3,8,VCC*%
%TO.N,VBUS*%
X40868600Y-103811300D03*
%TD*%
D26*
%TO.P,R10,1*%
%TO.N,GND*%
X79694500Y-92456000D03*
%TO.P,R10,2*%
%TO.N,Net-(R10-Pad2)*%
X76769500Y-92456000D03*
%TD*%
D11*
%TO.P,C1,1*%
%TO.N,VBUS*%
X37719000Y-103695500D03*
%TO.P,C1,2*%
%TO.N,GND*%
X37719000Y-100745500D03*
%TD*%
D27*
%TO.P,J1,1,VBUS*%
%TO.N,Net-(J1-VBUS)*%
X33699200Y-101280600D03*
D28*
%TO.P,J1,2,D-*%
%TO.N,unconnected-(J1-D--Pad2)*%
X33699200Y-98780600D03*
%TO.P,J1,3,D+*%
%TO.N,unconnected-(J1-D+-Pad3)*%
X31699200Y-98780600D03*
%TO.P,J1,4,GND*%
%TO.N,GND*%
X31699200Y-101280600D03*
D29*
%TO.P,J1,5,Shield*%
%TO.N,unconnected-(J1-Shield-Pad5)*%
X28989200Y-106050600D03*
X28989200Y-94010600D03*
%TD*%
D14*
%TO.P,R18,1*%
%TO.N,+5V*%
X77622400Y-112939100D03*
%TO.P,R18,2*%
%TO.N,Net-(D5-A)*%
X77622400Y-115864100D03*
%TD*%
D20*
%TO.P,R17,1*%
%TO.N,GND*%
X67437000Y-112409700D03*
%TO.P,R17,2*%
%TO.N,ADC2*%
X67437000Y-109484700D03*
%TD*%
D30*
%TO.P,H1,1,1*%
%TO.N,unconnected-(H1-Pad1)*%
X29000000Y-128000000D03*
D31*
X29000000Y-128000000D03*
%TD*%
D30*
%TO.P,H2,1,1*%
%TO.N,unconnected-(H2-Pad1)*%
X83000000Y-128000000D03*
D31*
X83000000Y-128000000D03*
%TD*%
D14*
%TO.P,R14,1*%
%TO.N,GND*%
X56335400Y-108858600D03*
%TO.P,R14,2*%
%TO.N,Net-(S1-NO_3)*%
X56335400Y-111783600D03*
%TD*%
D32*
%TO.P,C5,1*%
%TO.N,Net-(J1-VBUS)*%
X32874500Y-109855000D03*
%TO.P,C5,2*%
%TO.N,GND*%
X35574500Y-109855000D03*
%TD*%
D15*
%TO.P,J7,1,Pin_1*%
%TO.N,+5V*%
X71069200Y-127762000D03*
D16*
%TO.P,J7,2,Pin_2*%
%TO.N,Net-(J6-Pin_2)*%
X73609200Y-127762000D03*
%TD*%
D30*
%TO.P,H3,1,1*%
%TO.N,unconnected-(H3-Pad1)*%
X83000000Y-94000000D03*
D31*
X83000000Y-94000000D03*
%TD*%
D20*
%TO.P,R4,1*%
%TO.N,Net-(D6-K)*%
X48387000Y-96318800D03*
%TO.P,R4,2*%
%TO.N,Net-(R3-Pad1)*%
X48387000Y-93393800D03*
%TD*%
D33*
%TO.P,J8,1,1*%
%TO.N,+5V*%
X80562400Y-113873400D03*
%TO.P,J8,2,2*%
%TO.N,unconnected-(J8-Pad2)*%
X80562400Y-116373400D03*
%TO.P,J8,3,3*%
%TO.N,unconnected-(J8-Pad3)*%
X80562400Y-118373400D03*
%TO.P,J8,4,4*%
%TO.N,Net-(D5-K)*%
X80562400Y-120873400D03*
D34*
%TO.P,J8,MH1,MH1*%
%TO.N,unconnected-(J8-PadMH1)*%
X83162400Y-111523400D03*
%TO.P,J8,MH2,MH2*%
%TO.N,unconnected-(J8-PadMH2)*%
X83162400Y-123223400D03*
%TD*%
D26*
%TO.P,R11,1*%
%TO.N,VBUS*%
X35814000Y-112776000D03*
%TO.P,R11,2*%
%TO.N,Net-(J1-VBUS)*%
X32889000Y-112776000D03*
%TD*%
D35*
%TO.P,TP1,1,1*%
%TO.N,Q*%
X47142400Y-107391200D03*
%TD*%
D36*
%TO.P,D5,1,K*%
%TO.N,Net-(D5-K)*%
X77622400Y-120754600D03*
%TO.P,D5,2,A*%
%TO.N,Net-(D5-A)*%
X77622400Y-117954600D03*
%TD*%
%TO.P,D1,1,K*%
%TO.N,Net-(D1-K)*%
X59055000Y-96256300D03*
%TO.P,D1,2,A*%
%TO.N,VBUS*%
X59055000Y-93456300D03*
%TD*%
D37*
%TO.P,C6,1*%
%TO.N,+5VL*%
X40081200Y-121513600D03*
%TO.P,C6,2*%
%TO.N,GND*%
X37381200Y-121513600D03*
%TD*%
D19*
%TO.P,Q5,1,B*%
%TO.N,MISO*%
X75351600Y-118885500D03*
%TO.P,Q5,2,E*%
%TO.N,GND*%
X73451600Y-118885500D03*
%TO.P,Q5,3,C*%
%TO.N,Net-(D5-K)*%
X74401600Y-121160500D03*
%TD*%
D38*
%TO.P,R9,1*%
%TO.N,+5V*%
X73787000Y-97180400D03*
D39*
%TO.P,R9,2*%
%TO.N,SCK*%
X73787000Y-93776800D03*
%TD*%
D20*
%TO.P,R3,1*%
%TO.N,Net-(R3-Pad1)*%
X44831000Y-96318800D03*
%TO.P,R3,2*%
%TO.N,Net-(R2-Pad1)*%
X44831000Y-93393800D03*
%TD*%
D14*
%TO.P,R1,1*%
%TO.N,VBUS*%
X37719000Y-93393800D03*
%TO.P,R1,2*%
%TO.N,Net-(D6-A)*%
X37719000Y-96318800D03*
%TD*%
D40*
%TO.P,Q1,1,G*%
%TO.N,+5VL*%
X40132000Y-115946000D03*
%TO.P,Q1,2,S*%
%TO.N,+5V*%
X40132000Y-114046000D03*
%TO.P,Q1,3,D*%
%TO.N,VBUS*%
X38257000Y-114996000D03*
%TD*%
D19*
%TO.P,Q3,1,B*%
%TO.N,MISO*%
X68437800Y-118902900D03*
%TO.P,Q3,2,E*%
%TO.N,GND*%
X66537800Y-118902900D03*
%TO.P,Q3,3,C*%
%TO.N,Net-(J4-Pin_2)*%
X67487800Y-121177900D03*
%TD*%
D26*
%TO.P,R12,1*%
%TO.N,+5VL*%
X40273700Y-118719600D03*
%TO.P,R12,2*%
%TO.N,GND*%
X37348700Y-118719600D03*
%TD*%
D20*
%TO.P,R8,1*%
%TO.N,Net-(D2-A)*%
X69469000Y-96318800D03*
%TO.P,R8,2*%
%TO.N,MOSI*%
X69469000Y-93393800D03*
%TD*%
%TO.P,R5,1*%
%TO.N,Net-(Q2-C)*%
X51943000Y-96318800D03*
%TO.P,R5,2*%
%TO.N,VBUS*%
X51943000Y-93393800D03*
%TD*%
D14*
%TO.P,R13,1*%
%TO.N,GND*%
X52906400Y-108858600D03*
%TO.P,R13,2*%
%TO.N,Net-(S1-NO_2)*%
X52906400Y-111783600D03*
%TD*%
D41*
%TO.P,J2,1*%
%TO.N,+9V*%
X33655000Y-119507000D03*
D42*
%TO.P,J2,2*%
%TO.N,GND*%
X27355000Y-119507000D03*
D43*
%TO.P,J2,3*%
X30755000Y-124307000D03*
%TD*%
D32*
%TO.P,C2,1*%
%TO.N,Net-(D6-K)*%
X47062400Y-104813100D03*
%TO.P,C2,2*%
%TO.N,GND*%
X49762400Y-104813100D03*
%TD*%
D44*
%TO.P,S1,1,COM_1*%
%TO.N,ADC3*%
X48056800Y-128066800D03*
%TO.P,S1,2,COM_2*%
X50596800Y-128066800D03*
%TO.P,S1,3,COM_3*%
X53136800Y-128066800D03*
%TO.P,S1,4,COM_4*%
X55676800Y-128066800D03*
%TO.P,S1,5,NO_1*%
%TO.N,GND*%
X55676800Y-120446800D03*
%TO.P,S1,6,NO_2*%
%TO.N,Net-(S1-NO_2)*%
X53136800Y-120446800D03*
%TO.P,S1,7,NO_3*%
%TO.N,Net-(S1-NO_3)*%
X50596800Y-120446800D03*
%TO.P,S1,8,NO_4*%
%TO.N,+5V*%
X48056800Y-120446800D03*
%TD*%
D35*
%TO.P,TP2,1,1*%
%TO.N,SCK*%
X82931000Y-97688400D03*
%TD*%
D14*
%TO.P,R16,1*%
%TO.N,Net-(S1-NO_3)*%
X56337200Y-114539300D03*
%TO.P,R16,2*%
%TO.N,+5V*%
X56337200Y-117464300D03*
%TD*%
D45*
%TO.P,C4,1*%
%TO.N,+5V*%
X59070400Y-99627000D03*
%TO.P,C4,2*%
%TO.N,GND*%
X59070400Y-102577000D03*
%TD*%
D46*
%TO.P,J3,1,MISO*%
%TO.N,MISO*%
X79522400Y-101346000D03*
%TO.P,J3,2,VCC*%
%TO.N,+5V*%
X82062400Y-101346000D03*
%TO.P,J3,3,SCK*%
%TO.N,SCK*%
X79522400Y-103886000D03*
%TO.P,J3,4,MOSI*%
%TO.N,MOSI*%
X82062400Y-103886000D03*
%TO.P,J3,5,~{RST}*%
%TO.N,RST*%
X79522400Y-106426000D03*
D27*
%TO.P,J3,6,GND*%
%TO.N,GND*%
X82062400Y-106426000D03*
%TD*%
D12*
%TO.P,D3,1,K*%
%TO.N,ADC2*%
X72923400Y-108864400D03*
D13*
%TO.P,D3,2,A*%
%TO.N,+5V*%
X75463400Y-108864400D03*
%TD*%
D15*
%TO.P,J5,1,Pin_1*%
%TO.N,+9V*%
X65227200Y-127762000D03*
D16*
%TO.P,J5,2,Pin_2*%
%TO.N,Net-(J4-Pin_2)*%
X67767200Y-127762000D03*
%TD*%
D15*
%TO.P,J4,1,Pin_1*%
%TO.N,+9V*%
X59410600Y-127762000D03*
D16*
%TO.P,J4,2,Pin_2*%
%TO.N,Net-(J4-Pin_2)*%
X61950600Y-127762000D03*
%TD*%
D14*
%TO.P,R2,1*%
%TO.N,Net-(R2-Pad1)*%
X41275000Y-93393800D03*
%TO.P,R2,2*%
%TO.N,Net-(D6-A)*%
X41275000Y-96318800D03*
%TD*%
D47*
%TO.P,D6,1,K*%
%TO.N,Net-(D6-K)*%
X45466000Y-99656900D03*
%TO.P,D6,2,A*%
%TO.N,Net-(D6-A)*%
X41466000Y-99656900D03*
%TD*%
D14*
%TO.P,R15,1*%
%TO.N,Net-(S1-NO_2)*%
X52908200Y-114539300D03*
%TO.P,R15,2*%
%TO.N,+5V*%
X52908200Y-117464300D03*
%TD*%
D48*
%TO.P,D4,1,K*%
%TO.N,+5V*%
X44196000Y-117432600D03*
%TO.P,D4,2,A*%
%TO.N,+5VL*%
X44196000Y-121432600D03*
%TD*%
D49*
%TO.P,C3,1*%
%TO.N,+5V*%
X55768400Y-99616100D03*
%TO.P,C3,2*%
%TO.N,GND*%
X55768400Y-102316100D03*
%TD*%
D50*
%TO.N,GND*%
X52906400Y-107461600D03*
X68326000Y-105156000D03*
X37719000Y-99136200D03*
X35560000Y-108331000D03*
X58387400Y-103870600D03*
D51*
X66522600Y-117221000D03*
D50*
X42697400Y-111556800D03*
X56335400Y-107461600D03*
X49784000Y-106426000D03*
X79694500Y-94041500D03*
D51*
X41465500Y-106692700D03*
D50*
X63017400Y-105156000D03*
X36017200Y-118745000D03*
X67437000Y-113675700D03*
X51689000Y-101092000D03*
X36017200Y-121513600D03*
D51*
X70002400Y-117221000D03*
X66700400Y-105156000D03*
D50*
X59887400Y-103870600D03*
D51*
X64516000Y-105156000D03*
D50*
X36601400Y-124637800D03*
X56887400Y-103870600D03*
X64262000Y-115062000D03*
X48895000Y-109423200D03*
D51*
X73431400Y-117348000D03*
D50*
X55387400Y-103870600D03*
X35255200Y-125145800D03*
D51*
%TO.N,MISO*%
X65659000Y-103505000D03*
X65659000Y-108280200D03*
%TD*%
D52*
%TO.N,Net-(D6-K)*%
X43408600Y-105867200D02*
X43395900Y-105879900D01*
X43408600Y-103811300D02*
X43408600Y-105867200D01*
X46126400Y-104813100D02*
X46937400Y-104813100D01*
X45059600Y-105879900D02*
X46126400Y-104813100D01*
X43395900Y-105879900D02*
X45059600Y-105879900D01*
X42138600Y-107137200D02*
X43395900Y-105879900D01*
X42138600Y-108761300D02*
X42138600Y-107137200D01*
D53*
%TO.N,+5V*%
X44216100Y-117412500D02*
X44196000Y-117432600D01*
X42418000Y-114046000D02*
X42877000Y-114505000D01*
X59029600Y-119329200D02*
X59029600Y-107746800D01*
X78841600Y-114096800D02*
X79065000Y-113873400D01*
X79065000Y-113873400D02*
X80562400Y-113873400D01*
X77622400Y-113817400D02*
X77901800Y-114096800D01*
X54127400Y-105816400D02*
X54127400Y-105689400D01*
X53162200Y-100761800D02*
X54307900Y-99616100D01*
X44323000Y-114505000D02*
X44323000Y-117305600D01*
D54*
X40132000Y-114046000D02*
X41656000Y-114046000D01*
D53*
X77622400Y-111023400D02*
X75463400Y-108864400D01*
X77622400Y-112939100D02*
X77622400Y-113817400D01*
X56413400Y-121945400D02*
X59029600Y-119329200D01*
X77896800Y-97180400D02*
X73787000Y-97180400D01*
X41656000Y-114046000D02*
X42418000Y-114046000D01*
X59059500Y-99616100D02*
X59070400Y-99627000D01*
X61801000Y-99627000D02*
X61808200Y-99634200D01*
X59070400Y-99627000D02*
X61801000Y-99627000D01*
X49479200Y-117476800D02*
X52895700Y-117476800D01*
X82062400Y-101346000D02*
X77896800Y-97180400D01*
X49460400Y-117458000D02*
X49479200Y-117476800D01*
X48590200Y-121945400D02*
X56413400Y-121945400D01*
X42877000Y-114505000D02*
X44323000Y-114505000D01*
X48056800Y-120446800D02*
X48056800Y-121412000D01*
X77901800Y-114096800D02*
X78841600Y-114096800D01*
X77622400Y-112939100D02*
X77622400Y-111023400D01*
X53162200Y-104724200D02*
X53162200Y-100761800D01*
X48895000Y-119608600D02*
X48056800Y-120446800D01*
X48056800Y-121412000D02*
X48590200Y-121945400D01*
X48895000Y-117412500D02*
X44216100Y-117412500D01*
X44323000Y-117305600D02*
X44196000Y-117432600D01*
X57099200Y-105816400D02*
X54127400Y-105816400D01*
X59029600Y-107746800D02*
X57099200Y-105816400D01*
X55768400Y-99616100D02*
X59059500Y-99616100D01*
X54127400Y-105689400D02*
X53162200Y-104724200D01*
X48895000Y-117412500D02*
X48895000Y-119608600D01*
X54307900Y-99616100D02*
X55768400Y-99616100D01*
X52908200Y-117464300D02*
X56337200Y-117464300D01*
%TO.N,GND*%
X52906400Y-108858600D02*
X52906400Y-107461600D01*
D54*
X40868600Y-108761300D02*
X40868600Y-107289600D01*
D53*
X48895000Y-111187500D02*
X48895000Y-109423200D01*
X66700400Y-105156000D02*
X68326000Y-105156000D01*
D54*
X73451600Y-117800000D02*
X73431400Y-117779800D01*
D53*
X37348700Y-118719600D02*
X36042600Y-118719600D01*
X37381200Y-121513600D02*
X36017200Y-121513600D01*
D54*
X70002400Y-117627400D02*
X70007400Y-117632400D01*
D53*
X51676300Y-101079300D02*
X51689000Y-101092000D01*
X64280800Y-115043200D02*
X64262000Y-115062000D01*
D54*
X66537800Y-118902900D02*
X66537800Y-117693400D01*
D53*
X50546000Y-101079300D02*
X51676300Y-101079300D01*
D55*
X73431400Y-117348000D02*
X73431400Y-117779800D01*
D53*
X37719000Y-100745500D02*
X37719000Y-99136200D01*
X49762400Y-106404400D02*
X49784000Y-106426000D01*
X64516000Y-105156000D02*
X63017400Y-105156000D01*
X35574500Y-108345500D02*
X35560000Y-108331000D01*
D54*
X70007400Y-117632400D02*
X70007400Y-118897400D01*
D53*
X38248200Y-124674600D02*
X36638200Y-124674600D01*
X67437000Y-112409700D02*
X67437000Y-113675700D01*
D55*
X70002400Y-117221000D02*
X70002400Y-117627400D01*
X64516000Y-105156000D02*
X66700400Y-105156000D01*
X66522600Y-117221000D02*
X66522600Y-117678200D01*
D54*
X73451600Y-118885500D02*
X73451600Y-117800000D01*
D53*
X44450000Y-111555000D02*
X42699200Y-111555000D01*
X37070000Y-124700000D02*
X37033200Y-124663200D01*
X35574500Y-109855000D02*
X35574500Y-108345500D01*
X79694500Y-94041500D02*
X79694500Y-92456000D01*
X56335400Y-108858600D02*
X56335400Y-107461600D01*
D55*
X41465500Y-106692700D02*
X41135300Y-107022900D01*
D53*
X35255200Y-126388600D02*
X35255200Y-125145800D01*
D54*
X40868600Y-107289600D02*
X41135300Y-107022900D01*
D53*
X64280800Y-112821999D02*
X64280800Y-115043200D01*
X42699200Y-111555000D02*
X42697400Y-111556800D01*
X49762400Y-104813100D02*
X49762400Y-106404400D01*
%TO.N,Net-(D5-K)*%
X74401600Y-121160500D02*
X75257700Y-121160500D01*
X80443600Y-120754600D02*
X80562400Y-120873400D01*
X75257700Y-121160500D02*
X75663600Y-120754600D01*
X75663600Y-120754600D02*
X77622400Y-120754600D01*
X77622400Y-120754600D02*
X80443600Y-120754600D01*
D52*
%TO.N,MOSI*%
X69469000Y-94234000D02*
X69469000Y-93393800D01*
X67945000Y-95758000D02*
X69469000Y-94234000D01*
X82062400Y-103886000D02*
X83769200Y-102179200D01*
X83769200Y-100761800D02*
X78867000Y-95859600D01*
X83769200Y-102179200D02*
X83769200Y-100761800D01*
X70838600Y-93393800D02*
X73304400Y-95859600D01*
X73304400Y-95859600D02*
X73558400Y-95859600D01*
X78867000Y-95859600D02*
X73558400Y-95859600D01*
X69469000Y-93393800D02*
X70838600Y-93393800D01*
X69428200Y-98384200D02*
X67945000Y-96901000D01*
X67945000Y-96901000D02*
X67945000Y-95758000D01*
X69428200Y-99634200D02*
X69428200Y-98384200D01*
%TO.N,Net-(D5-A)*%
X77622400Y-117954600D02*
X77622400Y-115864100D01*
D56*
%TO.N,ADC2*%
X70550500Y-109484700D02*
X71170800Y-108864400D01*
X67437000Y-109484700D02*
X70550500Y-109484700D01*
X67437000Y-109484700D02*
X67437000Y-108737400D01*
X66888200Y-108188600D02*
X66888200Y-107254200D01*
X71170800Y-108864400D02*
X72923400Y-108864400D01*
X67437000Y-108737400D02*
X66888200Y-108188600D01*
D52*
%TO.N,MISO*%
X65659000Y-100838000D02*
X66862800Y-99634200D01*
D54*
X71907400Y-116941600D02*
X71336800Y-116371000D01*
X71907400Y-116941600D02*
X71907400Y-118897400D01*
D52*
X66888200Y-99634200D02*
X69743000Y-102489000D01*
D54*
X68437800Y-117028000D02*
X68437800Y-118902900D01*
D52*
X65659000Y-103505000D02*
X65659000Y-100838000D01*
X70612000Y-102489000D02*
X72009000Y-103886000D01*
X76982400Y-103886000D02*
X79522400Y-101346000D01*
X72009000Y-103886000D02*
X76982400Y-103886000D01*
D54*
X71336800Y-116371000D02*
X69094800Y-116371000D01*
X65659000Y-114249200D02*
X68437800Y-117028000D01*
X75351600Y-117515600D02*
X74142600Y-116306600D01*
D52*
X66862800Y-99634200D02*
X66888200Y-99634200D01*
D54*
X69094800Y-116371000D02*
X68437800Y-117028000D01*
X72542400Y-116306600D02*
X71907400Y-116941600D01*
X74142600Y-116306600D02*
X72542400Y-116306600D01*
X65659000Y-108280200D02*
X65659000Y-114249200D01*
X75351600Y-118885500D02*
X75351600Y-117515600D01*
D52*
X69743000Y-102489000D02*
X70612000Y-102489000D01*
%TO.N,SCK*%
X75666600Y-104673400D02*
X78735000Y-104673400D01*
X67665600Y-93726000D02*
X65913000Y-95478600D01*
X65913000Y-98069400D02*
X65913000Y-96318800D01*
X75311000Y-105029000D02*
X75666600Y-104673400D01*
X65379600Y-104394000D02*
X70866000Y-104394000D01*
X74498200Y-94488000D02*
X78816200Y-94488000D01*
X73787000Y-93776800D02*
X72034400Y-92024200D01*
X68478400Y-92024200D02*
X67665600Y-92837000D01*
X72034400Y-92024200D02*
X68478400Y-92024200D01*
X64348200Y-103362600D02*
X65379600Y-104394000D01*
X71501000Y-105029000D02*
X75311000Y-105029000D01*
X64348200Y-99634200D02*
X64348200Y-103362600D01*
X73787000Y-93776800D02*
X74498200Y-94488000D01*
X78816200Y-94488000D02*
X79527400Y-95199200D01*
X64348200Y-99634200D02*
X65913000Y-98069400D01*
X67665600Y-92837000D02*
X67665600Y-93726000D01*
X80441800Y-95199200D02*
X82931000Y-97688400D01*
X65913000Y-95478600D02*
X65913000Y-96318800D01*
X79527400Y-95199200D02*
X80441800Y-95199200D01*
X78735000Y-104673400D02*
X79522400Y-103886000D01*
X70866000Y-104394000D02*
X71501000Y-105029000D01*
%TO.N,RST*%
X76962000Y-105943400D02*
X77444600Y-106426000D01*
X60280798Y-110585002D02*
X61808200Y-109057600D01*
X61808200Y-109057600D02*
X61808200Y-107254200D01*
X77444600Y-106426000D02*
X79522400Y-106426000D01*
X62153800Y-105943400D02*
X76962000Y-105943400D01*
X61808200Y-106289000D02*
X62153800Y-105943400D01*
X60280798Y-112821999D02*
X60280798Y-110585002D01*
X61808200Y-107254200D02*
X61808200Y-106289000D01*
%TO.N,Net-(D6-K)*%
X43992800Y-101854000D02*
X44856400Y-101854000D01*
X45466000Y-99656900D02*
X45466000Y-98501200D01*
X47726600Y-97917000D02*
X48387000Y-97256600D01*
X48387000Y-97256600D02*
X48387000Y-96318800D01*
X46050200Y-97917000D02*
X47726600Y-97917000D01*
X44856400Y-101854000D02*
X45466000Y-101244400D01*
X43408600Y-103811300D02*
X43408600Y-102438200D01*
X43408600Y-102438200D02*
X43992800Y-101854000D01*
X45466000Y-101244400D02*
X45466000Y-99656900D01*
X45466000Y-98501200D02*
X46050200Y-97917000D01*
%TO.N,Net-(D6-A)*%
X41275000Y-96318800D02*
X41275000Y-97739200D01*
X41452800Y-101549200D02*
X41466000Y-101536000D01*
X41466000Y-97930200D02*
X41466000Y-99656900D01*
X42138600Y-103811300D02*
X42138600Y-102235000D01*
X37719000Y-96318800D02*
X41275000Y-96318800D01*
X41466000Y-101536000D02*
X41466000Y-99656900D01*
X42138600Y-102235000D02*
X41452800Y-101549200D01*
X41275000Y-97739200D02*
X41466000Y-97930200D01*
D53*
%TO.N,Net-(J6-Pin_2)*%
X78587600Y-125730000D02*
X79451200Y-126593600D01*
X70957400Y-122809000D02*
X70957400Y-123967200D01*
D54*
X70957400Y-122809000D02*
X70957400Y-121172400D01*
D53*
X70957400Y-123967200D02*
X73609200Y-126619000D01*
X73609200Y-126619000D02*
X73609200Y-127762000D01*
X72745600Y-125730000D02*
X78587600Y-125730000D01*
X72732900Y-125742700D02*
X72745600Y-125730000D01*
X79451200Y-126593600D02*
X79451200Y-127762000D01*
D56*
%TO.N,Q*%
X43916600Y-107048300D02*
X45377100Y-107048300D01*
X48646000Y-102344300D02*
X48641000Y-102349300D01*
X45720000Y-107391200D02*
X47142400Y-107391200D01*
X49149000Y-102857300D02*
X50546000Y-102857300D01*
X50850800Y-107391200D02*
X51435000Y-106807000D01*
X50546000Y-102857300D02*
X51435000Y-103746300D01*
X43408600Y-107556300D02*
X43916600Y-107048300D01*
X51435000Y-103746300D02*
X51435000Y-106807000D01*
X48646000Y-101079300D02*
X48646000Y-102344300D01*
X45377100Y-107048300D02*
X45720000Y-107391200D01*
X43408600Y-108761300D02*
X43408600Y-107556300D01*
X47142400Y-107391200D02*
X50850800Y-107391200D01*
X48641000Y-102349300D02*
X49149000Y-102857300D01*
D52*
%TO.N,ADC3*%
X50596800Y-128066800D02*
X53136800Y-128066800D01*
X62179200Y-111226600D02*
X64348200Y-109057600D01*
X64348200Y-109057600D02*
X64348200Y-107254200D01*
X53136800Y-128066800D02*
X55676800Y-128066800D01*
X48056800Y-128066800D02*
X50596800Y-128066800D01*
X55676800Y-128066800D02*
X62179200Y-121564400D01*
X62179200Y-121564400D02*
X62179200Y-111226600D01*
%TO.N,Net-(S1-NO_3)*%
X57835800Y-114935000D02*
X57835800Y-117856000D01*
X56337200Y-114539300D02*
X57440100Y-114539300D01*
X52552600Y-118491000D02*
X50596800Y-120446800D01*
X57440100Y-114539300D02*
X57835800Y-114935000D01*
X57200800Y-118491000D02*
X52552600Y-118491000D01*
X57835800Y-117856000D02*
X57200800Y-118491000D01*
X56337200Y-114539300D02*
X56337200Y-111785400D01*
%TO.N,Net-(S1-NO_2)*%
X54279800Y-111760000D02*
X55524400Y-110515400D01*
X58267600Y-118237000D02*
X57353200Y-119151400D01*
X58267600Y-111379000D02*
X58267600Y-118237000D01*
X55524400Y-110515400D02*
X57404000Y-110515400D01*
X54432200Y-119151400D02*
X53136800Y-120446800D01*
X52930000Y-111760000D02*
X54279800Y-111760000D01*
X52908200Y-114539300D02*
X52908200Y-111785400D01*
X57353200Y-119151400D02*
X54432200Y-119151400D01*
X57404000Y-110515400D02*
X58267600Y-111379000D01*
D53*
%TO.N,Net-(J4-Pin_2)*%
X67767200Y-124891800D02*
X67767200Y-122910600D01*
X61950600Y-127762000D02*
X61950600Y-126492000D01*
X61950600Y-126492000D02*
X62712600Y-125730000D01*
D54*
X67767200Y-122377200D02*
X67767200Y-122910600D01*
D53*
X67767200Y-127762000D02*
X67767200Y-124891800D01*
X66929000Y-125730000D02*
X67767200Y-124891800D01*
D54*
X67487800Y-122097800D02*
X67767200Y-122377200D01*
D53*
X62712600Y-125730000D02*
X66929000Y-125730000D01*
D54*
X67487800Y-121177900D02*
X67487800Y-122097800D01*
D53*
%TO.N,VBUS*%
X59055000Y-92316300D02*
X59055000Y-93456300D01*
D52*
X39624000Y-106680000D02*
X40868600Y-105435400D01*
D53*
X51943000Y-92329000D02*
X51943000Y-93393800D01*
D52*
X40538400Y-110451900D02*
X39624000Y-109537500D01*
D53*
X58407300Y-91668600D02*
X59055000Y-92316300D01*
X38519100Y-91643200D02*
X51244500Y-91643200D01*
D52*
X44678600Y-110121700D02*
X44348400Y-110451900D01*
X40868600Y-105435400D02*
X40868600Y-103811300D01*
D54*
X36383000Y-114996000D02*
X36322000Y-114935000D01*
D53*
X51269900Y-91668600D02*
X58407300Y-91668600D01*
X37693600Y-103720900D02*
X37719000Y-103695500D01*
X40752800Y-103695500D02*
X40868600Y-103811300D01*
X35814000Y-114071400D02*
X35814000Y-112776000D01*
X51244500Y-91643200D02*
X51269900Y-91668600D01*
X37706300Y-103682800D02*
X36398200Y-103682800D01*
X36398200Y-103682800D02*
X35763200Y-103047800D01*
X37719000Y-103695500D02*
X40752800Y-103695500D01*
X35814000Y-114071400D02*
X35814000Y-114427000D01*
X51244500Y-91643200D02*
X51257200Y-91643200D01*
X35814000Y-114427000D02*
X36322000Y-114935000D01*
X36298600Y-93393800D02*
X37719000Y-93393800D01*
X37719000Y-92443300D02*
X38519100Y-91643200D01*
X51257200Y-91643200D02*
X51943000Y-92329000D01*
X38257000Y-114996000D02*
X38257000Y-105846400D01*
X38257000Y-105846400D02*
X37693600Y-105283000D01*
X37719000Y-103695500D02*
X37706300Y-103682800D01*
D52*
X39624000Y-109537500D02*
X39624000Y-106680000D01*
X44348400Y-110451900D02*
X40538400Y-110451900D01*
D53*
X35763200Y-93929200D02*
X36298600Y-93393800D01*
D54*
X38257000Y-114996000D02*
X36383000Y-114996000D01*
D53*
X37719000Y-93393800D02*
X37719000Y-92443300D01*
X35763200Y-103047800D02*
X35763200Y-93929200D01*
D52*
X44678600Y-108761300D02*
X44678600Y-110121700D01*
D53*
X37693600Y-105283000D02*
X37693600Y-103720900D01*
%TO.N,Net-(J1-VBUS)*%
X32874500Y-104539500D02*
X32874500Y-109855000D01*
X33699200Y-103714800D02*
X32874500Y-104539500D01*
X33699200Y-101280600D02*
X33699200Y-103714800D01*
X32874500Y-112761500D02*
X32889000Y-112776000D01*
X32874500Y-109855000D02*
X32874500Y-112761500D01*
%TO.N,+9V*%
X59410600Y-129057400D02*
X59410600Y-127762000D01*
X58293000Y-130175000D02*
X59410600Y-129057400D01*
X41656000Y-130175000D02*
X58293000Y-130175000D01*
X33655000Y-119507000D02*
X33655000Y-128778000D01*
X38248200Y-129274600D02*
X40755600Y-129274600D01*
X40755600Y-129274600D02*
X41656000Y-130175000D01*
X33655000Y-128778000D02*
X34215600Y-129338600D01*
X64262000Y-130175000D02*
X65227200Y-129209800D01*
X35683200Y-129338600D02*
X38184200Y-129338600D01*
X65227200Y-129209800D02*
X65227200Y-127762000D01*
X34215600Y-129338600D02*
X35255200Y-129338600D01*
X58293000Y-130175000D02*
X64262000Y-130175000D01*
D52*
%TO.N,Net-(D1-K)*%
X55499000Y-94272100D02*
X55499000Y-93393800D01*
X59055000Y-96256300D02*
X57483200Y-96256300D01*
X57483200Y-96256300D02*
X55499000Y-94272100D01*
D54*
%TO.N,Net-(Q2-C)*%
X49596000Y-98804300D02*
X49596000Y-97584300D01*
X50861500Y-96318800D02*
X51943000Y-96318800D01*
D55*
X55499000Y-96318800D02*
X51943000Y-96318800D01*
D54*
X49596000Y-97584300D02*
X50861500Y-96318800D01*
D52*
%TO.N,Net-(R2-Pad1)*%
X44831000Y-93393800D02*
X41275000Y-93393800D01*
%TO.N,Net-(R3-Pad1)*%
X48387000Y-94195900D02*
X48387000Y-93393800D01*
X44831000Y-96318800D02*
X46264100Y-96318800D01*
X46264100Y-96318800D02*
X48387000Y-94195900D01*
%TO.N,Net-(R10-Pad2)*%
X65913000Y-92202000D02*
X66776600Y-91338400D01*
X65913000Y-93393800D02*
X65913000Y-92202000D01*
X74828400Y-91338400D02*
X75946000Y-92456000D01*
X75946000Y-92456000D02*
X76769500Y-92456000D01*
X66776600Y-91338400D02*
X74828400Y-91338400D01*
%TO.N,Net-(D2-A)*%
X69469000Y-97180400D02*
X70434200Y-98145600D01*
X70434200Y-98145600D02*
X71800800Y-98145600D01*
X71800800Y-98145600D02*
X73685400Y-100030200D01*
X69469000Y-96318800D02*
X69469000Y-97180400D01*
%TD*%
%TA.AperFunction,Conductor*%
%TO.N,GND*%
G36*
X61045439Y-101350285D02*
G01*
X61091194Y-101403089D01*
X61102400Y-101454600D01*
X61102400Y-104381600D01*
X61082715Y-104448639D01*
X61029911Y-104494394D01*
X60978400Y-104505600D01*
X54803762Y-104505600D01*
X54736723Y-104485915D01*
X54716081Y-104469281D01*
X54153719Y-103906919D01*
X54120234Y-103845596D01*
X54117400Y-103819238D01*
X54117400Y-101454600D01*
X54137085Y-101387561D01*
X54189889Y-101341806D01*
X54241400Y-101330600D01*
X60978400Y-101330600D01*
X61045439Y-101350285D01*
G37*
%TD.AperFunction*%
%TD*%
%TA.AperFunction,Conductor*%
%TO.N,+5VL*%
G36*
X40964039Y-115691285D02*
G01*
X41009794Y-115744089D01*
X41021000Y-115795600D01*
X41021000Y-117068600D01*
X42799000Y-120116600D01*
X46231000Y-120116600D01*
X46298039Y-120136285D01*
X46343794Y-120189089D01*
X46355000Y-120240600D01*
X46355000Y-129150500D01*
X46335315Y-129217539D01*
X46282511Y-129263294D01*
X46231000Y-129274500D01*
X42469852Y-129274500D01*
X42402813Y-129254815D01*
X42386062Y-129241907D01*
X41021000Y-127990600D01*
X37589000Y-127990600D01*
X37521961Y-127970915D01*
X37476206Y-127918111D01*
X37465000Y-127866600D01*
X37465000Y-126209600D01*
X37484685Y-126142561D01*
X37537489Y-126096806D01*
X37589000Y-126085600D01*
X40005000Y-126085600D01*
X40005000Y-123418600D01*
X39367000Y-123418600D01*
X39299961Y-123398915D01*
X39254206Y-123346111D01*
X39243000Y-123294600D01*
X39243000Y-115795600D01*
X39262685Y-115728561D01*
X39315489Y-115682806D01*
X39367000Y-115671600D01*
X40897000Y-115671600D01*
X40964039Y-115691285D01*
G37*
%TD.AperFunction*%
%TD*%
M02*
