M48
; DRILL file {KiCad 7.0.5} date Thu Nov 16 23:15:13 2023
; FORMAT={-:-/ absolute / metric / decimal}
; #@! TF.CreationDate,2023-11-16T23:15:13+01:00
; #@! TF.GenerationSoftware,Kicad,Pcbnew,7.0.5
; #@! TF.FileFunction,MixedPlating,1,2
FMAT,2
METRIC
; #@! TA.AperFunction,Plated,PTH,ViaDrill
T1C0.300
; #@! TA.AperFunction,Plated,PTH,ViaDrill
T2C0.400
; #@! TA.AperFunction,Plated,PTH,ComponentDrill
T3C0.600
; #@! TA.AperFunction,Plated,PTH,ComponentDrill
T4C0.800
; #@! TA.AperFunction,Plated,PTH,ComponentDrill
T5C0.900
; #@! TA.AperFunction,Plated,PTH,ComponentDrill
T6C0.920
; #@! TA.AperFunction,Plated,PTH,ComponentDrill
T7C1.000
; #@! TA.AperFunction,Plated,PTH,ComponentDrill
T8C1.100
; #@! TA.AperFunction,Plated,PTH,ComponentDrill
T9C2.200
; #@! TA.AperFunction,Plated,PTH,ComponentDrill
T10C2.330
; #@! TA.AperFunction,Plated,PTH,ComponentDrill
T11C2.404
; #@! TA.AperFunction,NonPlated,NPTH,ComponentDrill
T12C1.100
%
G90
G05
T1
X41.465Y-106.693
X64.516Y-105.156
X65.659Y-103.505
X65.659Y-108.28
X66.523Y-117.221
X66.7Y-105.156
X70.002Y-117.221
X73.431Y-117.348
T2
X35.255Y-125.146
X35.56Y-108.331
X36.017Y-118.745
X36.017Y-121.514
X36.601Y-124.638
X37.719Y-99.136
X42.697Y-111.557
X48.895Y-109.423
X49.784Y-106.426
X51.689Y-101.092
X52.906Y-107.462
X55.387Y-103.871
X56.335Y-107.462
X56.887Y-103.871
X58.387Y-103.871
X59.887Y-103.871
X63.017Y-105.156
X64.262Y-115.062
X67.437Y-113.676
X68.326Y-105.156
X79.694Y-94.041
T3
X73.787Y-93.777
X73.787Y-97.18
T4
X48.057Y-120.447
X48.057Y-128.067
X50.597Y-120.447
X50.597Y-128.067
X53.137Y-120.447
X53.137Y-128.067
X55.677Y-120.447
X55.677Y-128.067
X61.808Y-99.634
X61.808Y-107.254
X64.348Y-99.634
X64.348Y-107.254
X66.888Y-99.634
X66.888Y-107.254
X69.428Y-99.634
X69.428Y-107.254
T5
X72.923Y-108.864
X73.685Y-100.03
X73.685Y-102.57
X75.463Y-108.864
T6
X31.699Y-98.781
X31.699Y-101.281
X33.699Y-98.781
X33.699Y-101.281
T7
X79.522Y-101.346
X79.522Y-103.886
X79.522Y-106.426
X82.062Y-101.346
X82.062Y-103.886
X82.062Y-106.426
T8
X59.411Y-127.762
X61.951Y-127.762
X65.227Y-127.762
X67.767Y-127.762
X71.069Y-127.762
X73.609Y-127.762
X76.911Y-127.762
X79.451Y-127.762
T9
X29.0Y-128.0
X83.0Y-94.0
X83.0Y-128.0
T10
X28.989Y-94.011
X28.989Y-106.051
T11
X83.162Y-111.523
X83.162Y-123.223
T12
X83.162Y-115.123
X83.162Y-119.623
T7
G00X27.355Y-118.407
M15
G01X27.355Y-120.607
M16
G05
G00X31.855Y-124.307
M15
G01X29.655Y-124.307
M16
G05
G00X33.655Y-118.207
M15
G01X33.655Y-120.807
M16
G05
T0
M30
