%TF.GenerationSoftware,KiCad,Pcbnew,7.0.5*%
%TF.CreationDate,2023-11-16T23:15:32+01:00*%
%TF.ProjectId,STGSv0.2,53544753-7630-42e3-922e-6b696361645f,rev?*%
%TF.SameCoordinates,Original*%
%TF.FileFunction,Paste,Top*%
%TF.FilePolarity,Positive*%
%FSLAX46Y46*%
G04 Gerber Fmt 4.6, Leading zero omitted, Abs format (unit mm)*
G04 Created by KiCad (PCBNEW 7.0.5) date 2023-11-16 23:15:32*
%MOMM*%
%LPD*%
G01*
G04 APERTURE LIST*
G04 Aperture macros list*
%AMRoundRect*
0 Rectangle with rounded corners*
0 $1 Rounding radius*
0 $2 $3 $4 $5 $6 $7 $8 $9 X,Y pos of 4 corners*
0 Add a 4 corners polygon primitive as box body*
4,1,4,$2,$3,$4,$5,$6,$7,$8,$9,$2,$3,0*
0 Add four circle primitives for the rounded corners*
1,1,$1+$1,$2,$3*
1,1,$1+$1,$4,$5*
1,1,$1+$1,$6,$7*
1,1,$1+$1,$8,$9*
0 Add four rect primitives between the rounded corners*
20,1,$1+$1,$2,$3,$4,$5,0*
20,1,$1+$1,$4,$5,$6,$7,0*
20,1,$1+$1,$6,$7,$8,$9,0*
20,1,$1+$1,$8,$9,$2,$3,0*%
G04 Aperture macros list end*
%ADD10RoundRect,0.250000X1.025000X-0.787500X1.025000X0.787500X-1.025000X0.787500X-1.025000X-0.787500X0*%
%ADD11RoundRect,0.250000X0.650000X-0.325000X0.650000X0.325000X-0.650000X0.325000X-0.650000X-0.325000X0*%
%ADD12RoundRect,0.250000X-0.625000X0.312500X-0.625000X-0.312500X0.625000X-0.312500X0.625000X0.312500X0*%
%ADD13R,2.000000X1.500000*%
%ADD14R,2.000000X3.800000*%
%ADD15RoundRect,0.150000X-0.150000X0.512500X-0.150000X-0.512500X0.150000X-0.512500X0.150000X0.512500X0*%
%ADD16RoundRect,0.250000X0.625000X-0.312500X0.625000X0.312500X-0.625000X0.312500X-0.625000X-0.312500X0*%
%ADD17R,1.000000X2.750000*%
%ADD18RoundRect,0.150000X0.150000X-0.512500X0.150000X0.512500X-0.150000X0.512500X-0.150000X-0.512500X0*%
%ADD19RoundRect,0.150000X0.150000X-0.825000X0.150000X0.825000X-0.150000X0.825000X-0.150000X-0.825000X0*%
%ADD20RoundRect,0.250000X0.312500X0.625000X-0.312500X0.625000X-0.312500X-0.625000X0.312500X-0.625000X0*%
%ADD21RoundRect,0.250000X-0.450000X-0.425000X0.450000X-0.425000X0.450000X0.425000X-0.450000X0.425000X0*%
%ADD22R,2.000000X1.200000*%
%ADD23RoundRect,0.250000X0.625000X-0.375000X0.625000X0.375000X-0.625000X0.375000X-0.625000X-0.375000X0*%
%ADD24RoundRect,0.250000X0.450000X0.425000X-0.450000X0.425000X-0.450000X-0.425000X0.450000X-0.425000X0*%
%ADD25RoundRect,0.150000X0.587500X0.150000X-0.587500X0.150000X-0.587500X-0.150000X0.587500X-0.150000X0*%
%ADD26RoundRect,0.250000X-0.650000X0.325000X-0.650000X-0.325000X0.650000X-0.325000X0.650000X0.325000X0*%
%ADD27RoundRect,0.250000X1.000000X0.650000X-1.000000X0.650000X-1.000000X-0.650000X1.000000X-0.650000X0*%
%ADD28RoundRect,0.250000X-0.650000X1.000000X-0.650000X-1.000000X0.650000X-1.000000X0.650000X1.000000X0*%
%ADD29RoundRect,0.250000X-0.425000X0.450000X-0.425000X-0.450000X0.425000X-0.450000X0.425000X0.450000X0*%
G04 APERTURE END LIST*
D10*
%TO.C,C9*%
X48895000Y-117412500D03*
X48895000Y-111187500D03*
%TD*%
D11*
%TO.C,C7*%
X35255200Y-129338600D03*
X35255200Y-126388600D03*
%TD*%
D12*
%TO.C,R7*%
X65913000Y-93393800D03*
X65913000Y-96318800D03*
%TD*%
D11*
%TO.C,C8*%
X44323000Y-114505000D03*
X44323000Y-111555000D03*
%TD*%
D13*
%TO.C,U2*%
X38248200Y-124674600D03*
X38248200Y-126974600D03*
D14*
X44548200Y-126974600D03*
D13*
X38248200Y-129274600D03*
%TD*%
D15*
%TO.C,Q4*%
X71907400Y-118897400D03*
X70007400Y-118897400D03*
X70957400Y-121172400D03*
%TD*%
D16*
%TO.C,R6*%
X55499000Y-96318800D03*
X55499000Y-93393800D03*
%TD*%
D17*
%TO.C,SW1*%
X60280798Y-118572001D03*
X60280798Y-112821999D03*
X64280800Y-118572001D03*
X64280800Y-112821999D03*
%TD*%
D18*
%TO.C,Q2*%
X48646000Y-101079300D03*
X50546000Y-101079300D03*
X49596000Y-98804300D03*
%TD*%
D19*
%TO.C,U3*%
X40868600Y-108761300D03*
X42138600Y-108761300D03*
X43408600Y-108761300D03*
X44678600Y-108761300D03*
X44678600Y-103811300D03*
X43408600Y-103811300D03*
X42138600Y-103811300D03*
X40868600Y-103811300D03*
%TD*%
D20*
%TO.C,R10*%
X79694500Y-92456000D03*
X76769500Y-92456000D03*
%TD*%
D11*
%TO.C,C1*%
X37719000Y-103695500D03*
X37719000Y-100745500D03*
%TD*%
D12*
%TO.C,R18*%
X77622400Y-112939100D03*
X77622400Y-115864100D03*
%TD*%
D16*
%TO.C,R17*%
X67437000Y-112409700D03*
X67437000Y-109484700D03*
%TD*%
D12*
%TO.C,R14*%
X56335400Y-108858600D03*
X56335400Y-111783600D03*
%TD*%
D21*
%TO.C,C5*%
X32874500Y-109855000D03*
X35574500Y-109855000D03*
%TD*%
D16*
%TO.C,R4*%
X48387000Y-96318800D03*
X48387000Y-93393800D03*
%TD*%
D22*
%TO.C,J8*%
X80562400Y-113873400D03*
X80562400Y-116373400D03*
X80562400Y-118373400D03*
X80562400Y-120873400D03*
%TD*%
D20*
%TO.C,R11*%
X35814000Y-112776000D03*
X32889000Y-112776000D03*
%TD*%
D23*
%TO.C,D5*%
X77622400Y-120754600D03*
X77622400Y-117954600D03*
%TD*%
%TO.C,D1*%
X59055000Y-96256300D03*
X59055000Y-93456300D03*
%TD*%
D24*
%TO.C,C6*%
X40081200Y-121513600D03*
X37381200Y-121513600D03*
%TD*%
D15*
%TO.C,Q5*%
X75351600Y-118885500D03*
X73451600Y-118885500D03*
X74401600Y-121160500D03*
%TD*%
D16*
%TO.C,R3*%
X44831000Y-96318800D03*
X44831000Y-93393800D03*
%TD*%
D12*
%TO.C,R1*%
X37719000Y-93393800D03*
X37719000Y-96318800D03*
%TD*%
D25*
%TO.C,Q1*%
X40132000Y-115946000D03*
X40132000Y-114046000D03*
X38257000Y-114996000D03*
%TD*%
D15*
%TO.C,Q3*%
X68437800Y-118902900D03*
X66537800Y-118902900D03*
X67487800Y-121177900D03*
%TD*%
D20*
%TO.C,R12*%
X40273700Y-118719600D03*
X37348700Y-118719600D03*
%TD*%
D16*
%TO.C,R8*%
X69469000Y-96318800D03*
X69469000Y-93393800D03*
%TD*%
%TO.C,R5*%
X51943000Y-96318800D03*
X51943000Y-93393800D03*
%TD*%
D12*
%TO.C,R13*%
X52906400Y-108858600D03*
X52906400Y-111783600D03*
%TD*%
D21*
%TO.C,C2*%
X47062400Y-104813100D03*
X49762400Y-104813100D03*
%TD*%
D12*
%TO.C,R16*%
X56337200Y-114539300D03*
X56337200Y-117464300D03*
%TD*%
D26*
%TO.C,C4*%
X59070400Y-99627000D03*
X59070400Y-102577000D03*
%TD*%
D12*
%TO.C,R2*%
X41275000Y-93393800D03*
X41275000Y-96318800D03*
%TD*%
D27*
%TO.C,D6*%
X45466000Y-99656900D03*
X41466000Y-99656900D03*
%TD*%
D12*
%TO.C,R15*%
X52908200Y-114539300D03*
X52908200Y-117464300D03*
%TD*%
D28*
%TO.C,D4*%
X44196000Y-117432600D03*
X44196000Y-121432600D03*
%TD*%
D29*
%TO.C,C3*%
X55768400Y-99616100D03*
X55768400Y-102316100D03*
%TD*%
M02*
