%TF.GenerationSoftware,KiCad,Pcbnew,7.0.5*%
%TF.CreationDate,2023-11-16T23:15:32+01:00*%
%TF.ProjectId,STGSv0.2,53544753-7630-42e3-922e-6b696361645f,rev?*%
%TF.SameCoordinates,Original*%
%TF.FileFunction,Legend,Bot*%
%TF.FilePolarity,Positive*%
%FSLAX46Y46*%
G04 Gerber Fmt 4.6, Leading zero omitted, Abs format (unit mm)*
G04 Created by KiCad (PCBNEW 7.0.5) date 2023-11-16 23:15:32*
%MOMM*%
%LPD*%
G01*
G04 APERTURE LIST*
%ADD10C,0.500000*%
%ADD11C,0.150000*%
%ADD12C,0.175000*%
%ADD13C,0.010000*%
G04 APERTURE END LIST*
D10*
X48693100Y-108600000D02*
X48407386Y-108695238D01*
X48407386Y-108695238D02*
X47931195Y-108695238D01*
X47931195Y-108695238D02*
X47740719Y-108600000D01*
X47740719Y-108600000D02*
X47645481Y-108504761D01*
X47645481Y-108504761D02*
X47550243Y-108314285D01*
X47550243Y-108314285D02*
X47550243Y-108123809D01*
X47550243Y-108123809D02*
X47645481Y-107933333D01*
X47645481Y-107933333D02*
X47740719Y-107838095D01*
X47740719Y-107838095D02*
X47931195Y-107742857D01*
X47931195Y-107742857D02*
X48312148Y-107647619D01*
X48312148Y-107647619D02*
X48502624Y-107552380D01*
X48502624Y-107552380D02*
X48597862Y-107457142D01*
X48597862Y-107457142D02*
X48693100Y-107266666D01*
X48693100Y-107266666D02*
X48693100Y-107076190D01*
X48693100Y-107076190D02*
X48597862Y-106885714D01*
X48597862Y-106885714D02*
X48502624Y-106790476D01*
X48502624Y-106790476D02*
X48312148Y-106695238D01*
X48312148Y-106695238D02*
X47835957Y-106695238D01*
X47835957Y-106695238D02*
X47550243Y-106790476D01*
X46978814Y-106695238D02*
X45835957Y-106695238D01*
X46407386Y-108695238D02*
X46407386Y-106695238D01*
X44121671Y-106790476D02*
X44312147Y-106695238D01*
X44312147Y-106695238D02*
X44597861Y-106695238D01*
X44597861Y-106695238D02*
X44883576Y-106790476D01*
X44883576Y-106790476D02*
X45074052Y-106980952D01*
X45074052Y-106980952D02*
X45169290Y-107171428D01*
X45169290Y-107171428D02*
X45264528Y-107552380D01*
X45264528Y-107552380D02*
X45264528Y-107838095D01*
X45264528Y-107838095D02*
X45169290Y-108219047D01*
X45169290Y-108219047D02*
X45074052Y-108409523D01*
X45074052Y-108409523D02*
X44883576Y-108600000D01*
X44883576Y-108600000D02*
X44597861Y-108695238D01*
X44597861Y-108695238D02*
X44407385Y-108695238D01*
X44407385Y-108695238D02*
X44121671Y-108600000D01*
X44121671Y-108600000D02*
X44026433Y-108504761D01*
X44026433Y-108504761D02*
X44026433Y-107838095D01*
X44026433Y-107838095D02*
X44407385Y-107838095D01*
X43264528Y-108600000D02*
X42978814Y-108695238D01*
X42978814Y-108695238D02*
X42502623Y-108695238D01*
X42502623Y-108695238D02*
X42312147Y-108600000D01*
X42312147Y-108600000D02*
X42216909Y-108504761D01*
X42216909Y-108504761D02*
X42121671Y-108314285D01*
X42121671Y-108314285D02*
X42121671Y-108123809D01*
X42121671Y-108123809D02*
X42216909Y-107933333D01*
X42216909Y-107933333D02*
X42312147Y-107838095D01*
X42312147Y-107838095D02*
X42502623Y-107742857D01*
X42502623Y-107742857D02*
X42883576Y-107647619D01*
X42883576Y-107647619D02*
X43074052Y-107552380D01*
X43074052Y-107552380D02*
X43169290Y-107457142D01*
X43169290Y-107457142D02*
X43264528Y-107266666D01*
X43264528Y-107266666D02*
X43264528Y-107076190D01*
X43264528Y-107076190D02*
X43169290Y-106885714D01*
X43169290Y-106885714D02*
X43074052Y-106790476D01*
X43074052Y-106790476D02*
X42883576Y-106695238D01*
X42883576Y-106695238D02*
X42407385Y-106695238D01*
X42407385Y-106695238D02*
X42121671Y-106790476D01*
D11*
X55016249Y-92895638D02*
X55016249Y-93948019D01*
X55016249Y-93948019D02*
X55078154Y-94071828D01*
X55078154Y-94071828D02*
X55140058Y-94133733D01*
X55140058Y-94133733D02*
X55263868Y-94195638D01*
X55263868Y-94195638D02*
X55449582Y-94195638D01*
X55449582Y-94195638D02*
X55573392Y-94133733D01*
X55016249Y-93700400D02*
X55140058Y-93762304D01*
X55140058Y-93762304D02*
X55387677Y-93762304D01*
X55387677Y-93762304D02*
X55511487Y-93700400D01*
X55511487Y-93700400D02*
X55573392Y-93638495D01*
X55573392Y-93638495D02*
X55635296Y-93514685D01*
X55635296Y-93514685D02*
X55635296Y-93143257D01*
X55635296Y-93143257D02*
X55573392Y-93019447D01*
X55573392Y-93019447D02*
X55511487Y-92957542D01*
X55511487Y-92957542D02*
X55387677Y-92895638D01*
X55387677Y-92895638D02*
X55140058Y-92895638D01*
X55140058Y-92895638D02*
X55016249Y-92957542D01*
X54397202Y-93762304D02*
X54397202Y-92895638D01*
X54397202Y-92462304D02*
X54459106Y-92524209D01*
X54459106Y-92524209D02*
X54397202Y-92586114D01*
X54397202Y-92586114D02*
X54335297Y-92524209D01*
X54335297Y-92524209D02*
X54397202Y-92462304D01*
X54397202Y-92462304D02*
X54397202Y-92586114D01*
X53963868Y-92895638D02*
X53468630Y-92895638D01*
X53778154Y-92462304D02*
X53778154Y-93576590D01*
X53778154Y-93576590D02*
X53716249Y-93700400D01*
X53716249Y-93700400D02*
X53592439Y-93762304D01*
X53592439Y-93762304D02*
X53468630Y-93762304D01*
X53035297Y-93762304D02*
X53035297Y-92462304D01*
X52478154Y-93762304D02*
X52478154Y-93081352D01*
X52478154Y-93081352D02*
X52540059Y-92957542D01*
X52540059Y-92957542D02*
X52663868Y-92895638D01*
X52663868Y-92895638D02*
X52849582Y-92895638D01*
X52849582Y-92895638D02*
X52973392Y-92957542D01*
X52973392Y-92957542D02*
X53035297Y-93019447D01*
X51301964Y-92895638D02*
X51301964Y-93762304D01*
X51859107Y-92895638D02*
X51859107Y-93576590D01*
X51859107Y-93576590D02*
X51797202Y-93700400D01*
X51797202Y-93700400D02*
X51673392Y-93762304D01*
X51673392Y-93762304D02*
X51487678Y-93762304D01*
X51487678Y-93762304D02*
X51363869Y-93700400D01*
X51363869Y-93700400D02*
X51301964Y-93638495D01*
X50682917Y-93762304D02*
X50682917Y-92462304D01*
X50682917Y-92957542D02*
X50559107Y-92895638D01*
X50559107Y-92895638D02*
X50311488Y-92895638D01*
X50311488Y-92895638D02*
X50187679Y-92957542D01*
X50187679Y-92957542D02*
X50125774Y-93019447D01*
X50125774Y-93019447D02*
X50063869Y-93143257D01*
X50063869Y-93143257D02*
X50063869Y-93514685D01*
X50063869Y-93514685D02*
X50125774Y-93638495D01*
X50125774Y-93638495D02*
X50187679Y-93700400D01*
X50187679Y-93700400D02*
X50311488Y-93762304D01*
X50311488Y-93762304D02*
X50559107Y-93762304D01*
X50559107Y-93762304D02*
X50682917Y-93700400D01*
X49506727Y-93638495D02*
X49444822Y-93700400D01*
X49444822Y-93700400D02*
X49506727Y-93762304D01*
X49506727Y-93762304D02*
X49568631Y-93700400D01*
X49568631Y-93700400D02*
X49506727Y-93638495D01*
X49506727Y-93638495D02*
X49506727Y-93762304D01*
X48330536Y-93700400D02*
X48454345Y-93762304D01*
X48454345Y-93762304D02*
X48701964Y-93762304D01*
X48701964Y-93762304D02*
X48825774Y-93700400D01*
X48825774Y-93700400D02*
X48887679Y-93638495D01*
X48887679Y-93638495D02*
X48949583Y-93514685D01*
X48949583Y-93514685D02*
X48949583Y-93143257D01*
X48949583Y-93143257D02*
X48887679Y-93019447D01*
X48887679Y-93019447D02*
X48825774Y-92957542D01*
X48825774Y-92957542D02*
X48701964Y-92895638D01*
X48701964Y-92895638D02*
X48454345Y-92895638D01*
X48454345Y-92895638D02*
X48330536Y-92957542D01*
X47587678Y-93762304D02*
X47711488Y-93700400D01*
X47711488Y-93700400D02*
X47773393Y-93638495D01*
X47773393Y-93638495D02*
X47835297Y-93514685D01*
X47835297Y-93514685D02*
X47835297Y-93143257D01*
X47835297Y-93143257D02*
X47773393Y-93019447D01*
X47773393Y-93019447D02*
X47711488Y-92957542D01*
X47711488Y-92957542D02*
X47587678Y-92895638D01*
X47587678Y-92895638D02*
X47401964Y-92895638D01*
X47401964Y-92895638D02*
X47278155Y-92957542D01*
X47278155Y-92957542D02*
X47216250Y-93019447D01*
X47216250Y-93019447D02*
X47154345Y-93143257D01*
X47154345Y-93143257D02*
X47154345Y-93514685D01*
X47154345Y-93514685D02*
X47216250Y-93638495D01*
X47216250Y-93638495D02*
X47278155Y-93700400D01*
X47278155Y-93700400D02*
X47401964Y-93762304D01*
X47401964Y-93762304D02*
X47587678Y-93762304D01*
X46597203Y-93762304D02*
X46597203Y-92895638D01*
X46597203Y-93019447D02*
X46535298Y-92957542D01*
X46535298Y-92957542D02*
X46411488Y-92895638D01*
X46411488Y-92895638D02*
X46225774Y-92895638D01*
X46225774Y-92895638D02*
X46101965Y-92957542D01*
X46101965Y-92957542D02*
X46040060Y-93081352D01*
X46040060Y-93081352D02*
X46040060Y-93762304D01*
X46040060Y-93081352D02*
X45978155Y-92957542D01*
X45978155Y-92957542D02*
X45854346Y-92895638D01*
X45854346Y-92895638D02*
X45668631Y-92895638D01*
X45668631Y-92895638D02*
X45544822Y-92957542D01*
X45544822Y-92957542D02*
X45482917Y-93081352D01*
X45482917Y-93081352D02*
X45482917Y-93762304D01*
X43935298Y-92400400D02*
X45049584Y-94071828D01*
X42944822Y-93700400D02*
X43068631Y-93762304D01*
X43068631Y-93762304D02*
X43316250Y-93762304D01*
X43316250Y-93762304D02*
X43440060Y-93700400D01*
X43440060Y-93700400D02*
X43501965Y-93638495D01*
X43501965Y-93638495D02*
X43563869Y-93514685D01*
X43563869Y-93514685D02*
X43563869Y-93143257D01*
X43563869Y-93143257D02*
X43501965Y-93019447D01*
X43501965Y-93019447D02*
X43440060Y-92957542D01*
X43440060Y-92957542D02*
X43316250Y-92895638D01*
X43316250Y-92895638D02*
X43068631Y-92895638D01*
X43068631Y-92895638D02*
X42944822Y-92957542D01*
X41830536Y-92895638D02*
X41830536Y-93762304D01*
X42387679Y-92895638D02*
X42387679Y-93576590D01*
X42387679Y-93576590D02*
X42325774Y-93700400D01*
X42325774Y-93700400D02*
X42201964Y-93762304D01*
X42201964Y-93762304D02*
X42016250Y-93762304D01*
X42016250Y-93762304D02*
X41892441Y-93700400D01*
X41892441Y-93700400D02*
X41830536Y-93638495D01*
X41211489Y-93762304D02*
X41211489Y-92462304D01*
X41211489Y-92957542D02*
X41087679Y-92895638D01*
X41087679Y-92895638D02*
X40840060Y-92895638D01*
X40840060Y-92895638D02*
X40716251Y-92957542D01*
X40716251Y-92957542D02*
X40654346Y-93019447D01*
X40654346Y-93019447D02*
X40592441Y-93143257D01*
X40592441Y-93143257D02*
X40592441Y-93514685D01*
X40592441Y-93514685D02*
X40654346Y-93638495D01*
X40654346Y-93638495D02*
X40716251Y-93700400D01*
X40716251Y-93700400D02*
X40840060Y-93762304D01*
X40840060Y-93762304D02*
X41087679Y-93762304D01*
X41087679Y-93762304D02*
X41211489Y-93700400D01*
X39540061Y-93700400D02*
X39663870Y-93762304D01*
X39663870Y-93762304D02*
X39911489Y-93762304D01*
X39911489Y-93762304D02*
X40035299Y-93700400D01*
X40035299Y-93700400D02*
X40097203Y-93576590D01*
X40097203Y-93576590D02*
X40097203Y-93081352D01*
X40097203Y-93081352D02*
X40035299Y-92957542D01*
X40035299Y-92957542D02*
X39911489Y-92895638D01*
X39911489Y-92895638D02*
X39663870Y-92895638D01*
X39663870Y-92895638D02*
X39540061Y-92957542D01*
X39540061Y-92957542D02*
X39478156Y-93081352D01*
X39478156Y-93081352D02*
X39478156Y-93205161D01*
X39478156Y-93205161D02*
X40097203Y-93328971D01*
X38735298Y-93762304D02*
X38859108Y-93700400D01*
X38859108Y-93700400D02*
X38921013Y-93576590D01*
X38921013Y-93576590D02*
X38921013Y-92462304D01*
X38240061Y-93762304D02*
X38240061Y-92895638D01*
X38240061Y-92462304D02*
X38301965Y-92524209D01*
X38301965Y-92524209D02*
X38240061Y-92586114D01*
X38240061Y-92586114D02*
X38178156Y-92524209D01*
X38178156Y-92524209D02*
X38240061Y-92462304D01*
X38240061Y-92462304D02*
X38240061Y-92586114D01*
X37682917Y-92586114D02*
X37621013Y-92524209D01*
X37621013Y-92524209D02*
X37497203Y-92462304D01*
X37497203Y-92462304D02*
X37187679Y-92462304D01*
X37187679Y-92462304D02*
X37063870Y-92524209D01*
X37063870Y-92524209D02*
X37001965Y-92586114D01*
X37001965Y-92586114D02*
X36940060Y-92709923D01*
X36940060Y-92709923D02*
X36940060Y-92833733D01*
X36940060Y-92833733D02*
X37001965Y-93019447D01*
X37001965Y-93019447D02*
X37744822Y-93762304D01*
X37744822Y-93762304D02*
X36940060Y-93762304D01*
X36506727Y-92462304D02*
X35640061Y-92462304D01*
X35640061Y-92462304D02*
X36197203Y-93762304D01*
D12*
X80733135Y-130474395D02*
X81133135Y-130474395D01*
X80933135Y-130474395D02*
X80933135Y-129674395D01*
X80933135Y-129674395D02*
X80999802Y-129788680D01*
X80999802Y-129788680D02*
X81066469Y-129864871D01*
X81066469Y-129864871D02*
X81133135Y-129902966D01*
X80066468Y-130474395D02*
X80466468Y-130474395D01*
X80266468Y-130474395D02*
X80266468Y-129674395D01*
X80266468Y-129674395D02*
X80333135Y-129788680D01*
X80333135Y-129788680D02*
X80399802Y-129864871D01*
X80399802Y-129864871D02*
X80466468Y-129902966D01*
X79266468Y-129636300D02*
X79866468Y-130664871D01*
X79066468Y-129750585D02*
X79033135Y-129712490D01*
X79033135Y-129712490D02*
X78966468Y-129674395D01*
X78966468Y-129674395D02*
X78799802Y-129674395D01*
X78799802Y-129674395D02*
X78733135Y-129712490D01*
X78733135Y-129712490D02*
X78699802Y-129750585D01*
X78699802Y-129750585D02*
X78666468Y-129826776D01*
X78666468Y-129826776D02*
X78666468Y-129902966D01*
X78666468Y-129902966D02*
X78699802Y-130017252D01*
X78699802Y-130017252D02*
X79099802Y-130474395D01*
X79099802Y-130474395D02*
X78666468Y-130474395D01*
X78233135Y-129674395D02*
X78166468Y-129674395D01*
X78166468Y-129674395D02*
X78099801Y-129712490D01*
X78099801Y-129712490D02*
X78066468Y-129750585D01*
X78066468Y-129750585D02*
X78033135Y-129826776D01*
X78033135Y-129826776D02*
X77999801Y-129979157D01*
X77999801Y-129979157D02*
X77999801Y-130169633D01*
X77999801Y-130169633D02*
X78033135Y-130322014D01*
X78033135Y-130322014D02*
X78066468Y-130398204D01*
X78066468Y-130398204D02*
X78099801Y-130436300D01*
X78099801Y-130436300D02*
X78166468Y-130474395D01*
X78166468Y-130474395D02*
X78233135Y-130474395D01*
X78233135Y-130474395D02*
X78299801Y-130436300D01*
X78299801Y-130436300D02*
X78333135Y-130398204D01*
X78333135Y-130398204D02*
X78366468Y-130322014D01*
X78366468Y-130322014D02*
X78399801Y-130169633D01*
X78399801Y-130169633D02*
X78399801Y-129979157D01*
X78399801Y-129979157D02*
X78366468Y-129826776D01*
X78366468Y-129826776D02*
X78333135Y-129750585D01*
X78333135Y-129750585D02*
X78299801Y-129712490D01*
X78299801Y-129712490D02*
X78233135Y-129674395D01*
X77733134Y-129750585D02*
X77699801Y-129712490D01*
X77699801Y-129712490D02*
X77633134Y-129674395D01*
X77633134Y-129674395D02*
X77466468Y-129674395D01*
X77466468Y-129674395D02*
X77399801Y-129712490D01*
X77399801Y-129712490D02*
X77366468Y-129750585D01*
X77366468Y-129750585D02*
X77333134Y-129826776D01*
X77333134Y-129826776D02*
X77333134Y-129902966D01*
X77333134Y-129902966D02*
X77366468Y-130017252D01*
X77366468Y-130017252D02*
X77766468Y-130474395D01*
X77766468Y-130474395D02*
X77333134Y-130474395D01*
X77099801Y-129674395D02*
X76666467Y-129674395D01*
X76666467Y-129674395D02*
X76899801Y-129979157D01*
X76899801Y-129979157D02*
X76799801Y-129979157D01*
X76799801Y-129979157D02*
X76733134Y-130017252D01*
X76733134Y-130017252D02*
X76699801Y-130055347D01*
X76699801Y-130055347D02*
X76666467Y-130131538D01*
X76666467Y-130131538D02*
X76666467Y-130322014D01*
X76666467Y-130322014D02*
X76699801Y-130398204D01*
X76699801Y-130398204D02*
X76733134Y-130436300D01*
X76733134Y-130436300D02*
X76799801Y-130474395D01*
X76799801Y-130474395D02*
X76999801Y-130474395D01*
X76999801Y-130474395D02*
X77066467Y-130436300D01*
X77066467Y-130436300D02*
X77099801Y-130398204D01*
%TO.C,REF\u002A\u002A*%
D13*
X62174171Y-124455222D02*
X58653378Y-124455222D01*
X58653378Y-123587598D01*
X62174171Y-123587598D01*
X62174171Y-124455222D01*
G36*
X62174171Y-124455222D02*
G01*
X58653378Y-124455222D01*
X58653378Y-123587598D01*
X62174171Y-123587598D01*
X62174171Y-124455222D01*
G37*
X61143094Y-118913118D02*
X61143588Y-118926068D01*
X61150019Y-118947811D01*
X61168323Y-118966251D01*
X61204030Y-118988201D01*
X61235374Y-119008254D01*
X61283093Y-119046756D01*
X61326338Y-119089979D01*
X61359419Y-119132027D01*
X61376642Y-119167004D01*
X61380862Y-119180481D01*
X61388680Y-119189734D01*
X61391316Y-119192854D01*
X61412862Y-119198096D01*
X61452514Y-119199182D01*
X61520309Y-119199182D01*
X61520309Y-119312351D01*
X61360777Y-119312351D01*
X61345882Y-119490132D01*
X61343882Y-119514437D01*
X61339223Y-119575280D01*
X61335931Y-119624789D01*
X61334292Y-119658392D01*
X61334590Y-119671516D01*
X61338924Y-119667743D01*
X61358696Y-119648076D01*
X61392879Y-119613218D01*
X61439741Y-119564976D01*
X61497554Y-119505157D01*
X61564587Y-119435567D01*
X61639112Y-119358015D01*
X61719397Y-119274307D01*
X61803713Y-119186249D01*
X61890330Y-119095650D01*
X61977519Y-119004315D01*
X62063549Y-118914053D01*
X62146692Y-118826669D01*
X62225216Y-118743972D01*
X62297392Y-118667768D01*
X62361491Y-118599863D01*
X62415783Y-118542066D01*
X62512792Y-118438440D01*
X62513234Y-118526715D01*
X62513675Y-118614989D01*
X61913138Y-119246558D01*
X61312601Y-119878126D01*
X61300596Y-120022074D01*
X61252565Y-120598035D01*
X61244076Y-120700191D01*
X61233543Y-120828012D01*
X61223821Y-120947167D01*
X61215098Y-121055314D01*
X61207558Y-121150113D01*
X61201387Y-121229219D01*
X61196773Y-121290292D01*
X61193900Y-121330990D01*
X61192954Y-121348970D01*
X61195451Y-121357208D01*
X61206671Y-121374999D01*
X61227951Y-121401811D01*
X61238221Y-121413529D01*
X61260425Y-121438866D01*
X61305223Y-121487386D01*
X61363481Y-121548592D01*
X61436329Y-121623707D01*
X61524903Y-121713950D01*
X61630334Y-121820545D01*
X61699692Y-121890493D01*
X61796379Y-121988058D01*
X61892726Y-122085341D01*
X61985838Y-122179414D01*
X62072818Y-122267350D01*
X62150769Y-122346220D01*
X62216796Y-122413099D01*
X62268002Y-122465058D01*
X62468714Y-122669020D01*
X62432258Y-122707071D01*
X62423660Y-122715645D01*
X62398295Y-122736697D01*
X62380895Y-122745123D01*
X62367271Y-122737930D01*
X62341943Y-122716344D01*
X62311579Y-122685395D01*
X62293096Y-122665848D01*
X62258627Y-122630152D01*
X62209912Y-122580084D01*
X62148669Y-122517401D01*
X62076620Y-122443857D01*
X61995485Y-122361210D01*
X61906984Y-122271215D01*
X61812837Y-122175628D01*
X61714765Y-122076205D01*
X61172361Y-121526743D01*
X61150266Y-121812146D01*
X61145450Y-121873062D01*
X61138416Y-121954948D01*
X61132072Y-122016969D01*
X61125948Y-122062387D01*
X61119573Y-122094462D01*
X61112477Y-122116452D01*
X61104191Y-122131619D01*
X61092593Y-122152816D01*
X61083050Y-122191786D01*
X61080210Y-122247931D01*
X61080210Y-122330173D01*
X60853874Y-122330173D01*
X60853874Y-122154133D01*
X60008282Y-122154133D01*
X59959403Y-122209662D01*
X59946036Y-122224122D01*
X59873588Y-122282213D01*
X59791732Y-122317976D01*
X59703100Y-122330173D01*
X59624892Y-122323706D01*
X59536433Y-122296447D01*
X59460707Y-122247728D01*
X59445948Y-122233803D01*
X59409064Y-122188728D01*
X59376703Y-122136219D01*
X59353497Y-122084461D01*
X59344079Y-122041639D01*
X59343897Y-122035423D01*
X59342542Y-122012646D01*
X59339000Y-121996913D01*
X59331590Y-121989468D01*
X59318631Y-121991556D01*
X59298443Y-122004420D01*
X59269345Y-122029305D01*
X59229656Y-122067453D01*
X59177696Y-122120110D01*
X59111784Y-122188519D01*
X59030240Y-122273924D01*
X58986804Y-122319512D01*
X58914200Y-122395841D01*
X58845509Y-122468208D01*
X58783423Y-122533766D01*
X58730634Y-122589674D01*
X58689834Y-122633086D01*
X58663715Y-122661158D01*
X58592319Y-122738836D01*
X58504063Y-122650816D01*
X59049890Y-122078687D01*
X59084305Y-122042588D01*
X59206746Y-121913672D01*
X59311851Y-121802154D01*
X59399936Y-121707688D01*
X59471316Y-121629929D01*
X59521788Y-121573574D01*
X59728447Y-121573574D01*
X59730072Y-121586834D01*
X59730356Y-121588219D01*
X59743898Y-121619628D01*
X59770948Y-121634263D01*
X59854329Y-121665463D01*
X59928618Y-121717438D01*
X59987046Y-121786191D01*
X60027090Y-121868715D01*
X60046226Y-121962006D01*
X60052564Y-122040965D01*
X61002038Y-122040965D01*
X61008658Y-122012673D01*
X61009829Y-122005729D01*
X61013468Y-121974681D01*
X61018434Y-121924481D01*
X61024357Y-121859127D01*
X61030869Y-121782619D01*
X61037601Y-121698955D01*
X61059924Y-121413529D01*
X60759026Y-121107965D01*
X60703836Y-121052104D01*
X60636309Y-120984288D01*
X60575729Y-120924043D01*
X60524221Y-120873452D01*
X60483910Y-120834600D01*
X60456922Y-120809570D01*
X60445382Y-120800446D01*
X60437644Y-120804805D01*
X60414595Y-120824641D01*
X60379909Y-120857775D01*
X60336687Y-120901220D01*
X60288032Y-120951987D01*
X60275340Y-120965451D01*
X60218429Y-121025675D01*
X60150614Y-121097264D01*
X60077000Y-121174837D01*
X60002693Y-121253011D01*
X59932799Y-121326405D01*
X59928601Y-121330809D01*
X59863620Y-121399185D01*
X59814036Y-121452132D01*
X59777888Y-121492167D01*
X59753216Y-121521811D01*
X59738058Y-121543581D01*
X59730456Y-121559995D01*
X59728447Y-121573574D01*
X59521788Y-121573574D01*
X59526305Y-121568531D01*
X59565219Y-121523148D01*
X59588373Y-121493435D01*
X59596082Y-121479044D01*
X59596083Y-121478959D01*
X59595025Y-121461024D01*
X59591937Y-121420821D01*
X59587058Y-121361087D01*
X59580632Y-121284558D01*
X59572900Y-121193969D01*
X59564105Y-121092057D01*
X59554487Y-120981559D01*
X59544291Y-120865211D01*
X59533756Y-120745748D01*
X59523126Y-120625907D01*
X59512642Y-120508425D01*
X59502546Y-120396037D01*
X59493081Y-120291481D01*
X59484488Y-120197491D01*
X59477009Y-120116805D01*
X59470887Y-120052159D01*
X59466362Y-120006288D01*
X59463678Y-119981930D01*
X59458267Y-119941132D01*
X59587453Y-119941132D01*
X59589108Y-119972053D01*
X59592749Y-120024053D01*
X59598195Y-120094887D01*
X59605263Y-120182311D01*
X59613770Y-120284081D01*
X59623535Y-120397952D01*
X59634374Y-120521679D01*
X59646107Y-120653018D01*
X59655279Y-120754308D01*
X59666766Y-120879926D01*
X59677522Y-120996162D01*
X59687331Y-121100780D01*
X59695981Y-121191540D01*
X59703257Y-121266204D01*
X59708946Y-121322534D01*
X59712834Y-121358291D01*
X59714706Y-121371237D01*
X59720388Y-121367226D01*
X59741220Y-121347538D01*
X59775072Y-121313722D01*
X59819612Y-121268237D01*
X59872510Y-121213546D01*
X59931436Y-121152110D01*
X59994058Y-121086390D01*
X60058048Y-121018849D01*
X60121074Y-120951947D01*
X60180806Y-120888146D01*
X60234913Y-120829907D01*
X60281065Y-120779692D01*
X60316933Y-120739963D01*
X60340184Y-120713180D01*
X60346978Y-120703877D01*
X60528801Y-120703877D01*
X60804505Y-120979368D01*
X60871926Y-121046624D01*
X60935467Y-121109562D01*
X60984690Y-121157500D01*
X61021396Y-121191994D01*
X61047390Y-121214599D01*
X61064476Y-121226871D01*
X61074456Y-121230366D01*
X61079135Y-121226638D01*
X61080316Y-121217244D01*
X61081073Y-121202149D01*
X61083801Y-121163283D01*
X61088308Y-121104295D01*
X61094379Y-121027873D01*
X61101796Y-120936705D01*
X61110342Y-120833480D01*
X61119802Y-120720883D01*
X61129958Y-120601605D01*
X61138923Y-120496477D01*
X61148266Y-120385751D01*
X61156643Y-120285214D01*
X61163853Y-120197343D01*
X61169696Y-120124615D01*
X61173969Y-120069510D01*
X61176473Y-120034504D01*
X61177005Y-120022074D01*
X61176584Y-120022308D01*
X61164709Y-120033750D01*
X61138330Y-120060598D01*
X61099770Y-120100418D01*
X61051353Y-120150772D01*
X60995403Y-120209228D01*
X60934242Y-120273348D01*
X60870195Y-120340698D01*
X60805585Y-120408843D01*
X60742735Y-120475348D01*
X60683968Y-120537777D01*
X60631609Y-120593695D01*
X60530733Y-120701806D01*
X60528801Y-120703877D01*
X60346978Y-120703877D01*
X60348490Y-120701806D01*
X60340348Y-120690783D01*
X60316678Y-120664399D01*
X60279678Y-120624927D01*
X60231550Y-120574591D01*
X60174496Y-120515617D01*
X60110720Y-120450230D01*
X60042422Y-120380655D01*
X59971805Y-120309116D01*
X59901071Y-120237838D01*
X59832422Y-120169047D01*
X59768061Y-120104966D01*
X59710189Y-120047822D01*
X59661010Y-119999839D01*
X59622724Y-119963241D01*
X59597534Y-119940254D01*
X59587642Y-119933103D01*
X59587453Y-119941132D01*
X59458267Y-119941132D01*
X59456590Y-119928489D01*
X59181497Y-119928489D01*
X59181340Y-119827895D01*
X59282091Y-119827895D01*
X59363824Y-119827895D01*
X59371095Y-119827889D01*
X59412150Y-119827013D01*
X59434477Y-119823267D01*
X59443729Y-119814670D01*
X59445557Y-119799240D01*
X59437506Y-119776559D01*
X59409930Y-119738828D01*
X59363824Y-119689579D01*
X59282091Y-119608572D01*
X59282091Y-119827895D01*
X59181340Y-119827895D01*
X59181168Y-119717871D01*
X59180839Y-119507252D01*
X58729114Y-119048291D01*
X58277389Y-118589331D01*
X58276770Y-118502248D01*
X58276151Y-118415167D01*
X58817969Y-118964352D01*
X58870337Y-119017398D01*
X58979003Y-119127172D01*
X59071909Y-119220514D01*
X59150255Y-119298573D01*
X59215243Y-119362497D01*
X59268072Y-119413435D01*
X59309943Y-119452535D01*
X59342055Y-119480948D01*
X59365610Y-119499820D01*
X59381808Y-119510301D01*
X59391849Y-119513539D01*
X59408779Y-119512558D01*
X59418284Y-119505396D01*
X59419923Y-119485801D01*
X59415982Y-119447524D01*
X59413265Y-119423425D01*
X59409484Y-119383144D01*
X59407960Y-119356361D01*
X59407215Y-119347128D01*
X59399946Y-119337239D01*
X59379868Y-119333962D01*
X59340889Y-119335392D01*
X59330937Y-119335953D01*
X59291098Y-119335321D01*
X59262760Y-119326567D01*
X59242786Y-119312351D01*
X59526052Y-119312351D01*
X59530213Y-119359504D01*
X59532135Y-119380898D01*
X59538124Y-119439309D01*
X59544026Y-119477781D01*
X59550927Y-119500312D01*
X59559912Y-119510898D01*
X59572070Y-119513539D01*
X59583001Y-119515337D01*
X59590250Y-119523930D01*
X59594300Y-119543905D01*
X59596063Y-119579850D01*
X59596448Y-119636352D01*
X59596448Y-119759166D01*
X59636647Y-119799240D01*
X59734765Y-119897054D01*
X59873081Y-120034942D01*
X59873081Y-119928489D01*
X60627537Y-119928489D01*
X60627537Y-120167400D01*
X60009031Y-120167400D01*
X60218792Y-120384306D01*
X60258970Y-120425734D01*
X60314528Y-120482600D01*
X60362770Y-120531482D01*
X60401171Y-120569841D01*
X60427203Y-120595141D01*
X60438340Y-120604842D01*
X60442573Y-120602167D01*
X60462424Y-120584182D01*
X60496651Y-120550881D01*
X60543427Y-120504112D01*
X60600924Y-120445725D01*
X60667312Y-120377569D01*
X60740764Y-120301494D01*
X60819451Y-120219350D01*
X60898541Y-120136343D01*
X60976071Y-120054536D01*
X61038946Y-119987483D01*
X61088702Y-119933407D01*
X61126878Y-119890529D01*
X61155011Y-119857073D01*
X61174640Y-119831261D01*
X61187301Y-119811314D01*
X61194534Y-119795456D01*
X61197875Y-119781909D01*
X61198761Y-119775310D01*
X61202688Y-119738948D01*
X61207659Y-119685418D01*
X61213127Y-119620821D01*
X61218544Y-119551262D01*
X61220381Y-119527035D01*
X61225688Y-119461578D01*
X61230748Y-119405117D01*
X61235063Y-119363018D01*
X61238134Y-119340643D01*
X61244155Y-119312351D01*
X59526052Y-119312351D01*
X59242786Y-119312351D01*
X59234830Y-119306689D01*
X59230020Y-119302504D01*
X59190682Y-119251827D01*
X59175103Y-119199182D01*
X59515898Y-119199182D01*
X60930421Y-119199182D01*
X61143081Y-119199182D01*
X61200108Y-119199182D01*
X61217193Y-119199062D01*
X61242508Y-119196862D01*
X61249816Y-119189734D01*
X61244143Y-119174908D01*
X61242467Y-119172082D01*
X61223648Y-119150344D01*
X61196383Y-119126220D01*
X61169187Y-119106654D01*
X61150571Y-119098588D01*
X61148897Y-119099863D01*
X61144744Y-119117376D01*
X61143081Y-119148885D01*
X61143081Y-119199182D01*
X60930421Y-119199182D01*
X60926726Y-119108495D01*
X60923032Y-119017807D01*
X60847586Y-119002652D01*
X60809751Y-118995779D01*
X60746568Y-118986156D01*
X60687265Y-118978896D01*
X60602388Y-118970293D01*
X60602388Y-119073440D01*
X60023973Y-119073440D01*
X60023973Y-118982522D01*
X59951671Y-118991153D01*
X59841198Y-119009649D01*
X59730016Y-119043091D01*
X59638050Y-119089724D01*
X59563742Y-119150186D01*
X59515898Y-119199182D01*
X59175103Y-119199182D01*
X59173372Y-119193334D01*
X59178674Y-119131975D01*
X59207175Y-119072697D01*
X59209933Y-119069006D01*
X59248022Y-119037251D01*
X59297676Y-119018467D01*
X59351202Y-119013471D01*
X59400907Y-119023078D01*
X59439100Y-119048104D01*
X59452031Y-119060880D01*
X59464628Y-119063976D01*
X59482667Y-119054398D01*
X59513128Y-119030482D01*
X59522474Y-119023131D01*
X59594630Y-118976739D01*
X59602697Y-118972846D01*
X60124567Y-118972846D01*
X60501794Y-118972846D01*
X60501794Y-118909975D01*
X60124567Y-118909975D01*
X60124567Y-118972846D01*
X59602697Y-118972846D01*
X59680115Y-118935484D01*
X59770967Y-118902336D01*
X59859227Y-118880268D01*
X59936936Y-118872252D01*
X59945191Y-118872188D01*
X59991079Y-118867721D01*
X60016279Y-118855195D01*
X60023973Y-118833184D01*
X60024876Y-118826249D01*
X60029815Y-118820285D01*
X60041811Y-118815919D01*
X60063880Y-118812903D01*
X60099036Y-118810990D01*
X60150294Y-118809930D01*
X60220671Y-118809477D01*
X60313180Y-118809380D01*
X60399860Y-118809550D01*
X60473532Y-118810234D01*
X60527465Y-118811615D01*
X60564488Y-118813870D01*
X60587430Y-118817178D01*
X60599120Y-118821720D01*
X60602388Y-118827672D01*
X60613137Y-118842288D01*
X60643255Y-118851615D01*
X60654782Y-118853247D01*
X60694086Y-118858991D01*
X60746388Y-118866778D01*
X60803576Y-118875403D01*
X60835116Y-118879793D01*
X60881274Y-118884548D01*
X60913841Y-118885695D01*
X60927223Y-118882895D01*
X60929508Y-118881071D01*
X60950605Y-118876565D01*
X60988555Y-118873429D01*
X61037248Y-118872252D01*
X61143081Y-118872252D01*
X61143094Y-118909975D01*
X61143094Y-118913118D01*
G36*
X61143094Y-118913118D02*
G01*
X61143588Y-118926068D01*
X61150019Y-118947811D01*
X61168323Y-118966251D01*
X61204030Y-118988201D01*
X61235374Y-119008254D01*
X61283093Y-119046756D01*
X61326338Y-119089979D01*
X61359419Y-119132027D01*
X61376642Y-119167004D01*
X61380862Y-119180481D01*
X61388680Y-119189734D01*
X61391316Y-119192854D01*
X61412862Y-119198096D01*
X61452514Y-119199182D01*
X61520309Y-119199182D01*
X61520309Y-119312351D01*
X61360777Y-119312351D01*
X61345882Y-119490132D01*
X61343882Y-119514437D01*
X61339223Y-119575280D01*
X61335931Y-119624789D01*
X61334292Y-119658392D01*
X61334590Y-119671516D01*
X61338924Y-119667743D01*
X61358696Y-119648076D01*
X61392879Y-119613218D01*
X61439741Y-119564976D01*
X61497554Y-119505157D01*
X61564587Y-119435567D01*
X61639112Y-119358015D01*
X61719397Y-119274307D01*
X61803713Y-119186249D01*
X61890330Y-119095650D01*
X61977519Y-119004315D01*
X62063549Y-118914053D01*
X62146692Y-118826669D01*
X62225216Y-118743972D01*
X62297392Y-118667768D01*
X62361491Y-118599863D01*
X62415783Y-118542066D01*
X62512792Y-118438440D01*
X62513234Y-118526715D01*
X62513675Y-118614989D01*
X61913138Y-119246558D01*
X61312601Y-119878126D01*
X61300596Y-120022074D01*
X61252565Y-120598035D01*
X61244076Y-120700191D01*
X61233543Y-120828012D01*
X61223821Y-120947167D01*
X61215098Y-121055314D01*
X61207558Y-121150113D01*
X61201387Y-121229219D01*
X61196773Y-121290292D01*
X61193900Y-121330990D01*
X61192954Y-121348970D01*
X61195451Y-121357208D01*
X61206671Y-121374999D01*
X61227951Y-121401811D01*
X61238221Y-121413529D01*
X61260425Y-121438866D01*
X61305223Y-121487386D01*
X61363481Y-121548592D01*
X61436329Y-121623707D01*
X61524903Y-121713950D01*
X61630334Y-121820545D01*
X61699692Y-121890493D01*
X61796379Y-121988058D01*
X61892726Y-122085341D01*
X61985838Y-122179414D01*
X62072818Y-122267350D01*
X62150769Y-122346220D01*
X62216796Y-122413099D01*
X62268002Y-122465058D01*
X62468714Y-122669020D01*
X62432258Y-122707071D01*
X62423660Y-122715645D01*
X62398295Y-122736697D01*
X62380895Y-122745123D01*
X62367271Y-122737930D01*
X62341943Y-122716344D01*
X62311579Y-122685395D01*
X62293096Y-122665848D01*
X62258627Y-122630152D01*
X62209912Y-122580084D01*
X62148669Y-122517401D01*
X62076620Y-122443857D01*
X61995485Y-122361210D01*
X61906984Y-122271215D01*
X61812837Y-122175628D01*
X61714765Y-122076205D01*
X61172361Y-121526743D01*
X61150266Y-121812146D01*
X61145450Y-121873062D01*
X61138416Y-121954948D01*
X61132072Y-122016969D01*
X61125948Y-122062387D01*
X61119573Y-122094462D01*
X61112477Y-122116452D01*
X61104191Y-122131619D01*
X61092593Y-122152816D01*
X61083050Y-122191786D01*
X61080210Y-122247931D01*
X61080210Y-122330173D01*
X60853874Y-122330173D01*
X60853874Y-122154133D01*
X60008282Y-122154133D01*
X59959403Y-122209662D01*
X59946036Y-122224122D01*
X59873588Y-122282213D01*
X59791732Y-122317976D01*
X59703100Y-122330173D01*
X59624892Y-122323706D01*
X59536433Y-122296447D01*
X59460707Y-122247728D01*
X59445948Y-122233803D01*
X59409064Y-122188728D01*
X59376703Y-122136219D01*
X59353497Y-122084461D01*
X59344079Y-122041639D01*
X59343897Y-122035423D01*
X59342542Y-122012646D01*
X59339000Y-121996913D01*
X59331590Y-121989468D01*
X59318631Y-121991556D01*
X59298443Y-122004420D01*
X59269345Y-122029305D01*
X59229656Y-122067453D01*
X59177696Y-122120110D01*
X59111784Y-122188519D01*
X59030240Y-122273924D01*
X58986804Y-122319512D01*
X58914200Y-122395841D01*
X58845509Y-122468208D01*
X58783423Y-122533766D01*
X58730634Y-122589674D01*
X58689834Y-122633086D01*
X58663715Y-122661158D01*
X58592319Y-122738836D01*
X58504063Y-122650816D01*
X59049890Y-122078687D01*
X59084305Y-122042588D01*
X59206746Y-121913672D01*
X59311851Y-121802154D01*
X59399936Y-121707688D01*
X59471316Y-121629929D01*
X59521788Y-121573574D01*
X59728447Y-121573574D01*
X59730072Y-121586834D01*
X59730356Y-121588219D01*
X59743898Y-121619628D01*
X59770948Y-121634263D01*
X59854329Y-121665463D01*
X59928618Y-121717438D01*
X59987046Y-121786191D01*
X60027090Y-121868715D01*
X60046226Y-121962006D01*
X60052564Y-122040965D01*
X61002038Y-122040965D01*
X61008658Y-122012673D01*
X61009829Y-122005729D01*
X61013468Y-121974681D01*
X61018434Y-121924481D01*
X61024357Y-121859127D01*
X61030869Y-121782619D01*
X61037601Y-121698955D01*
X61059924Y-121413529D01*
X60759026Y-121107965D01*
X60703836Y-121052104D01*
X60636309Y-120984288D01*
X60575729Y-120924043D01*
X60524221Y-120873452D01*
X60483910Y-120834600D01*
X60456922Y-120809570D01*
X60445382Y-120800446D01*
X60437644Y-120804805D01*
X60414595Y-120824641D01*
X60379909Y-120857775D01*
X60336687Y-120901220D01*
X60288032Y-120951987D01*
X60275340Y-120965451D01*
X60218429Y-121025675D01*
X60150614Y-121097264D01*
X60077000Y-121174837D01*
X60002693Y-121253011D01*
X59932799Y-121326405D01*
X59928601Y-121330809D01*
X59863620Y-121399185D01*
X59814036Y-121452132D01*
X59777888Y-121492167D01*
X59753216Y-121521811D01*
X59738058Y-121543581D01*
X59730456Y-121559995D01*
X59728447Y-121573574D01*
X59521788Y-121573574D01*
X59526305Y-121568531D01*
X59565219Y-121523148D01*
X59588373Y-121493435D01*
X59596082Y-121479044D01*
X59596083Y-121478959D01*
X59595025Y-121461024D01*
X59591937Y-121420821D01*
X59587058Y-121361087D01*
X59580632Y-121284558D01*
X59572900Y-121193969D01*
X59564105Y-121092057D01*
X59554487Y-120981559D01*
X59544291Y-120865211D01*
X59533756Y-120745748D01*
X59523126Y-120625907D01*
X59512642Y-120508425D01*
X59502546Y-120396037D01*
X59493081Y-120291481D01*
X59484488Y-120197491D01*
X59477009Y-120116805D01*
X59470887Y-120052159D01*
X59466362Y-120006288D01*
X59463678Y-119981930D01*
X59458267Y-119941132D01*
X59587453Y-119941132D01*
X59589108Y-119972053D01*
X59592749Y-120024053D01*
X59598195Y-120094887D01*
X59605263Y-120182311D01*
X59613770Y-120284081D01*
X59623535Y-120397952D01*
X59634374Y-120521679D01*
X59646107Y-120653018D01*
X59655279Y-120754308D01*
X59666766Y-120879926D01*
X59677522Y-120996162D01*
X59687331Y-121100780D01*
X59695981Y-121191540D01*
X59703257Y-121266204D01*
X59708946Y-121322534D01*
X59712834Y-121358291D01*
X59714706Y-121371237D01*
X59720388Y-121367226D01*
X59741220Y-121347538D01*
X59775072Y-121313722D01*
X59819612Y-121268237D01*
X59872510Y-121213546D01*
X59931436Y-121152110D01*
X59994058Y-121086390D01*
X60058048Y-121018849D01*
X60121074Y-120951947D01*
X60180806Y-120888146D01*
X60234913Y-120829907D01*
X60281065Y-120779692D01*
X60316933Y-120739963D01*
X60340184Y-120713180D01*
X60346978Y-120703877D01*
X60528801Y-120703877D01*
X60804505Y-120979368D01*
X60871926Y-121046624D01*
X60935467Y-121109562D01*
X60984690Y-121157500D01*
X61021396Y-121191994D01*
X61047390Y-121214599D01*
X61064476Y-121226871D01*
X61074456Y-121230366D01*
X61079135Y-121226638D01*
X61080316Y-121217244D01*
X61081073Y-121202149D01*
X61083801Y-121163283D01*
X61088308Y-121104295D01*
X61094379Y-121027873D01*
X61101796Y-120936705D01*
X61110342Y-120833480D01*
X61119802Y-120720883D01*
X61129958Y-120601605D01*
X61138923Y-120496477D01*
X61148266Y-120385751D01*
X61156643Y-120285214D01*
X61163853Y-120197343D01*
X61169696Y-120124615D01*
X61173969Y-120069510D01*
X61176473Y-120034504D01*
X61177005Y-120022074D01*
X61176584Y-120022308D01*
X61164709Y-120033750D01*
X61138330Y-120060598D01*
X61099770Y-120100418D01*
X61051353Y-120150772D01*
X60995403Y-120209228D01*
X60934242Y-120273348D01*
X60870195Y-120340698D01*
X60805585Y-120408843D01*
X60742735Y-120475348D01*
X60683968Y-120537777D01*
X60631609Y-120593695D01*
X60530733Y-120701806D01*
X60528801Y-120703877D01*
X60346978Y-120703877D01*
X60348490Y-120701806D01*
X60340348Y-120690783D01*
X60316678Y-120664399D01*
X60279678Y-120624927D01*
X60231550Y-120574591D01*
X60174496Y-120515617D01*
X60110720Y-120450230D01*
X60042422Y-120380655D01*
X59971805Y-120309116D01*
X59901071Y-120237838D01*
X59832422Y-120169047D01*
X59768061Y-120104966D01*
X59710189Y-120047822D01*
X59661010Y-119999839D01*
X59622724Y-119963241D01*
X59597534Y-119940254D01*
X59587642Y-119933103D01*
X59587453Y-119941132D01*
X59458267Y-119941132D01*
X59456590Y-119928489D01*
X59181497Y-119928489D01*
X59181340Y-119827895D01*
X59282091Y-119827895D01*
X59363824Y-119827895D01*
X59371095Y-119827889D01*
X59412150Y-119827013D01*
X59434477Y-119823267D01*
X59443729Y-119814670D01*
X59445557Y-119799240D01*
X59437506Y-119776559D01*
X59409930Y-119738828D01*
X59363824Y-119689579D01*
X59282091Y-119608572D01*
X59282091Y-119827895D01*
X59181340Y-119827895D01*
X59181168Y-119717871D01*
X59180839Y-119507252D01*
X58729114Y-119048291D01*
X58277389Y-118589331D01*
X58276770Y-118502248D01*
X58276151Y-118415167D01*
X58817969Y-118964352D01*
X58870337Y-119017398D01*
X58979003Y-119127172D01*
X59071909Y-119220514D01*
X59150255Y-119298573D01*
X59215243Y-119362497D01*
X59268072Y-119413435D01*
X59309943Y-119452535D01*
X59342055Y-119480948D01*
X59365610Y-119499820D01*
X59381808Y-119510301D01*
X59391849Y-119513539D01*
X59408779Y-119512558D01*
X59418284Y-119505396D01*
X59419923Y-119485801D01*
X59415982Y-119447524D01*
X59413265Y-119423425D01*
X59409484Y-119383144D01*
X59407960Y-119356361D01*
X59407215Y-119347128D01*
X59399946Y-119337239D01*
X59379868Y-119333962D01*
X59340889Y-119335392D01*
X59330937Y-119335953D01*
X59291098Y-119335321D01*
X59262760Y-119326567D01*
X59242786Y-119312351D01*
X59526052Y-119312351D01*
X59530213Y-119359504D01*
X59532135Y-119380898D01*
X59538124Y-119439309D01*
X59544026Y-119477781D01*
X59550927Y-119500312D01*
X59559912Y-119510898D01*
X59572070Y-119513539D01*
X59583001Y-119515337D01*
X59590250Y-119523930D01*
X59594300Y-119543905D01*
X59596063Y-119579850D01*
X59596448Y-119636352D01*
X59596448Y-119759166D01*
X59636647Y-119799240D01*
X59734765Y-119897054D01*
X59873081Y-120034942D01*
X59873081Y-119928489D01*
X60627537Y-119928489D01*
X60627537Y-120167400D01*
X60009031Y-120167400D01*
X60218792Y-120384306D01*
X60258970Y-120425734D01*
X60314528Y-120482600D01*
X60362770Y-120531482D01*
X60401171Y-120569841D01*
X60427203Y-120595141D01*
X60438340Y-120604842D01*
X60442573Y-120602167D01*
X60462424Y-120584182D01*
X60496651Y-120550881D01*
X60543427Y-120504112D01*
X60600924Y-120445725D01*
X60667312Y-120377569D01*
X60740764Y-120301494D01*
X60819451Y-120219350D01*
X60898541Y-120136343D01*
X60976071Y-120054536D01*
X61038946Y-119987483D01*
X61088702Y-119933407D01*
X61126878Y-119890529D01*
X61155011Y-119857073D01*
X61174640Y-119831261D01*
X61187301Y-119811314D01*
X61194534Y-119795456D01*
X61197875Y-119781909D01*
X61198761Y-119775310D01*
X61202688Y-119738948D01*
X61207659Y-119685418D01*
X61213127Y-119620821D01*
X61218544Y-119551262D01*
X61220381Y-119527035D01*
X61225688Y-119461578D01*
X61230748Y-119405117D01*
X61235063Y-119363018D01*
X61238134Y-119340643D01*
X61244155Y-119312351D01*
X59526052Y-119312351D01*
X59242786Y-119312351D01*
X59234830Y-119306689D01*
X59230020Y-119302504D01*
X59190682Y-119251827D01*
X59175103Y-119199182D01*
X59515898Y-119199182D01*
X60930421Y-119199182D01*
X61143081Y-119199182D01*
X61200108Y-119199182D01*
X61217193Y-119199062D01*
X61242508Y-119196862D01*
X61249816Y-119189734D01*
X61244143Y-119174908D01*
X61242467Y-119172082D01*
X61223648Y-119150344D01*
X61196383Y-119126220D01*
X61169187Y-119106654D01*
X61150571Y-119098588D01*
X61148897Y-119099863D01*
X61144744Y-119117376D01*
X61143081Y-119148885D01*
X61143081Y-119199182D01*
X60930421Y-119199182D01*
X60926726Y-119108495D01*
X60923032Y-119017807D01*
X60847586Y-119002652D01*
X60809751Y-118995779D01*
X60746568Y-118986156D01*
X60687265Y-118978896D01*
X60602388Y-118970293D01*
X60602388Y-119073440D01*
X60023973Y-119073440D01*
X60023973Y-118982522D01*
X59951671Y-118991153D01*
X59841198Y-119009649D01*
X59730016Y-119043091D01*
X59638050Y-119089724D01*
X59563742Y-119150186D01*
X59515898Y-119199182D01*
X59175103Y-119199182D01*
X59173372Y-119193334D01*
X59178674Y-119131975D01*
X59207175Y-119072697D01*
X59209933Y-119069006D01*
X59248022Y-119037251D01*
X59297676Y-119018467D01*
X59351202Y-119013471D01*
X59400907Y-119023078D01*
X59439100Y-119048104D01*
X59452031Y-119060880D01*
X59464628Y-119063976D01*
X59482667Y-119054398D01*
X59513128Y-119030482D01*
X59522474Y-119023131D01*
X59594630Y-118976739D01*
X59602697Y-118972846D01*
X60124567Y-118972846D01*
X60501794Y-118972846D01*
X60501794Y-118909975D01*
X60124567Y-118909975D01*
X60124567Y-118972846D01*
X59602697Y-118972846D01*
X59680115Y-118935484D01*
X59770967Y-118902336D01*
X59859227Y-118880268D01*
X59936936Y-118872252D01*
X59945191Y-118872188D01*
X59991079Y-118867721D01*
X60016279Y-118855195D01*
X60023973Y-118833184D01*
X60024876Y-118826249D01*
X60029815Y-118820285D01*
X60041811Y-118815919D01*
X60063880Y-118812903D01*
X60099036Y-118810990D01*
X60150294Y-118809930D01*
X60220671Y-118809477D01*
X60313180Y-118809380D01*
X60399860Y-118809550D01*
X60473532Y-118810234D01*
X60527465Y-118811615D01*
X60564488Y-118813870D01*
X60587430Y-118817178D01*
X60599120Y-118821720D01*
X60602388Y-118827672D01*
X60613137Y-118842288D01*
X60643255Y-118851615D01*
X60654782Y-118853247D01*
X60694086Y-118858991D01*
X60746388Y-118866778D01*
X60803576Y-118875403D01*
X60835116Y-118879793D01*
X60881274Y-118884548D01*
X60913841Y-118885695D01*
X60927223Y-118882895D01*
X60929508Y-118881071D01*
X60950605Y-118876565D01*
X60988555Y-118873429D01*
X61037248Y-118872252D01*
X61143081Y-118872252D01*
X61143094Y-118909975D01*
X61143094Y-118913118D01*
G37*
%TO.C,G\u002A\u002A\u002A*%
G36*
X50877161Y-99660232D02*
G01*
X50877161Y-100200658D01*
X50697019Y-100200658D01*
X50516877Y-100200658D01*
X50516877Y-99660232D01*
X50516877Y-99119807D01*
X50697019Y-99119807D01*
X50877161Y-99119807D01*
X50877161Y-99660232D01*
G37*
G36*
X50143865Y-104391239D02*
G01*
X50161161Y-104948960D01*
X49603440Y-104931665D01*
X49045719Y-104914369D01*
X49045719Y-104373944D01*
X49045719Y-103833518D01*
X49586145Y-103833518D01*
X50126570Y-103833518D01*
X50143865Y-104391239D01*
G37*
G36*
X42816600Y-103144596D02*
G01*
X42890113Y-103251415D01*
X42866269Y-103420716D01*
X42812944Y-103476230D01*
X42666037Y-103492268D01*
X42596678Y-103480365D01*
X42518867Y-103424764D01*
X42500565Y-103293093D01*
X42506036Y-103198367D01*
X42552853Y-103127923D01*
X42679885Y-103112951D01*
X42816600Y-103144596D01*
G37*
G36*
X47982580Y-95962017D02*
G01*
X47984253Y-96012069D01*
X47986910Y-96242330D01*
X47981151Y-96424023D01*
X47967910Y-96521476D01*
X47912150Y-96573092D01*
X47770056Y-96586831D01*
X47604584Y-96567797D01*
X47604584Y-96027372D01*
X47604584Y-95486946D01*
X47784726Y-95486946D01*
X47964868Y-95486946D01*
X47982580Y-95962017D01*
G37*
G36*
X40584060Y-100566460D02*
G01*
X40654244Y-100613489D01*
X40669123Y-100741083D01*
X40663605Y-100836161D01*
X40616576Y-100906346D01*
X40488981Y-100921225D01*
X40393903Y-100915706D01*
X40323719Y-100868678D01*
X40308840Y-100741083D01*
X40314358Y-100646005D01*
X40361387Y-100575820D01*
X40488981Y-100560941D01*
X40584060Y-100566460D01*
G37*
G36*
X50156594Y-96345371D02*
G01*
X50155727Y-96453600D01*
X50147762Y-96679372D01*
X50133255Y-96844886D01*
X50114402Y-96920233D01*
X50098924Y-96927402D01*
X49986924Y-96942011D01*
X49796761Y-96948420D01*
X49558965Y-96945253D01*
X49045719Y-96928081D01*
X49045719Y-96387655D01*
X49045719Y-95847230D01*
X49601156Y-95829965D01*
X50156594Y-95812700D01*
X50156594Y-96345371D01*
G37*
G36*
X44692291Y-95276781D02*
G01*
X44692291Y-95462653D01*
X44316996Y-95444776D01*
X44292509Y-95443595D01*
X44097655Y-95430206D01*
X43992624Y-95406172D01*
X43949834Y-95359146D01*
X43941700Y-95276781D01*
X43941737Y-95266984D01*
X43952005Y-95188554D01*
X43999581Y-95144275D01*
X44112050Y-95121801D01*
X44316996Y-95108785D01*
X44692291Y-95090908D01*
X44692291Y-95276781D01*
G37*
G36*
X44332007Y-105484819D02*
G01*
X44332007Y-105670691D01*
X43956712Y-105652814D01*
X43932225Y-105651633D01*
X43737371Y-105638244D01*
X43632341Y-105614210D01*
X43589550Y-105567184D01*
X43581416Y-105484819D01*
X43581453Y-105475022D01*
X43591721Y-105396591D01*
X43639297Y-105352313D01*
X43751767Y-105329839D01*
X43956712Y-105316823D01*
X44332007Y-105298946D01*
X44332007Y-105484819D01*
G37*
G36*
X41582561Y-95829935D02*
G01*
X42140282Y-95847230D01*
X42157994Y-96322301D01*
X42159679Y-96372632D01*
X42162433Y-96602493D01*
X42156897Y-96783488D01*
X42143964Y-96880090D01*
X42117208Y-96911363D01*
X42026535Y-96939025D01*
X41856007Y-96949613D01*
X41585826Y-96945445D01*
X41059431Y-96928081D01*
X41042135Y-96370360D01*
X41024840Y-95812639D01*
X41582561Y-95829935D01*
G37*
G36*
X50746646Y-98010909D02*
G01*
X50814919Y-98039225D01*
X50848675Y-98125796D01*
X50865741Y-98301539D01*
X50869840Y-98395807D01*
X50867118Y-98572216D01*
X50850997Y-98681046D01*
X50804216Y-98730219D01*
X50682276Y-98748723D01*
X50616498Y-98732073D01*
X50570808Y-98681876D01*
X50551121Y-98570772D01*
X50546901Y-98369216D01*
X50546904Y-98356587D01*
X50550514Y-98162188D01*
X50568904Y-98058246D01*
X50613822Y-98016561D01*
X50697019Y-98008932D01*
X50746646Y-98010909D01*
G37*
G36*
X46768930Y-100926744D02*
G01*
X46839114Y-100973773D01*
X46853993Y-101101367D01*
X46848475Y-101196445D01*
X46801446Y-101266630D01*
X46673851Y-101281509D01*
X46578773Y-101287028D01*
X46508589Y-101334056D01*
X46493710Y-101461651D01*
X46488191Y-101556729D01*
X46441162Y-101626914D01*
X46313568Y-101641793D01*
X46218490Y-101636274D01*
X46148305Y-101589245D01*
X46133426Y-101461651D01*
X46138945Y-101366573D01*
X46185973Y-101296388D01*
X46313568Y-101281509D01*
X46408646Y-101275990D01*
X46478831Y-101228961D01*
X46493710Y-101101367D01*
X46499228Y-101006289D01*
X46546257Y-100936104D01*
X46673851Y-100921225D01*
X46768930Y-100926744D01*
G37*
G36*
X50879556Y-105667356D02*
G01*
X49602354Y-105651146D01*
X48325152Y-105634937D01*
X48325152Y-104373944D01*
X48325152Y-103613017D01*
X48692784Y-103613017D01*
X48694191Y-103814516D01*
X48697811Y-104083436D01*
X48703456Y-104398785D01*
X48721477Y-105304677D01*
X49619177Y-105304677D01*
X50516877Y-105304677D01*
X50516877Y-104406976D01*
X50516877Y-103509276D01*
X49610986Y-103491255D01*
X49446276Y-103488146D01*
X49151892Y-103483506D01*
X48914602Y-103480987D01*
X48755396Y-103480777D01*
X48695265Y-103483064D01*
X48693779Y-103499928D01*
X48692784Y-103613017D01*
X48325152Y-103613017D01*
X48325152Y-103112951D01*
X49586145Y-103112951D01*
X50847137Y-103112951D01*
X50863347Y-104390153D01*
X50874953Y-105304677D01*
X50879556Y-105667356D01*
G37*
G36*
X50877161Y-96346430D02*
G01*
X50877000Y-96457376D01*
X50874074Y-96823740D01*
X50867920Y-97143552D01*
X50859123Y-97398427D01*
X50848269Y-97569979D01*
X50835945Y-97639825D01*
X50829010Y-97642983D01*
X50732001Y-97653957D01*
X50538070Y-97661993D01*
X50265737Y-97666729D01*
X49933520Y-97667800D01*
X49559941Y-97664844D01*
X48325152Y-97648648D01*
X48325152Y-96823249D01*
X48698493Y-96823249D01*
X48700413Y-97060356D01*
X48706160Y-97219329D01*
X48715459Y-97279210D01*
X48732047Y-97280475D01*
X48846071Y-97281549D01*
X49048522Y-97280334D01*
X49317519Y-97277007D01*
X49631180Y-97271748D01*
X50516877Y-97255131D01*
X50516877Y-96356027D01*
X50516877Y-95456923D01*
X49619177Y-95456923D01*
X48721477Y-95456923D01*
X48703456Y-96363489D01*
X48700674Y-96528964D01*
X48698493Y-96823249D01*
X48325152Y-96823249D01*
X48325152Y-96387655D01*
X48325152Y-95126663D01*
X49601156Y-95110456D01*
X50877161Y-95094250D01*
X50877161Y-95456923D01*
X50877161Y-96346430D01*
G37*
G36*
X42877786Y-97339185D02*
G01*
X42871953Y-97521411D01*
X42863578Y-97603141D01*
X42832018Y-97628580D01*
X42744820Y-97648480D01*
X42589657Y-97661431D01*
X42353517Y-97668062D01*
X42023389Y-97669003D01*
X41586260Y-97664883D01*
X40338863Y-97648648D01*
X40333833Y-97252323D01*
X40669123Y-97252323D01*
X41575015Y-97270344D01*
X41739725Y-97273454D01*
X42034109Y-97278093D01*
X42271399Y-97280612D01*
X42430605Y-97280822D01*
X42490736Y-97278535D01*
X42492222Y-97261671D01*
X42493216Y-97148582D01*
X42491810Y-96947083D01*
X42488190Y-96678164D01*
X42482545Y-96362814D01*
X42464524Y-95456923D01*
X41566824Y-95456923D01*
X40669123Y-95456923D01*
X40669123Y-96354623D01*
X40669123Y-97252323D01*
X40333833Y-97252323D01*
X40322654Y-96371446D01*
X40306444Y-95094244D01*
X41583647Y-95110453D01*
X42860849Y-95126663D01*
X42877175Y-96325914D01*
X42877945Y-96385289D01*
X42880990Y-96751548D01*
X42880868Y-97076039D01*
X42880018Y-97148582D01*
X42877786Y-97339185D01*
G37*
G36*
X47675810Y-97224771D02*
G01*
X47803375Y-97269715D01*
X47810577Y-97270552D01*
X47885510Y-97284703D01*
X47932165Y-97321837D01*
X47958517Y-97406218D01*
X47972542Y-97562111D01*
X47974715Y-97618625D01*
X47982218Y-97813778D01*
X47991757Y-98058518D01*
X48005676Y-98216403D01*
X48030800Y-98300215D01*
X48074302Y-98333347D01*
X48143359Y-98339192D01*
X48169390Y-98338434D01*
X48267127Y-98298454D01*
X48306151Y-98174062D01*
X48318000Y-98105049D01*
X48373600Y-98027250D01*
X48505294Y-98008932D01*
X48600372Y-98014451D01*
X48670556Y-98061479D01*
X48685435Y-98189074D01*
X48681853Y-98264773D01*
X48639092Y-98354565D01*
X48520305Y-98388216D01*
X48492467Y-98391996D01*
X48384122Y-98438775D01*
X48355996Y-98546220D01*
X48355175Y-98549358D01*
X48355845Y-98573398D01*
X48395707Y-98671245D01*
X48520305Y-98710499D01*
X48593248Y-98723961D01*
X48672892Y-98784579D01*
X48704252Y-98924653D01*
X48704427Y-98926467D01*
X48706356Y-98939665D01*
X48720691Y-99037731D01*
X48762652Y-99095185D01*
X48861774Y-99116616D01*
X49049524Y-99119807D01*
X49232982Y-99116835D01*
X49332240Y-99097177D01*
X49369998Y-99044796D01*
X49375979Y-98943653D01*
X49372901Y-98874870D01*
X49330634Y-98782977D01*
X49210849Y-98748500D01*
X49141836Y-98736651D01*
X49064037Y-98681051D01*
X49045719Y-98549358D01*
X49051238Y-98454279D01*
X49098266Y-98384095D01*
X49225861Y-98369216D01*
X49299615Y-98372602D01*
X49390735Y-98414596D01*
X49424725Y-98531460D01*
X49440559Y-98614597D01*
X49486348Y-98669999D01*
X49590956Y-98697230D01*
X49785008Y-98711602D01*
X49804070Y-98712605D01*
X49989127Y-98726270D01*
X50087263Y-98754085D01*
X50129132Y-98814173D01*
X50145386Y-98924653D01*
X50149360Y-99050032D01*
X50106468Y-99108565D01*
X49984245Y-99119807D01*
X49908862Y-99123366D01*
X49818975Y-99166104D01*
X49785287Y-99284937D01*
X49783228Y-99299949D01*
X49781511Y-99312472D01*
X49729767Y-99426060D01*
X49601156Y-99469067D01*
X49537009Y-99479732D01*
X49455426Y-99534207D01*
X49436026Y-99664221D01*
X49436092Y-99690367D01*
X49445074Y-99776754D01*
X49489234Y-99821325D01*
X49596878Y-99837918D01*
X49796310Y-99840374D01*
X50156594Y-99840374D01*
X50156594Y-100020516D01*
X50156594Y-100200658D01*
X50156594Y-100380800D01*
X50156594Y-100560941D01*
X49976452Y-100560941D01*
X49881374Y-100566460D01*
X49811189Y-100613489D01*
X49796310Y-100741083D01*
X49801829Y-100836161D01*
X49848858Y-100906346D01*
X49976452Y-100921225D01*
X50071530Y-100926744D01*
X50141715Y-100973773D01*
X50156594Y-101101367D01*
X50162112Y-101196445D01*
X50209141Y-101266630D01*
X50336736Y-101281509D01*
X50431814Y-101275990D01*
X50501998Y-101228961D01*
X50516877Y-101101367D01*
X50522652Y-101004723D01*
X50570257Y-100935782D01*
X50698583Y-100921225D01*
X50880289Y-100921225D01*
X50867246Y-101641793D01*
X50863713Y-101836946D01*
X50847137Y-102752667D01*
X50697019Y-102752667D01*
X50619675Y-102746000D01*
X50568618Y-102705385D01*
X50543014Y-102602080D01*
X50528893Y-102407395D01*
X50528223Y-102394597D01*
X50514696Y-102205859D01*
X50488978Y-102106770D01*
X50435011Y-102068476D01*
X50336736Y-102062124D01*
X50330280Y-102062128D01*
X50234703Y-102069430D01*
X50182600Y-102110173D01*
X50161021Y-102200232D01*
X50157911Y-102213210D01*
X50144579Y-102407395D01*
X50126570Y-102752667D01*
X49766286Y-102752667D01*
X49742160Y-102752656D01*
X49552136Y-102748641D01*
X49449483Y-102728439D01*
X49404380Y-102679066D01*
X49387002Y-102587537D01*
X49383222Y-102559699D01*
X49336444Y-102451354D01*
X49225861Y-102422407D01*
X49201821Y-102423077D01*
X49103973Y-102462939D01*
X49064719Y-102587537D01*
X49063423Y-102598595D01*
X49044666Y-102685477D01*
X48995298Y-102731461D01*
X48885495Y-102749530D01*
X48685435Y-102752667D01*
X48661309Y-102752656D01*
X48471285Y-102748641D01*
X48368632Y-102728439D01*
X48323529Y-102679066D01*
X48306151Y-102587537D01*
X48302185Y-102558515D01*
X48255201Y-102451009D01*
X48144018Y-102422407D01*
X48074207Y-102428717D01*
X48023280Y-102469244D01*
X47997281Y-102572707D01*
X47982876Y-102767679D01*
X47979463Y-102833113D01*
X47964868Y-103112951D01*
X47619596Y-103130959D01*
X47274324Y-103148968D01*
X47274324Y-103472243D01*
X47276799Y-103633089D01*
X47294950Y-103745498D01*
X47344080Y-103795427D01*
X47439454Y-103814518D01*
X47508467Y-103826367D01*
X47586266Y-103881967D01*
X47604584Y-104013660D01*
X47601002Y-104089359D01*
X47558241Y-104179151D01*
X47439454Y-104212802D01*
X47274324Y-104231803D01*
X47274324Y-104768240D01*
X47274324Y-105304677D01*
X47606469Y-105304677D01*
X47754678Y-105310686D01*
X47924446Y-105352134D01*
X47993800Y-105438896D01*
X47972019Y-105577908D01*
X47970632Y-105581359D01*
X47917830Y-105633825D01*
X47799946Y-105655945D01*
X47590299Y-105652967D01*
X47405993Y-105640105D01*
X47294475Y-105614985D01*
X47244395Y-105563312D01*
X47225300Y-105469807D01*
X47214636Y-105405659D01*
X47160160Y-105324076D01*
X47030147Y-105304677D01*
X46938886Y-105299274D01*
X46868999Y-105252229D01*
X46853993Y-105124535D01*
X46848475Y-105029457D01*
X46801446Y-104959272D01*
X46673851Y-104944393D01*
X46578773Y-104949912D01*
X46508589Y-104996940D01*
X46493710Y-105124535D01*
X46488191Y-105219613D01*
X46441162Y-105289798D01*
X46313568Y-105304677D01*
X46218490Y-105310195D01*
X46148305Y-105357224D01*
X46133426Y-105484819D01*
X46133426Y-105664960D01*
X45773142Y-105664960D01*
X45412859Y-105664960D01*
X45412859Y-105484819D01*
X45407340Y-105389740D01*
X45360311Y-105319556D01*
X45232717Y-105304677D01*
X45137639Y-105310195D01*
X45067454Y-105357224D01*
X45052575Y-105484819D01*
X45047056Y-105579897D01*
X45000027Y-105650081D01*
X44872433Y-105664960D01*
X44777355Y-105659442D01*
X44707170Y-105612413D01*
X44692291Y-105484819D01*
X44697810Y-105389740D01*
X44744839Y-105319556D01*
X44872433Y-105304677D01*
X44967511Y-105299158D01*
X45037696Y-105252129D01*
X45052575Y-105124535D01*
X45058094Y-105029457D01*
X45105122Y-104959272D01*
X45232717Y-104944393D01*
X45327795Y-104949912D01*
X45397980Y-104996940D01*
X45412859Y-105124535D01*
X45418209Y-105218367D01*
X45464501Y-105289466D01*
X45590135Y-105304677D01*
X45623309Y-105304515D01*
X45706490Y-105293785D01*
X45751613Y-105246148D01*
X45773080Y-105133910D01*
X45785289Y-104929381D01*
X45786470Y-104904895D01*
X45799859Y-104710040D01*
X45823892Y-104605010D01*
X45870918Y-104562219D01*
X45953284Y-104554086D01*
X46022839Y-104559797D01*
X46093258Y-104612340D01*
X46122219Y-104749239D01*
X46138673Y-104854713D01*
X46192172Y-104928123D01*
X46313568Y-104944393D01*
X46407501Y-104937284D01*
X46477464Y-104884777D01*
X46504917Y-104749239D01*
X46517509Y-104663119D01*
X46570039Y-104569858D01*
X46688863Y-104535085D01*
X46718657Y-104530997D01*
X46825615Y-104483876D01*
X46853993Y-104372293D01*
X46848666Y-104305139D01*
X46816856Y-104260879D01*
X46735167Y-104235245D01*
X46580206Y-104221060D01*
X46328580Y-104211152D01*
X45803166Y-104193802D01*
X45793770Y-104013660D01*
X46853993Y-104013660D01*
X46858295Y-104078941D01*
X46905393Y-104147621D01*
X47034135Y-104163778D01*
X47112472Y-104160193D01*
X47194889Y-104120945D01*
X47214277Y-104013660D01*
X47209975Y-103948380D01*
X47162877Y-103879699D01*
X47034135Y-103863542D01*
X46955799Y-103867127D01*
X46873382Y-103906375D01*
X46853993Y-104013660D01*
X45793770Y-104013660D01*
X45785157Y-103848530D01*
X45767149Y-103503258D01*
X45229720Y-103503258D01*
X45195433Y-103503263D01*
X44952515Y-103504991D01*
X44803912Y-103514225D01*
X44726454Y-103537305D01*
X44696970Y-103580576D01*
X44692291Y-103650380D01*
X44698817Y-103724518D01*
X44739399Y-103775507D01*
X44842766Y-103801271D01*
X45037563Y-103815510D01*
X45058671Y-103816616D01*
X45243787Y-103830112D01*
X45340277Y-103856408D01*
X45377006Y-103912070D01*
X45382606Y-104009672D01*
X45382835Y-104013660D01*
X45379500Y-104086890D01*
X45337707Y-104178368D01*
X45221342Y-104212451D01*
X45217814Y-104212908D01*
X45204637Y-104214615D01*
X45086145Y-104265028D01*
X45041200Y-104392593D01*
X45037027Y-104422655D01*
X44988961Y-104526879D01*
X44872433Y-104554086D01*
X44838994Y-104552988D01*
X44741550Y-104512646D01*
X44703314Y-104388956D01*
X44692650Y-104324808D01*
X44638175Y-104243225D01*
X44508161Y-104223826D01*
X44482014Y-104223892D01*
X44395627Y-104232873D01*
X44351057Y-104277033D01*
X44334463Y-104384677D01*
X44332007Y-104584109D01*
X44332007Y-104944393D01*
X43614437Y-104944393D01*
X42896866Y-104944393D01*
X42887470Y-105124535D01*
X42878857Y-105289665D01*
X42860849Y-105634937D01*
X42320424Y-105634937D01*
X41779998Y-105634937D01*
X41760998Y-105469807D01*
X41757218Y-105441968D01*
X41710439Y-105333624D01*
X41599856Y-105304677D01*
X41575816Y-105305347D01*
X41477968Y-105345208D01*
X41438715Y-105469807D01*
X41425253Y-105542750D01*
X41364635Y-105622393D01*
X41224561Y-105653753D01*
X41029407Y-105672569D01*
X41029407Y-105308481D01*
X41029407Y-105124535D01*
X41810022Y-105124535D01*
X41813607Y-105202871D01*
X41852855Y-105285288D01*
X41960140Y-105304677D01*
X42025420Y-105300375D01*
X42094101Y-105253277D01*
X42110258Y-105124535D01*
X42106673Y-105046198D01*
X42067425Y-104963781D01*
X41960140Y-104944393D01*
X41894859Y-104948695D01*
X41826179Y-104995793D01*
X41810022Y-105124535D01*
X41029407Y-105124535D01*
X41029407Y-104944393D01*
X40849265Y-104944393D01*
X40754187Y-104949912D01*
X40684002Y-104996940D01*
X40669123Y-105124535D01*
X40663605Y-105219613D01*
X40616576Y-105289798D01*
X40488981Y-105304677D01*
X40393903Y-105299158D01*
X40323719Y-105252129D01*
X40308840Y-105124535D01*
X40314358Y-105029457D01*
X40361387Y-104959272D01*
X40488981Y-104944393D01*
X40669123Y-104944393D01*
X40669123Y-104534253D01*
X41786003Y-104534253D01*
X42308435Y-104544169D01*
X42412415Y-104545841D01*
X42627851Y-104547083D01*
X42778549Y-104544738D01*
X42836851Y-104539074D01*
X42842315Y-104490072D01*
X42848840Y-104368485D01*
X42854844Y-104212908D01*
X42320424Y-104212908D01*
X41786003Y-104212908D01*
X41786003Y-104373581D01*
X41786003Y-104534253D01*
X40669123Y-104534253D01*
X40669123Y-104407956D01*
X40669123Y-103871519D01*
X40503993Y-103852519D01*
X40434980Y-103840670D01*
X40415436Y-103826703D01*
X41029407Y-103826703D01*
X41032231Y-103998034D01*
X41052074Y-104105645D01*
X41105622Y-104154366D01*
X41209549Y-104176587D01*
X41212940Y-104177078D01*
X41339664Y-104185033D01*
X41395608Y-104168390D01*
X41401514Y-104111233D01*
X41404813Y-104065003D01*
X43942314Y-104065003D01*
X43954072Y-104158702D01*
X44017892Y-104188909D01*
X44166877Y-104176946D01*
X44197131Y-104172385D01*
X44303790Y-104123358D01*
X44332007Y-104009672D01*
X44331503Y-103985975D01*
X44296450Y-103888629D01*
X44181889Y-103863542D01*
X44158422Y-103863607D01*
X44019333Y-103874654D01*
X43959703Y-103922590D01*
X43943457Y-104033062D01*
X43942314Y-104065003D01*
X41404813Y-104065003D01*
X41410620Y-103983637D01*
X41416957Y-103929222D01*
X41467178Y-103851755D01*
X41596854Y-103831247D01*
X41677249Y-103826236D01*
X41700064Y-103813718D01*
X42159388Y-103813718D01*
X42675269Y-103823618D01*
X42773901Y-103825233D01*
X42987932Y-103826528D01*
X43137120Y-103824195D01*
X43193860Y-103818506D01*
X43194415Y-103806573D01*
X43196048Y-103704440D01*
X43197773Y-103521960D01*
X43198361Y-103431552D01*
X43949969Y-103431552D01*
X44013151Y-103466935D01*
X44166877Y-103456378D01*
X44197131Y-103451817D01*
X44303790Y-103402790D01*
X44332007Y-103289104D01*
X44328994Y-103235191D01*
X44284613Y-103160979D01*
X44158866Y-103142975D01*
X44117426Y-103144151D01*
X44005471Y-103181613D01*
X43956753Y-103294526D01*
X43950467Y-103329536D01*
X43949969Y-103431552D01*
X43198361Y-103431552D01*
X43199297Y-103287634D01*
X43200220Y-103113224D01*
X46133426Y-103113224D01*
X46135851Y-103272181D01*
X46138563Y-103289104D01*
X46153923Y-103384963D01*
X46203040Y-103435077D01*
X46298556Y-103454234D01*
X46326091Y-103458010D01*
X46439679Y-103509754D01*
X46482686Y-103638365D01*
X46492460Y-103698630D01*
X46546097Y-103783225D01*
X46674843Y-103803495D01*
X46680534Y-103803491D01*
X46775885Y-103796202D01*
X46827931Y-103755462D01*
X46852648Y-103652419D01*
X46866009Y-103458223D01*
X46878188Y-103282057D01*
X46902707Y-103166524D01*
X46952650Y-103114157D01*
X47042792Y-103094564D01*
X47163411Y-103052856D01*
X47229349Y-102930845D01*
X47243443Y-102833113D01*
X47240977Y-102769090D01*
X47223207Y-102765881D01*
X47111266Y-102763084D01*
X46920674Y-102765150D01*
X46679124Y-102771941D01*
X46133426Y-102791214D01*
X46133426Y-103113224D01*
X43200220Y-103113224D01*
X43201215Y-102925189D01*
X43584356Y-102925189D01*
X43588873Y-103059984D01*
X43641661Y-103108075D01*
X43776570Y-103096842D01*
X43860177Y-103064032D01*
X43911676Y-102958656D01*
X43911676Y-102890652D01*
X43911676Y-102800705D01*
X43869236Y-102772268D01*
X43751661Y-102758672D01*
X43696383Y-102761065D01*
X43674202Y-102771773D01*
X43609991Y-102802771D01*
X43584356Y-102925189D01*
X43201215Y-102925189D01*
X43202027Y-102771773D01*
X42680707Y-102771773D01*
X42159388Y-102771773D01*
X42159388Y-103292745D01*
X42159388Y-103666117D01*
X42159388Y-103813718D01*
X41700064Y-103813718D01*
X41756051Y-103783000D01*
X41773993Y-103666117D01*
X41762643Y-103555091D01*
X41731960Y-103503258D01*
X41688153Y-103503258D01*
X41549948Y-103503258D01*
X41359667Y-103503258D01*
X41029407Y-103503258D01*
X41029407Y-103826703D01*
X40415436Y-103826703D01*
X40357181Y-103785070D01*
X40338863Y-103653376D01*
X40338868Y-103645787D01*
X40345842Y-103546973D01*
X40385747Y-103493511D01*
X40487602Y-103468573D01*
X40680425Y-103455337D01*
X40855100Y-103443220D01*
X40969535Y-103418510D01*
X41021196Y-103367606D01*
X41040709Y-103275195D01*
X41044422Y-103248014D01*
X41092598Y-103140374D01*
X41209549Y-103109780D01*
X41318205Y-103098641D01*
X41377323Y-103042777D01*
X41389691Y-102905123D01*
X41386147Y-102867171D01*
X41355317Y-102823455D01*
X41273396Y-102796634D01*
X41117382Y-102780792D01*
X40864277Y-102770017D01*
X40338863Y-102752667D01*
X40338863Y-102572525D01*
X40338863Y-102392384D01*
X40879289Y-102392384D01*
X41419714Y-102392384D01*
X41438715Y-102557514D01*
X41477528Y-102679976D01*
X41573821Y-102722644D01*
X41642084Y-102724952D01*
X41732791Y-102737655D01*
X41733896Y-102737983D01*
X41764083Y-102693925D01*
X41777826Y-102572525D01*
X41778179Y-102547790D01*
X41787976Y-102458208D01*
X41832150Y-102411264D01*
X41939269Y-102392170D01*
X42137902Y-102386137D01*
X42178748Y-102385401D01*
X42360109Y-102378015D01*
X42454747Y-102355179D01*
X42491246Y-102302603D01*
X42498186Y-102205995D01*
X42504611Y-102118156D01*
X42552601Y-102047494D01*
X42680707Y-102032100D01*
X42773360Y-102037345D01*
X42845985Y-102083576D01*
X42863121Y-102209239D01*
X42869002Y-102296402D01*
X42915456Y-102370259D01*
X43040991Y-102386379D01*
X43127457Y-102381574D01*
X43201261Y-102335667D01*
X43218861Y-102209239D01*
X43220180Y-102186207D01*
X43611440Y-102186207D01*
X43611462Y-102254307D01*
X43611580Y-102340893D01*
X43645981Y-102358262D01*
X43771321Y-102376370D01*
X43956852Y-102385928D01*
X44146150Y-102392789D01*
X44254461Y-102414172D01*
X44302562Y-102464285D01*
X44320984Y-102557514D01*
X44331649Y-102621661D01*
X44386124Y-102703244D01*
X44516138Y-102722644D01*
X44692291Y-102722644D01*
X44692291Y-102002076D01*
X44692291Y-101281509D01*
X44872433Y-101281509D01*
X45052575Y-101281509D01*
X45052575Y-101641793D01*
X45052575Y-102002076D01*
X45232717Y-102002076D01*
X45327795Y-101996558D01*
X45397980Y-101949529D01*
X45412859Y-101821934D01*
X45412859Y-101641793D01*
X45776947Y-101641793D01*
X46141035Y-101641793D01*
X46122219Y-101836946D01*
X46110235Y-101920037D01*
X46058498Y-102015389D01*
X45941910Y-102050749D01*
X45925204Y-102052913D01*
X45806712Y-102103326D01*
X45761768Y-102230891D01*
X45745448Y-102314930D01*
X45698924Y-102369269D01*
X45593202Y-102396085D01*
X45397847Y-102410392D01*
X45052575Y-102428400D01*
X45052575Y-102755664D01*
X45052575Y-102958656D01*
X45052575Y-103082927D01*
X45408870Y-103082927D01*
X45425792Y-103082922D01*
X45617439Y-103079075D01*
X45721047Y-103059074D01*
X45766621Y-103009715D01*
X45784166Y-102917797D01*
X45787382Y-102893835D01*
X45838321Y-102777825D01*
X45964658Y-102734018D01*
X45981364Y-102731854D01*
X46099856Y-102681441D01*
X46144800Y-102553876D01*
X46161120Y-102469837D01*
X46207644Y-102415498D01*
X46313366Y-102388682D01*
X46508721Y-102374375D01*
X46676327Y-102363017D01*
X46794079Y-102340076D01*
X46843777Y-102294593D01*
X46853993Y-102213234D01*
X46853270Y-102187994D01*
X46813336Y-102090215D01*
X46688863Y-102051100D01*
X46615920Y-102037638D01*
X46536277Y-101977021D01*
X46504917Y-101836946D01*
X46501058Y-101710297D01*
X46545093Y-101652702D01*
X46670047Y-101641793D01*
X46769305Y-101647581D01*
X46839148Y-101694023D01*
X46853993Y-101818130D01*
X46861273Y-101916015D01*
X46913765Y-101986024D01*
X47049147Y-102013284D01*
X47157440Y-102030464D01*
X47229435Y-102085767D01*
X47246472Y-102212242D01*
X47246542Y-102216879D01*
X47260983Y-102336454D01*
X47291508Y-102377372D01*
X47324269Y-102372247D01*
X47452953Y-102365146D01*
X47634608Y-102362360D01*
X47750129Y-102361040D01*
X47873172Y-102346319D01*
X47924532Y-102303019D01*
X47934658Y-102217799D01*
X48355175Y-102217799D01*
X48359722Y-102283976D01*
X48395267Y-102336347D01*
X48491639Y-102358063D01*
X48678435Y-102362360D01*
X48813419Y-102360528D01*
X48941167Y-102344393D01*
X49002592Y-102300006D01*
X49030122Y-102213653D01*
X49044708Y-102112515D01*
X49436026Y-102112515D01*
X49436026Y-102118543D01*
X49436026Y-102235265D01*
X49462478Y-102313267D01*
X49586145Y-102377057D01*
X49686944Y-102390579D01*
X49742268Y-102384057D01*
X49747859Y-102327314D01*
X49754277Y-102200232D01*
X49753934Y-102138966D01*
X49716534Y-102057028D01*
X49598154Y-102038105D01*
X49487840Y-102049404D01*
X49436026Y-102080138D01*
X49436026Y-102112515D01*
X49044708Y-102112515D01*
X49042256Y-102048523D01*
X49005089Y-102043574D01*
X48876397Y-102044119D01*
X48690569Y-102052669D01*
X48536868Y-102064375D01*
X48416625Y-102088223D01*
X48365712Y-102134613D01*
X48355374Y-102216230D01*
X48355175Y-102217799D01*
X47934658Y-102217799D01*
X47934844Y-102216230D01*
X47933961Y-102187423D01*
X47893831Y-102089817D01*
X47769714Y-102051100D01*
X47700871Y-102038772D01*
X47618208Y-101979237D01*
X47586040Y-101840594D01*
X47575100Y-101763800D01*
X47523515Y-101666536D01*
X47457612Y-101646304D01*
X47994892Y-101646304D01*
X47998353Y-101844193D01*
X48016248Y-101950678D01*
X48059997Y-101993920D01*
X48141021Y-102002076D01*
X48169829Y-102001192D01*
X48267435Y-101961063D01*
X48306151Y-101836946D01*
X48309927Y-101809411D01*
X48361671Y-101695823D01*
X48490282Y-101652816D01*
X48554429Y-101642151D01*
X48554965Y-101641793D01*
X49075743Y-101641793D01*
X49406003Y-101641793D01*
X49736263Y-101641793D01*
X49736263Y-101285497D01*
X49736257Y-101268575D01*
X49732411Y-101076928D01*
X49712409Y-100973320D01*
X49663050Y-100927746D01*
X49571133Y-100910202D01*
X49543598Y-100906426D01*
X49430009Y-100854682D01*
X49387002Y-100726072D01*
X49382488Y-100693633D01*
X49334885Y-100588554D01*
X49221872Y-100560941D01*
X49212036Y-100560961D01*
X49146311Y-100567479D01*
X49106066Y-100601675D01*
X49085055Y-100686652D01*
X49082104Y-100745072D01*
X49077030Y-100845515D01*
X49075743Y-101101367D01*
X49075743Y-101457662D01*
X49075743Y-101641793D01*
X48554965Y-101641793D01*
X48636013Y-101587676D01*
X48655412Y-101457662D01*
X48655412Y-101457643D01*
X48649547Y-101356940D01*
X48612250Y-101304525D01*
X48513970Y-101284636D01*
X48325152Y-101281509D01*
X47994892Y-101281509D01*
X47994892Y-101641793D01*
X47994892Y-101646304D01*
X47457612Y-101646304D01*
X47405898Y-101630428D01*
X47375646Y-101626225D01*
X47271484Y-101578148D01*
X47244301Y-101461651D01*
X47250967Y-101384306D01*
X47291583Y-101333249D01*
X47394888Y-101307645D01*
X47589572Y-101293524D01*
X47600920Y-101292930D01*
X47790289Y-101279398D01*
X47889832Y-101253774D01*
X47928400Y-101200086D01*
X47934844Y-101102359D01*
X47932137Y-101038852D01*
X47890268Y-100945328D01*
X47769714Y-100910202D01*
X47742180Y-100906426D01*
X47628591Y-100854682D01*
X47585584Y-100726072D01*
X47581804Y-100698233D01*
X47535025Y-100589888D01*
X47424442Y-100560941D01*
X47400402Y-100561612D01*
X47302555Y-100601473D01*
X47263301Y-100726072D01*
X47249839Y-100799014D01*
X47189221Y-100878658D01*
X47049147Y-100910018D01*
X46922498Y-100913877D01*
X46864903Y-100869842D01*
X46853993Y-100744888D01*
X46860014Y-100643984D01*
X46907441Y-100575350D01*
X47034135Y-100560941D01*
X47129213Y-100555423D01*
X47199398Y-100508394D01*
X47214277Y-100380800D01*
X47208758Y-100285722D01*
X47161730Y-100215537D01*
X47034135Y-100200658D01*
X46939057Y-100206176D01*
X46868872Y-100253205D01*
X46853993Y-100380800D01*
X46848475Y-100475878D01*
X46801446Y-100546063D01*
X46673851Y-100560941D01*
X46578773Y-100555423D01*
X46508589Y-100508394D01*
X46493710Y-100380800D01*
X46488191Y-100285722D01*
X46441162Y-100215537D01*
X46313568Y-100200658D01*
X46218490Y-100206176D01*
X46148305Y-100253205D01*
X46133426Y-100380800D01*
X46138945Y-100475878D01*
X46185973Y-100546063D01*
X46313568Y-100560941D01*
X46408646Y-100566460D01*
X46478831Y-100613489D01*
X46493710Y-100741083D01*
X46493710Y-100921225D01*
X46133426Y-100921225D01*
X45773142Y-100921225D01*
X45773142Y-101101367D01*
X45773142Y-101281509D01*
X45412859Y-101281509D01*
X45052575Y-101281509D01*
X45052575Y-101101367D01*
X45058094Y-101006289D01*
X45105122Y-100936104D01*
X45232717Y-100921225D01*
X45327795Y-100915706D01*
X45397980Y-100868678D01*
X45412859Y-100741083D01*
X45407340Y-100646005D01*
X45360311Y-100575820D01*
X45232717Y-100560941D01*
X45137639Y-100566460D01*
X45067454Y-100613489D01*
X45052575Y-100741083D01*
X45047056Y-100836161D01*
X45000027Y-100906346D01*
X44872433Y-100921225D01*
X44777355Y-100915706D01*
X44707170Y-100868678D01*
X44692291Y-100741083D01*
X44686772Y-100646005D01*
X44639744Y-100575820D01*
X44512149Y-100560941D01*
X44417071Y-100566460D01*
X44346886Y-100613489D01*
X44332007Y-100741083D01*
X44337526Y-100836161D01*
X44384555Y-100906346D01*
X44512149Y-100921225D01*
X44607227Y-100926744D01*
X44677412Y-100973773D01*
X44692291Y-101101367D01*
X44692237Y-101128290D01*
X44683568Y-101216809D01*
X44640065Y-101262302D01*
X44533306Y-101279095D01*
X44334873Y-101281509D01*
X43977454Y-101281509D01*
X43959577Y-101656804D01*
X43957843Y-101692589D01*
X43944220Y-101883248D01*
X43918482Y-101987130D01*
X43867106Y-102033369D01*
X43776570Y-102051100D01*
X43654108Y-102089914D01*
X43611440Y-102186207D01*
X43220180Y-102186207D01*
X43222782Y-102140778D01*
X43266226Y-102047917D01*
X43386263Y-102013100D01*
X43551393Y-101994099D01*
X43551393Y-101280517D01*
X43551393Y-100566935D01*
X43206121Y-100548926D01*
X43022876Y-100536142D01*
X42911158Y-100511046D01*
X42860978Y-100459371D01*
X42844918Y-100380800D01*
X43611440Y-100380800D01*
X43615025Y-100459136D01*
X43654273Y-100541553D01*
X43761558Y-100560941D01*
X43826839Y-100556639D01*
X43895520Y-100509542D01*
X43911676Y-100380800D01*
X43908091Y-100302463D01*
X43868844Y-100220046D01*
X43761558Y-100200658D01*
X43696278Y-100204960D01*
X43627597Y-100252057D01*
X43611440Y-100380800D01*
X42844918Y-100380800D01*
X42841849Y-100365788D01*
X42827113Y-100282278D01*
X42784516Y-100226895D01*
X42684832Y-100204707D01*
X42496577Y-100200658D01*
X42313379Y-100203622D01*
X42214073Y-100223268D01*
X42176292Y-100275647D01*
X42170305Y-100376811D01*
X42173383Y-100445595D01*
X42215650Y-100537488D01*
X42335435Y-100571965D01*
X42423250Y-100588815D01*
X42477727Y-100635373D01*
X42504393Y-100741018D01*
X42504398Y-100741083D01*
X42518574Y-100936237D01*
X42529763Y-101101367D01*
X42529931Y-101103843D01*
X42552873Y-101221595D01*
X42598356Y-101271292D01*
X42679715Y-101281509D01*
X42704955Y-101280786D01*
X42802734Y-101240852D01*
X42841849Y-101116379D01*
X42853698Y-101047366D01*
X42909297Y-100969567D01*
X43040991Y-100951249D01*
X43119327Y-100954834D01*
X43201744Y-100994082D01*
X43221133Y-101101367D01*
X43220377Y-101129398D01*
X43181618Y-101230758D01*
X43059640Y-101270135D01*
X43042935Y-101272299D01*
X42924443Y-101322711D01*
X42879498Y-101450276D01*
X42877325Y-101461651D01*
X42863756Y-101532687D01*
X42817951Y-101588026D01*
X42713290Y-101615275D01*
X42519166Y-101629670D01*
X42503324Y-101630503D01*
X42316808Y-101644178D01*
X42217653Y-101671711D01*
X42175223Y-101730973D01*
X42158883Y-101839836D01*
X42140282Y-102032100D01*
X41779998Y-102032100D01*
X41419714Y-102032100D01*
X41400898Y-101836946D01*
X41382082Y-101641793D01*
X41029407Y-101641793D01*
X40676732Y-101641793D01*
X40657916Y-101836946D01*
X40644873Y-101926652D01*
X40596264Y-102011611D01*
X40488981Y-102032100D01*
X40479185Y-102032063D01*
X40400754Y-102021795D01*
X40356476Y-101974219D01*
X40334002Y-101861750D01*
X40320986Y-101656804D01*
X40311690Y-101461651D01*
X41449738Y-101461651D01*
X41453323Y-101539987D01*
X41492571Y-101622404D01*
X41599856Y-101641793D01*
X41665137Y-101637491D01*
X41733817Y-101590393D01*
X41749974Y-101461651D01*
X41746389Y-101383314D01*
X41707141Y-101300897D01*
X41599856Y-101281509D01*
X41534576Y-101285811D01*
X41465895Y-101332908D01*
X41449738Y-101461651D01*
X40311690Y-101461651D01*
X40303109Y-101281509D01*
X40666258Y-101281509D01*
X41029407Y-101281509D01*
X41029407Y-101101367D01*
X41810022Y-101101367D01*
X41813607Y-101179704D01*
X41852855Y-101262121D01*
X41960140Y-101281509D01*
X42025420Y-101277207D01*
X42094101Y-101230109D01*
X42110258Y-101101367D01*
X42106673Y-101023030D01*
X42067425Y-100940613D01*
X41960140Y-100921225D01*
X41894859Y-100925527D01*
X41826179Y-100972625D01*
X41810022Y-101101367D01*
X41029407Y-101101367D01*
X41029407Y-100741083D01*
X41449738Y-100741083D01*
X41453323Y-100819420D01*
X41492571Y-100901837D01*
X41599856Y-100921225D01*
X41665137Y-100916923D01*
X41733817Y-100869826D01*
X41749974Y-100741083D01*
X41746389Y-100662747D01*
X41707141Y-100580330D01*
X41599856Y-100560941D01*
X41534576Y-100565243D01*
X41465895Y-100612341D01*
X41449738Y-100741083D01*
X41029407Y-100741083D01*
X41029407Y-100200658D01*
X40669123Y-100200658D01*
X40308840Y-100200658D01*
X40308840Y-99840374D01*
X40308840Y-99480090D01*
X40488981Y-99480090D01*
X40584060Y-99485609D01*
X40654244Y-99532638D01*
X40669123Y-99660232D01*
X40674642Y-99755310D01*
X40721671Y-99825495D01*
X40849265Y-99840374D01*
X40944343Y-99845893D01*
X41014528Y-99892922D01*
X41029407Y-100020516D01*
X41029457Y-100046542D01*
X41038002Y-100135555D01*
X41081248Y-100181318D01*
X41187660Y-100198221D01*
X41385702Y-100200658D01*
X41402625Y-100200652D01*
X41594271Y-100196806D01*
X41697879Y-100176804D01*
X41743453Y-100127445D01*
X41760998Y-100035528D01*
X41764215Y-100011565D01*
X41815153Y-99895555D01*
X41941491Y-99851748D01*
X41958196Y-99849584D01*
X41979844Y-99840374D01*
X42890873Y-99840374D01*
X42890876Y-99853002D01*
X42894486Y-100047401D01*
X42912875Y-100151344D01*
X42957793Y-100193029D01*
X43040991Y-100200658D01*
X43046253Y-100200650D01*
X43127252Y-100191986D01*
X43170562Y-100147852D01*
X43187931Y-100040048D01*
X43191109Y-99840374D01*
X43191106Y-99827746D01*
X43187496Y-99633347D01*
X43169107Y-99529404D01*
X43124188Y-99487719D01*
X43040991Y-99480090D01*
X43035729Y-99480098D01*
X42954730Y-99488762D01*
X42911420Y-99532896D01*
X42894051Y-99640700D01*
X42890873Y-99840374D01*
X41979844Y-99840374D01*
X42076688Y-99799172D01*
X42121632Y-99671607D01*
X42137355Y-99589251D01*
X42183136Y-99533878D01*
X42287761Y-99506615D01*
X42481844Y-99492216D01*
X42656519Y-99480099D01*
X42770953Y-99455389D01*
X42822614Y-99404485D01*
X42842127Y-99312074D01*
X42843775Y-99299949D01*
X43251156Y-99299949D01*
X43254741Y-99378285D01*
X43293989Y-99460702D01*
X43401275Y-99480090D01*
X43466555Y-99475788D01*
X43535236Y-99428691D01*
X43551393Y-99299949D01*
X43547808Y-99221612D01*
X43508560Y-99139195D01*
X43401275Y-99119807D01*
X43335994Y-99124109D01*
X43267313Y-99171206D01*
X43251156Y-99299949D01*
X42843775Y-99299949D01*
X42845428Y-99287783D01*
X42897029Y-99174163D01*
X43025979Y-99130830D01*
X43084915Y-99121351D01*
X43170540Y-99067990D01*
X43189987Y-98946665D01*
X43611440Y-98946665D01*
X43613793Y-99008170D01*
X43650496Y-99097815D01*
X43754743Y-99119807D01*
X43795526Y-99117704D01*
X43883826Y-99071426D01*
X43924535Y-98939323D01*
X43931411Y-98890529D01*
X43935472Y-98769014D01*
X43886309Y-98729898D01*
X43760147Y-98745096D01*
X43727144Y-98752593D01*
X43635422Y-98812783D01*
X43611440Y-98946665D01*
X43189987Y-98946665D01*
X43191109Y-98939665D01*
X43188522Y-98877920D01*
X43146791Y-98783846D01*
X43025979Y-98748500D01*
X42958630Y-98737007D01*
X42879000Y-98681330D01*
X42858678Y-98549358D01*
X42858607Y-98544720D01*
X42844167Y-98425146D01*
X42837912Y-98416761D01*
X43223030Y-98416761D01*
X43236730Y-98550769D01*
X43287404Y-98662569D01*
X43408275Y-98699476D01*
X43432802Y-98698139D01*
X43533941Y-98645867D01*
X43562136Y-98548146D01*
X43518135Y-98447090D01*
X43402686Y-98384812D01*
X43271303Y-98370754D01*
X43223030Y-98416761D01*
X42837912Y-98416761D01*
X42813642Y-98384228D01*
X42773020Y-98392201D01*
X42654672Y-98399239D01*
X42564521Y-98434401D01*
X42519566Y-98564369D01*
X42508759Y-98628884D01*
X42453716Y-98710728D01*
X42322670Y-98731746D01*
X42234410Y-98737755D01*
X42160168Y-98784837D01*
X42142528Y-98911888D01*
X42138780Y-98979124D01*
X42096210Y-99073318D01*
X41978789Y-99108432D01*
X41962084Y-99110597D01*
X41843592Y-99161009D01*
X41798647Y-99288574D01*
X41787386Y-99353878D01*
X41731796Y-99431559D01*
X41599856Y-99450067D01*
X41521520Y-99446482D01*
X41439103Y-99407234D01*
X41419714Y-99299949D01*
X41420812Y-99266510D01*
X41461154Y-99169065D01*
X41584844Y-99130830D01*
X41592687Y-99129916D01*
X41681303Y-99111420D01*
X41728255Y-99062861D01*
X41746745Y-98954234D01*
X41749974Y-98755535D01*
X41747896Y-98601634D01*
X41733487Y-98470797D01*
X41697249Y-98412530D01*
X41629880Y-98399239D01*
X41557247Y-98396784D01*
X41466921Y-98384228D01*
X41465816Y-98383900D01*
X41435629Y-98427958D01*
X41421886Y-98549358D01*
X41421475Y-98577885D01*
X41411434Y-98665446D01*
X41366732Y-98710467D01*
X41258890Y-98727100D01*
X41059431Y-98729499D01*
X40699147Y-98729499D01*
X40699147Y-98369216D01*
X40699147Y-98008932D01*
X41239572Y-98008932D01*
X41779998Y-98008932D01*
X41798998Y-98174062D01*
X41813132Y-98255573D01*
X41854958Y-98312252D01*
X41953443Y-98335013D01*
X42140282Y-98339192D01*
X42299647Y-98336756D01*
X42412348Y-98318667D01*
X42462422Y-98269548D01*
X42481565Y-98174062D01*
X42499678Y-98081535D01*
X42547010Y-98031320D01*
X42653826Y-98009691D01*
X42850431Y-98002554D01*
X43200296Y-97996176D01*
X43210715Y-97101845D01*
X43211989Y-96992446D01*
X43588872Y-96992446D01*
X43589694Y-97144292D01*
X43593526Y-97369295D01*
X43600064Y-97643411D01*
X43618711Y-98339192D01*
X43975359Y-98339192D01*
X44172973Y-98335865D01*
X44280190Y-98318109D01*
X44323769Y-98274316D01*
X44332007Y-98192878D01*
X44326619Y-98127711D01*
X44274093Y-98057050D01*
X44136854Y-98027748D01*
X43941700Y-98008932D01*
X43941700Y-97648648D01*
X43941700Y-97288365D01*
X44121842Y-97288365D01*
X44129432Y-97288369D01*
X44228245Y-97295343D01*
X44281708Y-97335249D01*
X44306645Y-97437104D01*
X44319882Y-97629927D01*
X44331999Y-97804602D01*
X44356709Y-97919036D01*
X44407612Y-97970697D01*
X44500023Y-97990210D01*
X44508737Y-97991232D01*
X44595037Y-98009891D01*
X44640890Y-98059246D01*
X44659049Y-98169090D01*
X44662268Y-98369216D01*
X44662256Y-98393342D01*
X44658986Y-98548146D01*
X44658242Y-98583366D01*
X44638039Y-98686019D01*
X44588666Y-98731122D01*
X44497137Y-98748500D01*
X44432990Y-98759164D01*
X44418239Y-98769014D01*
X44351407Y-98813640D01*
X44332007Y-98943653D01*
X44326605Y-99034914D01*
X44279560Y-99104801D01*
X44151866Y-99119807D01*
X44056788Y-99125325D01*
X43986603Y-99172354D01*
X43971724Y-99299949D01*
X43977242Y-99395027D01*
X44024271Y-99465211D01*
X44151866Y-99480090D01*
X44246944Y-99485609D01*
X44317129Y-99532638D01*
X44332007Y-99660232D01*
X44326489Y-99755310D01*
X44279460Y-99825495D01*
X44151866Y-99840374D01*
X44056788Y-99845893D01*
X43986603Y-99892922D01*
X43971724Y-100020516D01*
X43971724Y-100200658D01*
X44692291Y-100200658D01*
X45412859Y-100200658D01*
X45412859Y-99840374D01*
X45412859Y-99480090D01*
X45052575Y-99480090D01*
X44692291Y-99480090D01*
X44692291Y-99299949D01*
X44692291Y-99119807D01*
X45232717Y-99119807D01*
X45773142Y-99119807D01*
X45773142Y-99299949D01*
X45778661Y-99395027D01*
X45825690Y-99465211D01*
X45953284Y-99480090D01*
X46048362Y-99485609D01*
X46118547Y-99532638D01*
X46133426Y-99660232D01*
X46133426Y-99840374D01*
X46493710Y-99840374D01*
X46853993Y-99840374D01*
X46853993Y-99660232D01*
X46853993Y-99656244D01*
X47274324Y-99656244D01*
X47277402Y-99725027D01*
X47319669Y-99816920D01*
X47401156Y-99840374D01*
X47439454Y-99851397D01*
X47525579Y-99867651D01*
X47581098Y-99913469D01*
X47608210Y-100018016D01*
X47622482Y-100211960D01*
X47634599Y-100386635D01*
X47659309Y-100501069D01*
X47710213Y-100552730D01*
X47802624Y-100572243D01*
X47826915Y-100575544D01*
X47940535Y-100627145D01*
X47983868Y-100756095D01*
X47998604Y-100839605D01*
X48041201Y-100894988D01*
X48140885Y-100917176D01*
X48329140Y-100921225D01*
X48512338Y-100918261D01*
X48611644Y-100898615D01*
X48649425Y-100846236D01*
X48655412Y-100745072D01*
X48652334Y-100676288D01*
X48610067Y-100584395D01*
X48490282Y-100549918D01*
X48466319Y-100546701D01*
X48350309Y-100495763D01*
X48310446Y-100380800D01*
X48715459Y-100380800D01*
X48719044Y-100459136D01*
X48758292Y-100541553D01*
X48865577Y-100560941D01*
X48930858Y-100556639D01*
X48999539Y-100509542D01*
X49015695Y-100380800D01*
X49436026Y-100380800D01*
X49439611Y-100459136D01*
X49478859Y-100541553D01*
X49586145Y-100560941D01*
X49651425Y-100556639D01*
X49720106Y-100509542D01*
X49736263Y-100380800D01*
X49732678Y-100302463D01*
X49693430Y-100220046D01*
X49586145Y-100200658D01*
X49520864Y-100204960D01*
X49452183Y-100252057D01*
X49436026Y-100380800D01*
X49015695Y-100380800D01*
X49012110Y-100302463D01*
X48972862Y-100220046D01*
X48865577Y-100200658D01*
X48800297Y-100204960D01*
X48731616Y-100252057D01*
X48715459Y-100380800D01*
X48310446Y-100380800D01*
X48306502Y-100369425D01*
X48304338Y-100352720D01*
X48253926Y-100234228D01*
X48126361Y-100189283D01*
X48096299Y-100185110D01*
X47992075Y-100137044D01*
X47964868Y-100020516D01*
X48355175Y-100020516D01*
X48358760Y-100098852D01*
X48398008Y-100181270D01*
X48505294Y-100200658D01*
X48570574Y-100196356D01*
X48639255Y-100149258D01*
X48655412Y-100020516D01*
X48651827Y-99942179D01*
X48612579Y-99859762D01*
X48505294Y-99840374D01*
X48440013Y-99844676D01*
X48371332Y-99891774D01*
X48355175Y-100020516D01*
X47964868Y-100020516D01*
X47965965Y-99987077D01*
X48006307Y-99889633D01*
X48129998Y-99851397D01*
X48194145Y-99840733D01*
X48275729Y-99786258D01*
X48295128Y-99656244D01*
X48295128Y-99480090D01*
X47784726Y-99480090D01*
X47274324Y-99480090D01*
X47274324Y-99656244D01*
X46853993Y-99656244D01*
X46853993Y-99480090D01*
X46493710Y-99480090D01*
X46133426Y-99480090D01*
X46133426Y-99299949D01*
X48355175Y-99299949D01*
X48358760Y-99378285D01*
X48398008Y-99460702D01*
X48505294Y-99480090D01*
X48570574Y-99475788D01*
X48639255Y-99428691D01*
X48655412Y-99299949D01*
X48651827Y-99221612D01*
X48612579Y-99139195D01*
X48505294Y-99119807D01*
X48440013Y-99124109D01*
X48371332Y-99171206D01*
X48355175Y-99299949D01*
X46133426Y-99299949D01*
X46133426Y-99119807D01*
X46493710Y-99119807D01*
X46853993Y-99119807D01*
X46853993Y-98939665D01*
X47994892Y-98939665D01*
X47998477Y-99018001D01*
X48037725Y-99100418D01*
X48145010Y-99119807D01*
X48210290Y-99115505D01*
X48278971Y-99068407D01*
X48295128Y-98939665D01*
X48291543Y-98861328D01*
X48252295Y-98778911D01*
X48145010Y-98759523D01*
X48079729Y-98763825D01*
X48011049Y-98810923D01*
X47994892Y-98939665D01*
X46853993Y-98939665D01*
X46853993Y-98763512D01*
X46853988Y-98746589D01*
X46852585Y-98676703D01*
X47248771Y-98676703D01*
X47293423Y-98713482D01*
X47408844Y-98721382D01*
X47619596Y-98711350D01*
X47747752Y-98702306D01*
X47871592Y-98679530D01*
X47924006Y-98632714D01*
X47934844Y-98546220D01*
X47930204Y-98477540D01*
X47894631Y-98425056D01*
X47798304Y-98403447D01*
X47611584Y-98399239D01*
X47472833Y-98401170D01*
X47347075Y-98417645D01*
X47286756Y-98462854D01*
X47259354Y-98550791D01*
X47250327Y-98600098D01*
X47248771Y-98676703D01*
X46852585Y-98676703D01*
X46850141Y-98554942D01*
X46830140Y-98451334D01*
X46780781Y-98405760D01*
X46688863Y-98388216D01*
X46661328Y-98384441D01*
X46547740Y-98332696D01*
X46504733Y-98204086D01*
X46504111Y-98198728D01*
X46485802Y-98108773D01*
X46437849Y-98061072D01*
X46330107Y-98042256D01*
X46132434Y-98038956D01*
X45779135Y-98038956D01*
X45761127Y-98384228D01*
X45748992Y-98561320D01*
X45725462Y-98673879D01*
X45678122Y-98720376D01*
X45593000Y-98729499D01*
X45564969Y-98728744D01*
X45463610Y-98689984D01*
X45424233Y-98568007D01*
X45422069Y-98551301D01*
X45371656Y-98432810D01*
X45244091Y-98387865D01*
X45178787Y-98376603D01*
X45101107Y-98321013D01*
X45082598Y-98189074D01*
X45082609Y-98178060D01*
X45089970Y-98081094D01*
X45130725Y-98028626D01*
X45197434Y-98012737D01*
X46853993Y-98012737D01*
X46856965Y-98196195D01*
X46876623Y-98295453D01*
X46929004Y-98333211D01*
X47030147Y-98339192D01*
X47098930Y-98336114D01*
X47190823Y-98293847D01*
X47225300Y-98174062D01*
X47229836Y-98141554D01*
X47278316Y-98035667D01*
X47394419Y-98005761D01*
X47434608Y-98004671D01*
X47515182Y-97991295D01*
X47556768Y-97940973D01*
X47572262Y-97825988D01*
X47574561Y-97618625D01*
X47573241Y-97503104D01*
X47558520Y-97380060D01*
X47515220Y-97328700D01*
X47428431Y-97318388D01*
X47399623Y-97319272D01*
X47302017Y-97359402D01*
X47263301Y-97483518D01*
X47249839Y-97556461D01*
X47189221Y-97636105D01*
X47049147Y-97667465D01*
X47047333Y-97667640D01*
X46936069Y-97683904D01*
X46878615Y-97725865D01*
X46857184Y-97824987D01*
X46853993Y-98012737D01*
X45197434Y-98012737D01*
X45233738Y-98004090D01*
X45427870Y-97990924D01*
X45595476Y-97979566D01*
X45713228Y-97956624D01*
X45762926Y-97911141D01*
X45773142Y-97829782D01*
X45772419Y-97804543D01*
X45732485Y-97706763D01*
X45608012Y-97667649D01*
X45520198Y-97650798D01*
X45465720Y-97604240D01*
X45439055Y-97498595D01*
X45436869Y-97468506D01*
X45773142Y-97468506D01*
X45777444Y-97533787D01*
X45824542Y-97602468D01*
X45953284Y-97618625D01*
X46031621Y-97615040D01*
X46114038Y-97575792D01*
X46133426Y-97468506D01*
X46129124Y-97403226D01*
X46082026Y-97334545D01*
X45953284Y-97318388D01*
X45874948Y-97321973D01*
X45792530Y-97361221D01*
X45773142Y-97468506D01*
X45436869Y-97468506D01*
X45424874Y-97303376D01*
X45424204Y-97290578D01*
X45410677Y-97101840D01*
X45384959Y-97002751D01*
X45330992Y-96964457D01*
X45232717Y-96958105D01*
X45226261Y-96958109D01*
X45130684Y-96965411D01*
X45078581Y-97006154D01*
X45053892Y-97109191D01*
X45040560Y-97303376D01*
X45028424Y-97480469D01*
X45004895Y-97593028D01*
X44957554Y-97639525D01*
X44872433Y-97648648D01*
X44796802Y-97642433D01*
X44744695Y-97602791D01*
X44718642Y-97500786D01*
X44704431Y-97307564D01*
X44686548Y-96966480D01*
X44143721Y-96947280D01*
X44021910Y-96943230D01*
X43803906Y-96937472D01*
X43651205Y-96935526D01*
X43591155Y-96937856D01*
X43588872Y-96992446D01*
X43211989Y-96992446D01*
X43216877Y-96572848D01*
X44692291Y-96572848D01*
X44695502Y-96759467D01*
X44715846Y-96856168D01*
X44769449Y-96892512D01*
X44872433Y-96898057D01*
X44875188Y-96898057D01*
X44976980Y-96892172D01*
X45029726Y-96854873D01*
X45049550Y-96756602D01*
X45052575Y-96567797D01*
X45052575Y-96562747D01*
X45049364Y-96376128D01*
X45029020Y-96279426D01*
X44975417Y-96243083D01*
X44872433Y-96237537D01*
X44869678Y-96237538D01*
X44767886Y-96243423D01*
X44715140Y-96280721D01*
X44695316Y-96378993D01*
X44692291Y-96567797D01*
X44692291Y-96572848D01*
X43216877Y-96572848D01*
X43221133Y-96207514D01*
X43382625Y-96188864D01*
X43399331Y-96186700D01*
X43517823Y-96136288D01*
X43562767Y-96008722D01*
X43574029Y-95943419D01*
X43629619Y-95865738D01*
X43761558Y-95847230D01*
X43856636Y-95852749D01*
X43926821Y-95899777D01*
X43941700Y-96027372D01*
X43938553Y-96098643D01*
X43897487Y-96191461D01*
X43782925Y-96225901D01*
X43662307Y-96267609D01*
X43596368Y-96389619D01*
X43582292Y-96487353D01*
X43584816Y-96551374D01*
X43631752Y-96556613D01*
X43769352Y-96555787D01*
X43963036Y-96547628D01*
X44163891Y-96532697D01*
X44274717Y-96507039D01*
X44324718Y-96456645D01*
X44343528Y-96367486D01*
X44346452Y-96345790D01*
X44397925Y-96232120D01*
X44527161Y-96188513D01*
X44591308Y-96177849D01*
X44672892Y-96123373D01*
X44691696Y-95997348D01*
X45052575Y-95997348D01*
X45058094Y-96092426D01*
X45105122Y-96162611D01*
X45232717Y-96177490D01*
X45327795Y-96171971D01*
X45397980Y-96124942D01*
X45412859Y-95997348D01*
X45418377Y-95902270D01*
X45465406Y-95832085D01*
X45593000Y-95817206D01*
X45619819Y-95817260D01*
X45708395Y-95825914D01*
X45753920Y-95869388D01*
X45770725Y-95976106D01*
X45773142Y-96174493D01*
X45773142Y-96531780D01*
X46118414Y-96549789D01*
X46463686Y-96567797D01*
X46481036Y-97093211D01*
X46493428Y-97468506D01*
X46498385Y-97618625D01*
X46672201Y-97618625D01*
X46736873Y-97615836D01*
X46830035Y-97573878D01*
X46865017Y-97453495D01*
X46868792Y-97425960D01*
X46920536Y-97312371D01*
X47049147Y-97269364D01*
X47076985Y-97265584D01*
X47185330Y-97218806D01*
X47214277Y-97108223D01*
X47213607Y-97084183D01*
X47173745Y-96986335D01*
X47049147Y-96947081D01*
X46962653Y-96930699D01*
X46907361Y-96884722D01*
X46880347Y-96779938D01*
X46866095Y-96585719D01*
X46848174Y-96243357D01*
X46505812Y-96225435D01*
X46163450Y-96207514D01*
X46145572Y-95832218D01*
X46127695Y-95456923D01*
X45770277Y-95456923D01*
X45716860Y-95456950D01*
X45541230Y-95461319D01*
X45450966Y-95483245D01*
X45417649Y-95537052D01*
X45412859Y-95637064D01*
X45407340Y-95732143D01*
X45360311Y-95802327D01*
X45232717Y-95817206D01*
X45137639Y-95822725D01*
X45067454Y-95869754D01*
X45052575Y-95997348D01*
X44691696Y-95997348D01*
X44692291Y-95993360D01*
X44697694Y-95902098D01*
X44744738Y-95832211D01*
X44872433Y-95817206D01*
X45052575Y-95817206D01*
X45052575Y-95455568D01*
X45052575Y-95093930D01*
X46148438Y-95110296D01*
X47244301Y-95126663D01*
X47244301Y-95276781D01*
X47244264Y-95286577D01*
X47233996Y-95365008D01*
X47186420Y-95409286D01*
X47073950Y-95431760D01*
X46869005Y-95444776D01*
X46798793Y-95448197D01*
X46623780Y-95461602D01*
X46533057Y-95488426D01*
X46498931Y-95543068D01*
X46493710Y-95639930D01*
X46499146Y-95732269D01*
X46546186Y-95802238D01*
X46673851Y-95817206D01*
X46767262Y-95822500D01*
X46838670Y-95868551D01*
X46853993Y-95993544D01*
X46861273Y-96091429D01*
X46913765Y-96161438D01*
X47049147Y-96188697D01*
X47060038Y-96189754D01*
X47165918Y-96206908D01*
X47222823Y-96252078D01*
X47248876Y-96355916D01*
X47262198Y-96549075D01*
X47274316Y-96723751D01*
X47299025Y-96838185D01*
X47349929Y-96889846D01*
X47442340Y-96909359D01*
X47460548Y-96911736D01*
X47578527Y-96962264D01*
X47623234Y-97089573D01*
X47625398Y-97106279D01*
X47626225Y-97108223D01*
X47675810Y-97224771D01*
G37*
%TO.C,REF\u002A\u002A*%
X67051606Y-123483749D02*
X67077327Y-123499447D01*
X67103978Y-123521027D01*
X67103978Y-124168484D01*
X67077327Y-124190064D01*
X67045967Y-124207539D01*
X67010166Y-124208375D01*
X66978728Y-124187882D01*
X66974852Y-124183216D01*
X66969386Y-124173749D01*
X66965179Y-124160067D01*
X66962067Y-124139548D01*
X66959887Y-124109568D01*
X66958476Y-124067504D01*
X66957671Y-124010732D01*
X66957307Y-123936630D01*
X66957222Y-123842573D01*
X66957222Y-123521027D01*
X66983873Y-123499447D01*
X67007586Y-123484677D01*
X67030600Y-123477867D01*
X67051606Y-123483749D01*
G36*
X67051606Y-123483749D02*
G01*
X67077327Y-123499447D01*
X67103978Y-123521027D01*
X67103978Y-124168484D01*
X67077327Y-124190064D01*
X67045967Y-124207539D01*
X67010166Y-124208375D01*
X66978728Y-124187882D01*
X66974852Y-124183216D01*
X66969386Y-124173749D01*
X66965179Y-124160067D01*
X66962067Y-124139548D01*
X66959887Y-124109568D01*
X66958476Y-124067504D01*
X66957671Y-124010732D01*
X66957307Y-123936630D01*
X66957222Y-123842573D01*
X66957222Y-123521027D01*
X66983873Y-123499447D01*
X67007586Y-123484677D01*
X67030600Y-123477867D01*
X67051606Y-123483749D01*
G37*
X74182337Y-123482263D02*
X74216491Y-123505576D01*
X74244200Y-123533285D01*
X74244200Y-123846337D01*
X74244159Y-123930367D01*
X74243901Y-124004589D01*
X74243230Y-124061341D01*
X74241952Y-124103312D01*
X74239873Y-124133189D01*
X74236799Y-124153661D01*
X74232534Y-124167414D01*
X74226884Y-124177137D01*
X74219655Y-124185517D01*
X74188191Y-124206981D01*
X74153026Y-124208747D01*
X74120022Y-124189067D01*
X74114716Y-124183198D01*
X74109266Y-124174114D01*
X74105100Y-124160773D01*
X74102046Y-124140557D01*
X74099932Y-124110849D01*
X74098586Y-124069032D01*
X74097838Y-124012489D01*
X74097514Y-123938602D01*
X74097445Y-123844756D01*
X74097484Y-123769094D01*
X74097739Y-123691185D01*
X74098383Y-123631175D01*
X74099587Y-123586448D01*
X74101524Y-123554385D01*
X74104364Y-123532371D01*
X74108279Y-123517787D01*
X74113442Y-123508018D01*
X74120022Y-123500445D01*
X74149206Y-123481423D01*
X74182337Y-123482263D01*
G36*
X74182337Y-123482263D02*
G01*
X74216491Y-123505576D01*
X74244200Y-123533285D01*
X74244200Y-123846337D01*
X74244159Y-123930367D01*
X74243901Y-124004589D01*
X74243230Y-124061341D01*
X74241952Y-124103312D01*
X74239873Y-124133189D01*
X74236799Y-124153661D01*
X74232534Y-124167414D01*
X74226884Y-124177137D01*
X74219655Y-124185517D01*
X74188191Y-124206981D01*
X74153026Y-124208747D01*
X74120022Y-124189067D01*
X74114716Y-124183198D01*
X74109266Y-124174114D01*
X74105100Y-124160773D01*
X74102046Y-124140557D01*
X74099932Y-124110849D01*
X74098586Y-124069032D01*
X74097838Y-124012489D01*
X74097514Y-123938602D01*
X74097445Y-123844756D01*
X74097484Y-123769094D01*
X74097739Y-123691185D01*
X74098383Y-123631175D01*
X74099587Y-123586448D01*
X74101524Y-123554385D01*
X74104364Y-123532371D01*
X74108279Y-123517787D01*
X74113442Y-123508018D01*
X74120022Y-123500445D01*
X74149206Y-123481423D01*
X74182337Y-123482263D01*
G37*
X73650762Y-118241650D02*
X73733513Y-118268853D01*
X73808606Y-118314284D01*
X73880498Y-118380102D01*
X73919046Y-118424367D01*
X73958456Y-118482761D01*
X73983646Y-118543386D01*
X73997061Y-118612665D01*
X74001148Y-118697022D01*
X74000869Y-118743107D01*
X73998660Y-118784250D01*
X73993094Y-118816382D01*
X73982786Y-118846922D01*
X73966348Y-118883289D01*
X73952400Y-118910528D01*
X73893865Y-118996229D01*
X73821819Y-119065417D01*
X73738147Y-119116541D01*
X73644731Y-119148050D01*
X73611634Y-119155025D01*
X73571160Y-119161894D01*
X73538199Y-119163719D01*
X73503898Y-119160747D01*
X73459400Y-119153226D01*
X73408134Y-119140802D01*
X73317634Y-119102912D01*
X73238545Y-119048636D01*
X73172728Y-118980570D01*
X73122040Y-118901311D01*
X73088340Y-118813454D01*
X73073486Y-118719595D01*
X73079336Y-118622330D01*
X73105599Y-118526020D01*
X73150618Y-118437294D01*
X73211573Y-118362219D01*
X73286384Y-118302441D01*
X73372968Y-118259609D01*
X73469243Y-118235371D01*
X73573128Y-118231376D01*
X73650762Y-118241650D01*
G36*
X73650762Y-118241650D02*
G01*
X73733513Y-118268853D01*
X73808606Y-118314284D01*
X73880498Y-118380102D01*
X73919046Y-118424367D01*
X73958456Y-118482761D01*
X73983646Y-118543386D01*
X73997061Y-118612665D01*
X74001148Y-118697022D01*
X74000869Y-118743107D01*
X73998660Y-118784250D01*
X73993094Y-118816382D01*
X73982786Y-118846922D01*
X73966348Y-118883289D01*
X73952400Y-118910528D01*
X73893865Y-118996229D01*
X73821819Y-119065417D01*
X73738147Y-119116541D01*
X73644731Y-119148050D01*
X73611634Y-119155025D01*
X73571160Y-119161894D01*
X73538199Y-119163719D01*
X73503898Y-119160747D01*
X73459400Y-119153226D01*
X73408134Y-119140802D01*
X73317634Y-119102912D01*
X73238545Y-119048636D01*
X73172728Y-118980570D01*
X73122040Y-118901311D01*
X73088340Y-118813454D01*
X73073486Y-118719595D01*
X73079336Y-118622330D01*
X73105599Y-118526020D01*
X73150618Y-118437294D01*
X73211573Y-118362219D01*
X73286384Y-118302441D01*
X73372968Y-118259609D01*
X73469243Y-118235371D01*
X73573128Y-118231376D01*
X73650762Y-118241650D01*
G37*
X66351967Y-123477868D02*
X66446090Y-123477958D01*
X66520605Y-123478298D01*
X66578011Y-123479039D01*
X66620811Y-123480335D01*
X66651504Y-123482337D01*
X66672591Y-123485196D01*
X66686573Y-123489066D01*
X66695950Y-123494098D01*
X66703222Y-123500445D01*
X66722028Y-123533162D01*
X66723475Y-123570739D01*
X66707117Y-123603978D01*
X66705757Y-123605431D01*
X66694554Y-123613792D01*
X66677452Y-123619347D01*
X66650282Y-123622640D01*
X66608878Y-123624218D01*
X66549073Y-123624622D01*
X66409711Y-123624622D01*
X66409711Y-123888389D01*
X66409636Y-123964217D01*
X66409228Y-124030883D01*
X66408246Y-124080667D01*
X66406450Y-124116584D01*
X66403599Y-124141650D01*
X66399453Y-124158881D01*
X66393771Y-124171292D01*
X66386314Y-124181900D01*
X66384024Y-124184706D01*
X66352846Y-124207348D01*
X66318466Y-124208912D01*
X66285534Y-124189067D01*
X66278555Y-124180991D01*
X66273083Y-124170393D01*
X66269063Y-124154549D01*
X66266272Y-124130573D01*
X66264488Y-124095574D01*
X66263489Y-124046664D01*
X66263052Y-123980954D01*
X66262956Y-123895556D01*
X66262956Y-123624622D01*
X66117020Y-123624622D01*
X66105920Y-123624621D01*
X66049402Y-123624396D01*
X66010558Y-123623257D01*
X65985165Y-123620457D01*
X65969004Y-123615250D01*
X65957852Y-123606889D01*
X65947489Y-123594626D01*
X65931641Y-123563938D01*
X65934743Y-123530158D01*
X65960387Y-123497622D01*
X65965329Y-123493905D01*
X65975538Y-123489069D01*
X65990964Y-123485306D01*
X66014086Y-123482483D01*
X66047383Y-123480470D01*
X66093337Y-123479133D01*
X66154428Y-123478342D01*
X66233135Y-123477963D01*
X66331940Y-123477867D01*
X66351967Y-123477868D01*
G36*
X66351967Y-123477868D02*
G01*
X66446090Y-123477958D01*
X66520605Y-123478298D01*
X66578011Y-123479039D01*
X66620811Y-123480335D01*
X66651504Y-123482337D01*
X66672591Y-123485196D01*
X66686573Y-123489066D01*
X66695950Y-123494098D01*
X66703222Y-123500445D01*
X66722028Y-123533162D01*
X66723475Y-123570739D01*
X66707117Y-123603978D01*
X66705757Y-123605431D01*
X66694554Y-123613792D01*
X66677452Y-123619347D01*
X66650282Y-123622640D01*
X66608878Y-123624218D01*
X66549073Y-123624622D01*
X66409711Y-123624622D01*
X66409711Y-123888389D01*
X66409636Y-123964217D01*
X66409228Y-124030883D01*
X66408246Y-124080667D01*
X66406450Y-124116584D01*
X66403599Y-124141650D01*
X66399453Y-124158881D01*
X66393771Y-124171292D01*
X66386314Y-124181900D01*
X66384024Y-124184706D01*
X66352846Y-124207348D01*
X66318466Y-124208912D01*
X66285534Y-124189067D01*
X66278555Y-124180991D01*
X66273083Y-124170393D01*
X66269063Y-124154549D01*
X66266272Y-124130573D01*
X66264488Y-124095574D01*
X66263489Y-124046664D01*
X66263052Y-123980954D01*
X66262956Y-123895556D01*
X66262956Y-123624622D01*
X66117020Y-123624622D01*
X66105920Y-123624621D01*
X66049402Y-123624396D01*
X66010558Y-123623257D01*
X65985165Y-123620457D01*
X65969004Y-123615250D01*
X65957852Y-123606889D01*
X65947489Y-123594626D01*
X65931641Y-123563938D01*
X65934743Y-123530158D01*
X65960387Y-123497622D01*
X65965329Y-123493905D01*
X65975538Y-123489069D01*
X65990964Y-123485306D01*
X66014086Y-123482483D01*
X66047383Y-123480470D01*
X66093337Y-123479133D01*
X66154428Y-123478342D01*
X66233135Y-123477963D01*
X66331940Y-123477867D01*
X66351967Y-123477868D01*
G37*
X65675934Y-123500445D02*
X65681566Y-123506635D01*
X65686656Y-123514841D01*
X65690743Y-123526617D01*
X65693921Y-123544076D01*
X65696287Y-123569330D01*
X65697938Y-123604490D01*
X65698969Y-123651669D01*
X65699477Y-123712977D01*
X65699559Y-123790527D01*
X65699309Y-123886431D01*
X65698825Y-124002800D01*
X65698757Y-124016975D01*
X65698171Y-124078737D01*
X65696848Y-124122420D01*
X65694303Y-124151801D01*
X65690048Y-124170655D01*
X65683596Y-124182759D01*
X65674462Y-124191889D01*
X65641004Y-124209306D01*
X65606056Y-124206404D01*
X65575153Y-124181900D01*
X65566144Y-124168697D01*
X65558692Y-124150161D01*
X65554324Y-124124133D01*
X65552269Y-124085587D01*
X65551756Y-124029500D01*
X65551756Y-123906845D01*
X65055045Y-123906845D01*
X65055045Y-124041671D01*
X65054972Y-124077462D01*
X65054209Y-124123792D01*
X65052033Y-124154326D01*
X65047736Y-124173357D01*
X65040612Y-124185174D01*
X65029955Y-124194071D01*
X64997704Y-124209141D01*
X64962417Y-124206473D01*
X64931686Y-124181900D01*
X64927031Y-124175645D01*
X64921095Y-124165121D01*
X64916564Y-124151191D01*
X64913248Y-124131117D01*
X64910959Y-124102160D01*
X64909508Y-124061580D01*
X64908705Y-124006640D01*
X64908362Y-123934599D01*
X64908289Y-123842720D01*
X64908289Y-123533285D01*
X64935998Y-123505576D01*
X64967377Y-123483333D01*
X65000606Y-123480644D01*
X65032467Y-123500445D01*
X65040753Y-123510215D01*
X65048165Y-123526107D01*
X65052502Y-123550075D01*
X65054538Y-123586948D01*
X65055045Y-123641556D01*
X65055045Y-123760089D01*
X65551756Y-123760089D01*
X65551756Y-123644576D01*
X65552194Y-123592878D01*
X65554158Y-123558354D01*
X65558674Y-123535778D01*
X65566767Y-123519926D01*
X65579465Y-123505576D01*
X65610843Y-123483333D01*
X65644072Y-123480644D01*
X65675934Y-123500445D01*
G36*
X65675934Y-123500445D02*
G01*
X65681566Y-123506635D01*
X65686656Y-123514841D01*
X65690743Y-123526617D01*
X65693921Y-123544076D01*
X65696287Y-123569330D01*
X65697938Y-123604490D01*
X65698969Y-123651669D01*
X65699477Y-123712977D01*
X65699559Y-123790527D01*
X65699309Y-123886431D01*
X65698825Y-124002800D01*
X65698757Y-124016975D01*
X65698171Y-124078737D01*
X65696848Y-124122420D01*
X65694303Y-124151801D01*
X65690048Y-124170655D01*
X65683596Y-124182759D01*
X65674462Y-124191889D01*
X65641004Y-124209306D01*
X65606056Y-124206404D01*
X65575153Y-124181900D01*
X65566144Y-124168697D01*
X65558692Y-124150161D01*
X65554324Y-124124133D01*
X65552269Y-124085587D01*
X65551756Y-124029500D01*
X65551756Y-123906845D01*
X65055045Y-123906845D01*
X65055045Y-124041671D01*
X65054972Y-124077462D01*
X65054209Y-124123792D01*
X65052033Y-124154326D01*
X65047736Y-124173357D01*
X65040612Y-124185174D01*
X65029955Y-124194071D01*
X64997704Y-124209141D01*
X64962417Y-124206473D01*
X64931686Y-124181900D01*
X64927031Y-124175645D01*
X64921095Y-124165121D01*
X64916564Y-124151191D01*
X64913248Y-124131117D01*
X64910959Y-124102160D01*
X64909508Y-124061580D01*
X64908705Y-124006640D01*
X64908362Y-123934599D01*
X64908289Y-123842720D01*
X64908289Y-123533285D01*
X64935998Y-123505576D01*
X64967377Y-123483333D01*
X65000606Y-123480644D01*
X65032467Y-123500445D01*
X65040753Y-123510215D01*
X65048165Y-123526107D01*
X65052502Y-123550075D01*
X65054538Y-123586948D01*
X65055045Y-123641556D01*
X65055045Y-123760089D01*
X65551756Y-123760089D01*
X65551756Y-123644576D01*
X65552194Y-123592878D01*
X65554158Y-123558354D01*
X65558674Y-123535778D01*
X65566767Y-123519926D01*
X65579465Y-123505576D01*
X65610843Y-123483333D01*
X65644072Y-123480644D01*
X65675934Y-123500445D01*
G37*
X70381333Y-124089196D02*
X70379363Y-124121975D01*
X70376435Y-124144895D01*
X70372358Y-124160697D01*
X70366943Y-124172119D01*
X70360003Y-124181900D01*
X70336606Y-124211645D01*
X70170914Y-124211051D01*
X70136118Y-124210753D01*
X70037635Y-124207322D01*
X69956673Y-124199639D01*
X69889579Y-124187082D01*
X69832696Y-124169027D01*
X69782369Y-124144852D01*
X69779010Y-124142935D01*
X69721198Y-124106217D01*
X69678844Y-124069251D01*
X69646028Y-124025766D01*
X69616828Y-123969489D01*
X69612546Y-123959873D01*
X69589969Y-123896687D01*
X69584234Y-123851133D01*
X69733479Y-123851133D01*
X69739092Y-123875861D01*
X69744818Y-123891739D01*
X69777748Y-123951647D01*
X69825086Y-123997400D01*
X69888852Y-124030536D01*
X69971061Y-124052590D01*
X69973855Y-124053092D01*
X70020140Y-124059055D01*
X70076536Y-124063283D01*
X70131474Y-124064889D01*
X70225356Y-124064889D01*
X70225356Y-123624622D01*
X70137867Y-123625070D01*
X70070947Y-123627546D01*
X69978549Y-123638798D01*
X69899234Y-123658337D01*
X69837260Y-123685311D01*
X69806320Y-123706040D01*
X69778200Y-123735806D01*
X69754860Y-123778234D01*
X69747733Y-123794200D01*
X69735909Y-123826702D01*
X69733479Y-123851133D01*
X69584234Y-123851133D01*
X69582997Y-123841309D01*
X69591599Y-123786283D01*
X69615741Y-123724151D01*
X69616537Y-123722458D01*
X69656988Y-123653036D01*
X69707673Y-123596438D01*
X69770398Y-123551870D01*
X69846974Y-123518541D01*
X69939209Y-123495661D01*
X70048912Y-123482436D01*
X70177891Y-123478075D01*
X70181463Y-123478070D01*
X70241483Y-123478210D01*
X70283414Y-123479246D01*
X70311528Y-123481840D01*
X70330097Y-123486653D01*
X70343394Y-123494344D01*
X70355691Y-123505576D01*
X70383400Y-123533285D01*
X70383400Y-123842720D01*
X70383375Y-123904326D01*
X70383150Y-123983111D01*
X70382532Y-124043821D01*
X70381975Y-124064889D01*
X70381333Y-124089196D01*
G36*
X70381333Y-124089196D02*
G01*
X70379363Y-124121975D01*
X70376435Y-124144895D01*
X70372358Y-124160697D01*
X70366943Y-124172119D01*
X70360003Y-124181900D01*
X70336606Y-124211645D01*
X70170914Y-124211051D01*
X70136118Y-124210753D01*
X70037635Y-124207322D01*
X69956673Y-124199639D01*
X69889579Y-124187082D01*
X69832696Y-124169027D01*
X69782369Y-124144852D01*
X69779010Y-124142935D01*
X69721198Y-124106217D01*
X69678844Y-124069251D01*
X69646028Y-124025766D01*
X69616828Y-123969489D01*
X69612546Y-123959873D01*
X69589969Y-123896687D01*
X69584234Y-123851133D01*
X69733479Y-123851133D01*
X69739092Y-123875861D01*
X69744818Y-123891739D01*
X69777748Y-123951647D01*
X69825086Y-123997400D01*
X69888852Y-124030536D01*
X69971061Y-124052590D01*
X69973855Y-124053092D01*
X70020140Y-124059055D01*
X70076536Y-124063283D01*
X70131474Y-124064889D01*
X70225356Y-124064889D01*
X70225356Y-123624622D01*
X70137867Y-123625070D01*
X70070947Y-123627546D01*
X69978549Y-123638798D01*
X69899234Y-123658337D01*
X69837260Y-123685311D01*
X69806320Y-123706040D01*
X69778200Y-123735806D01*
X69754860Y-123778234D01*
X69747733Y-123794200D01*
X69735909Y-123826702D01*
X69733479Y-123851133D01*
X69584234Y-123851133D01*
X69582997Y-123841309D01*
X69591599Y-123786283D01*
X69615741Y-123724151D01*
X69616537Y-123722458D01*
X69656988Y-123653036D01*
X69707673Y-123596438D01*
X69770398Y-123551870D01*
X69846974Y-123518541D01*
X69939209Y-123495661D01*
X70048912Y-123482436D01*
X70177891Y-123478075D01*
X70181463Y-123478070D01*
X70241483Y-123478210D01*
X70283414Y-123479246D01*
X70311528Y-123481840D01*
X70330097Y-123486653D01*
X70343394Y-123494344D01*
X70355691Y-123505576D01*
X70383400Y-123533285D01*
X70383400Y-123842720D01*
X70383375Y-123904326D01*
X70383150Y-123983111D01*
X70382532Y-124043821D01*
X70381975Y-124064889D01*
X70381333Y-124089196D01*
G37*
X77473017Y-123663227D02*
X77473070Y-123743841D01*
X77472822Y-123844756D01*
X77472783Y-123920417D01*
X77472528Y-123998326D01*
X77471884Y-124058336D01*
X77470680Y-124103064D01*
X77468743Y-124135126D01*
X77465903Y-124157140D01*
X77461988Y-124171724D01*
X77456826Y-124181494D01*
X77450245Y-124189067D01*
X77443277Y-124195301D01*
X77430279Y-124202601D01*
X77411131Y-124207354D01*
X77381728Y-124210092D01*
X77337962Y-124211345D01*
X77275728Y-124211645D01*
X77226782Y-124211269D01*
X77119922Y-124206841D01*
X77030694Y-124196753D01*
X76955896Y-124180165D01*
X76892325Y-124156235D01*
X76836779Y-124124121D01*
X76786054Y-124082982D01*
X76780066Y-124077130D01*
X76743199Y-124028621D01*
X76712099Y-123967813D01*
X76690617Y-123903569D01*
X76685336Y-123864826D01*
X76832553Y-123864826D01*
X76850835Y-123915761D01*
X76880505Y-123961678D01*
X76927202Y-124004087D01*
X76988592Y-124033890D01*
X77067738Y-124053026D01*
X77069228Y-124053264D01*
X77118199Y-124059056D01*
X77176893Y-124063196D01*
X77232934Y-124064804D01*
X77326067Y-124064889D01*
X77326067Y-123624622D01*
X77249867Y-123624608D01*
X77246839Y-123624617D01*
X77195719Y-123626582D01*
X77135616Y-123631307D01*
X77078908Y-123637835D01*
X77028950Y-123647131D01*
X76954198Y-123673400D01*
X76896689Y-123712699D01*
X76855188Y-123765733D01*
X76833971Y-123817000D01*
X76832553Y-123864826D01*
X76685336Y-123864826D01*
X76682600Y-123844756D01*
X76683879Y-123823539D01*
X76696191Y-123766123D01*
X76718720Y-123706213D01*
X76747950Y-123652163D01*
X76780367Y-123612332D01*
X76799908Y-123595310D01*
X76854620Y-123556122D01*
X76914923Y-123525993D01*
X76984119Y-123504032D01*
X77065511Y-123489350D01*
X77162400Y-123481059D01*
X77278089Y-123478267D01*
X77317571Y-123477866D01*
X77363282Y-123477453D01*
X77399083Y-123479257D01*
X77426174Y-123485539D01*
X77445756Y-123498559D01*
X77459030Y-123520578D01*
X77467198Y-123553855D01*
X77471460Y-123600651D01*
X77472057Y-123624622D01*
X77473017Y-123663227D01*
G36*
X77473017Y-123663227D02*
G01*
X77473070Y-123743841D01*
X77472822Y-123844756D01*
X77472783Y-123920417D01*
X77472528Y-123998326D01*
X77471884Y-124058336D01*
X77470680Y-124103064D01*
X77468743Y-124135126D01*
X77465903Y-124157140D01*
X77461988Y-124171724D01*
X77456826Y-124181494D01*
X77450245Y-124189067D01*
X77443277Y-124195301D01*
X77430279Y-124202601D01*
X77411131Y-124207354D01*
X77381728Y-124210092D01*
X77337962Y-124211345D01*
X77275728Y-124211645D01*
X77226782Y-124211269D01*
X77119922Y-124206841D01*
X77030694Y-124196753D01*
X76955896Y-124180165D01*
X76892325Y-124156235D01*
X76836779Y-124124121D01*
X76786054Y-124082982D01*
X76780066Y-124077130D01*
X76743199Y-124028621D01*
X76712099Y-123967813D01*
X76690617Y-123903569D01*
X76685336Y-123864826D01*
X76832553Y-123864826D01*
X76850835Y-123915761D01*
X76880505Y-123961678D01*
X76927202Y-124004087D01*
X76988592Y-124033890D01*
X77067738Y-124053026D01*
X77069228Y-124053264D01*
X77118199Y-124059056D01*
X77176893Y-124063196D01*
X77232934Y-124064804D01*
X77326067Y-124064889D01*
X77326067Y-123624622D01*
X77249867Y-123624608D01*
X77246839Y-123624617D01*
X77195719Y-123626582D01*
X77135616Y-123631307D01*
X77078908Y-123637835D01*
X77028950Y-123647131D01*
X76954198Y-123673400D01*
X76896689Y-123712699D01*
X76855188Y-123765733D01*
X76833971Y-123817000D01*
X76832553Y-123864826D01*
X76685336Y-123864826D01*
X76682600Y-123844756D01*
X76683879Y-123823539D01*
X76696191Y-123766123D01*
X76718720Y-123706213D01*
X76747950Y-123652163D01*
X76780367Y-123612332D01*
X76799908Y-123595310D01*
X76854620Y-123556122D01*
X76914923Y-123525993D01*
X76984119Y-123504032D01*
X77065511Y-123489350D01*
X77162400Y-123481059D01*
X77278089Y-123478267D01*
X77317571Y-123477866D01*
X77363282Y-123477453D01*
X77399083Y-123479257D01*
X77426174Y-123485539D01*
X77445756Y-123498559D01*
X77459030Y-123520578D01*
X77467198Y-123553855D01*
X77471460Y-123600651D01*
X77472057Y-123624622D01*
X77473017Y-123663227D01*
G37*
X72528093Y-123476692D02*
X72539501Y-123482829D01*
X72550050Y-123493491D01*
X72561336Y-123507611D01*
X72565789Y-123513572D01*
X72571788Y-123524068D01*
X72576367Y-123537893D01*
X72579719Y-123557798D01*
X72582033Y-123586532D01*
X72583501Y-123626845D01*
X72584313Y-123681487D01*
X72584660Y-123753207D01*
X72584734Y-123844756D01*
X72584711Y-123903286D01*
X72584492Y-123982373D01*
X72583883Y-124043316D01*
X72582692Y-124088862D01*
X72580729Y-124121763D01*
X72577803Y-124144768D01*
X72573723Y-124160626D01*
X72568297Y-124172086D01*
X72561336Y-124181900D01*
X72530908Y-124206293D01*
X72495965Y-124209172D01*
X72458984Y-124190082D01*
X72454800Y-124186607D01*
X72446624Y-124178079D01*
X72440564Y-124166528D01*
X72436181Y-124148696D01*
X72433039Y-124121324D01*
X72430702Y-124081154D01*
X72428731Y-124024928D01*
X72426689Y-123949389D01*
X72421045Y-123730258D01*
X72155756Y-123970899D01*
X72081922Y-124037675D01*
X72016742Y-124095791D01*
X71964548Y-124140749D01*
X71923473Y-124173671D01*
X71891655Y-124195679D01*
X71867226Y-124207894D01*
X71848324Y-124211439D01*
X71833083Y-124207436D01*
X71819639Y-124197007D01*
X71806127Y-124181274D01*
X71799882Y-124172791D01*
X71794250Y-124162213D01*
X71790039Y-124148055D01*
X71787087Y-124127603D01*
X71785232Y-124098142D01*
X71784313Y-124056961D01*
X71784168Y-124001344D01*
X71784635Y-123928579D01*
X71785552Y-123835951D01*
X71788867Y-123520999D01*
X71815518Y-123499433D01*
X71841583Y-123483241D01*
X71874441Y-123480470D01*
X71908972Y-123499423D01*
X71913284Y-123503008D01*
X71921416Y-123511537D01*
X71927445Y-123523129D01*
X71931806Y-123541035D01*
X71934934Y-123568506D01*
X71937263Y-123608794D01*
X71939229Y-123665151D01*
X71941267Y-123740829D01*
X71946911Y-123960678D01*
X72127534Y-123796884D01*
X72214272Y-123718251D01*
X72290043Y-123649858D01*
X72352180Y-123594508D01*
X72402278Y-123551138D01*
X72441935Y-123518681D01*
X72472748Y-123496073D01*
X72496314Y-123482248D01*
X72514230Y-123476143D01*
X72528093Y-123476692D01*
G36*
X72528093Y-123476692D02*
G01*
X72539501Y-123482829D01*
X72550050Y-123493491D01*
X72561336Y-123507611D01*
X72565789Y-123513572D01*
X72571788Y-123524068D01*
X72576367Y-123537893D01*
X72579719Y-123557798D01*
X72582033Y-123586532D01*
X72583501Y-123626845D01*
X72584313Y-123681487D01*
X72584660Y-123753207D01*
X72584734Y-123844756D01*
X72584711Y-123903286D01*
X72584492Y-123982373D01*
X72583883Y-124043316D01*
X72582692Y-124088862D01*
X72580729Y-124121763D01*
X72577803Y-124144768D01*
X72573723Y-124160626D01*
X72568297Y-124172086D01*
X72561336Y-124181900D01*
X72530908Y-124206293D01*
X72495965Y-124209172D01*
X72458984Y-124190082D01*
X72454800Y-124186607D01*
X72446624Y-124178079D01*
X72440564Y-124166528D01*
X72436181Y-124148696D01*
X72433039Y-124121324D01*
X72430702Y-124081154D01*
X72428731Y-124024928D01*
X72426689Y-123949389D01*
X72421045Y-123730258D01*
X72155756Y-123970899D01*
X72081922Y-124037675D01*
X72016742Y-124095791D01*
X71964548Y-124140749D01*
X71923473Y-124173671D01*
X71891655Y-124195679D01*
X71867226Y-124207894D01*
X71848324Y-124211439D01*
X71833083Y-124207436D01*
X71819639Y-124197007D01*
X71806127Y-124181274D01*
X71799882Y-124172791D01*
X71794250Y-124162213D01*
X71790039Y-124148055D01*
X71787087Y-124127603D01*
X71785232Y-124098142D01*
X71784313Y-124056961D01*
X71784168Y-124001344D01*
X71784635Y-123928579D01*
X71785552Y-123835951D01*
X71788867Y-123520999D01*
X71815518Y-123499433D01*
X71841583Y-123483241D01*
X71874441Y-123480470D01*
X71908972Y-123499423D01*
X71913284Y-123503008D01*
X71921416Y-123511537D01*
X71927445Y-123523129D01*
X71931806Y-123541035D01*
X71934934Y-123568506D01*
X71937263Y-123608794D01*
X71939229Y-123665151D01*
X71941267Y-123740829D01*
X71946911Y-123960678D01*
X72127534Y-123796884D01*
X72214272Y-123718251D01*
X72290043Y-123649858D01*
X72352180Y-123594508D01*
X72402278Y-123551138D01*
X72441935Y-123518681D01*
X72472748Y-123496073D01*
X72496314Y-123482248D01*
X72514230Y-123476143D01*
X72528093Y-123476692D01*
G37*
X73325350Y-123482979D02*
X73431357Y-123499294D01*
X73525169Y-123527345D01*
X73603965Y-123566252D01*
X73664919Y-123615134D01*
X73690989Y-123647995D01*
X73720497Y-123697194D01*
X73745768Y-123751052D01*
X73763418Y-123802219D01*
X73770058Y-123843344D01*
X73768498Y-123863059D01*
X73755557Y-123914392D01*
X73732394Y-123970918D01*
X73702502Y-124024835D01*
X73669373Y-124068339D01*
X73659177Y-124078687D01*
X73592092Y-124130462D01*
X73511966Y-124170354D01*
X73425756Y-124194756D01*
X73370792Y-124202868D01*
X73277339Y-124209473D01*
X73187558Y-124207386D01*
X73105069Y-124197140D01*
X73033486Y-124179270D01*
X72976428Y-124154308D01*
X72937511Y-124122788D01*
X72936136Y-124120812D01*
X72929048Y-124095586D01*
X72924809Y-124048335D01*
X72923400Y-123978871D01*
X72924260Y-123916638D01*
X72928980Y-123869256D01*
X72940670Y-123837153D01*
X72962439Y-123817600D01*
X72997398Y-123807870D01*
X73048656Y-123805233D01*
X73119323Y-123806961D01*
X73167943Y-123809973D01*
X73218139Y-123818166D01*
X73250633Y-123832219D01*
X73268092Y-123853454D01*
X73273183Y-123883194D01*
X73273077Y-123887736D01*
X73264375Y-123922530D01*
X73240365Y-123945947D01*
X73199100Y-123959147D01*
X73138631Y-123963289D01*
X73070156Y-123963289D01*
X73070156Y-124001641D01*
X73070206Y-124010776D01*
X73072427Y-124028027D01*
X73081694Y-124038321D01*
X73103075Y-124045259D01*
X73141636Y-124052441D01*
X73147110Y-124053375D01*
X73244060Y-124063278D01*
X73334052Y-124060359D01*
X73414960Y-124045629D01*
X73484659Y-124020099D01*
X73541024Y-123984778D01*
X73581929Y-123940679D01*
X73605251Y-123888812D01*
X73608863Y-123830188D01*
X73603345Y-123801294D01*
X73576661Y-123745404D01*
X73530473Y-123699745D01*
X73465491Y-123664908D01*
X73382429Y-123641490D01*
X73357755Y-123637041D01*
X73268426Y-123626542D01*
X73188619Y-123627771D01*
X73110526Y-123640706D01*
X73075383Y-123647496D01*
X73029945Y-123648513D01*
X72998630Y-123635982D01*
X72978477Y-123609195D01*
X72972093Y-123580948D01*
X72981579Y-123549724D01*
X72990908Y-123536299D01*
X73025143Y-123512767D01*
X73077765Y-123494895D01*
X73146281Y-123483399D01*
X73228200Y-123478992D01*
X73325350Y-123482979D01*
G36*
X73325350Y-123482979D02*
G01*
X73431357Y-123499294D01*
X73525169Y-123527345D01*
X73603965Y-123566252D01*
X73664919Y-123615134D01*
X73690989Y-123647995D01*
X73720497Y-123697194D01*
X73745768Y-123751052D01*
X73763418Y-123802219D01*
X73770058Y-123843344D01*
X73768498Y-123863059D01*
X73755557Y-123914392D01*
X73732394Y-123970918D01*
X73702502Y-124024835D01*
X73669373Y-124068339D01*
X73659177Y-124078687D01*
X73592092Y-124130462D01*
X73511966Y-124170354D01*
X73425756Y-124194756D01*
X73370792Y-124202868D01*
X73277339Y-124209473D01*
X73187558Y-124207386D01*
X73105069Y-124197140D01*
X73033486Y-124179270D01*
X72976428Y-124154308D01*
X72937511Y-124122788D01*
X72936136Y-124120812D01*
X72929048Y-124095586D01*
X72924809Y-124048335D01*
X72923400Y-123978871D01*
X72924260Y-123916638D01*
X72928980Y-123869256D01*
X72940670Y-123837153D01*
X72962439Y-123817600D01*
X72997398Y-123807870D01*
X73048656Y-123805233D01*
X73119323Y-123806961D01*
X73167943Y-123809973D01*
X73218139Y-123818166D01*
X73250633Y-123832219D01*
X73268092Y-123853454D01*
X73273183Y-123883194D01*
X73273077Y-123887736D01*
X73264375Y-123922530D01*
X73240365Y-123945947D01*
X73199100Y-123959147D01*
X73138631Y-123963289D01*
X73070156Y-123963289D01*
X73070156Y-124001641D01*
X73070206Y-124010776D01*
X73072427Y-124028027D01*
X73081694Y-124038321D01*
X73103075Y-124045259D01*
X73141636Y-124052441D01*
X73147110Y-124053375D01*
X73244060Y-124063278D01*
X73334052Y-124060359D01*
X73414960Y-124045629D01*
X73484659Y-124020099D01*
X73541024Y-123984778D01*
X73581929Y-123940679D01*
X73605251Y-123888812D01*
X73608863Y-123830188D01*
X73603345Y-123801294D01*
X73576661Y-123745404D01*
X73530473Y-123699745D01*
X73465491Y-123664908D01*
X73382429Y-123641490D01*
X73357755Y-123637041D01*
X73268426Y-123626542D01*
X73188619Y-123627771D01*
X73110526Y-123640706D01*
X73075383Y-123647496D01*
X73029945Y-123648513D01*
X72998630Y-123635982D01*
X72978477Y-123609195D01*
X72972093Y-123580948D01*
X72981579Y-123549724D01*
X72990908Y-123536299D01*
X73025143Y-123512767D01*
X73077765Y-123494895D01*
X73146281Y-123483399D01*
X73228200Y-123478992D01*
X73325350Y-123482979D01*
G37*
X71376003Y-123507611D02*
X71380952Y-123514295D01*
X71386796Y-123524866D01*
X71391257Y-123538953D01*
X71394521Y-123559278D01*
X71396774Y-123588565D01*
X71398202Y-123629537D01*
X71398992Y-123684917D01*
X71399329Y-123757428D01*
X71399400Y-123849794D01*
X71399371Y-123915711D01*
X71399139Y-123994028D01*
X71398519Y-124054296D01*
X71397326Y-124099193D01*
X71395379Y-124131402D01*
X71392494Y-124153600D01*
X71388488Y-124168469D01*
X71383179Y-124178689D01*
X71376383Y-124186938D01*
X71371868Y-124191595D01*
X71363638Y-124198082D01*
X71352278Y-124202994D01*
X71335010Y-124206549D01*
X71309055Y-124208967D01*
X71271636Y-124210467D01*
X71219973Y-124211267D01*
X71151289Y-124211587D01*
X71062806Y-124211645D01*
X71043131Y-124211638D01*
X70956106Y-124211372D01*
X70888454Y-124210606D01*
X70837499Y-124209192D01*
X70800567Y-124206980D01*
X70774983Y-124203822D01*
X70758071Y-124199569D01*
X70747157Y-124194071D01*
X70736664Y-124184085D01*
X70723403Y-124152968D01*
X70724586Y-124117080D01*
X70740750Y-124085533D01*
X70742939Y-124083257D01*
X70751627Y-124076989D01*
X70764969Y-124072323D01*
X70785952Y-124069027D01*
X70817563Y-124066868D01*
X70862790Y-124065614D01*
X70924620Y-124065031D01*
X71006039Y-124064889D01*
X71252645Y-124064889D01*
X71252645Y-123906845D01*
X71090206Y-123906845D01*
X71054538Y-123906764D01*
X70998768Y-123905967D01*
X70959630Y-123903962D01*
X70933176Y-123900321D01*
X70915459Y-123894612D01*
X70902529Y-123886407D01*
X70898886Y-123883223D01*
X70880478Y-123852248D01*
X70879844Y-123815912D01*
X70897383Y-123782293D01*
X70897445Y-123782224D01*
X70907116Y-123773598D01*
X70920409Y-123767542D01*
X70941117Y-123763611D01*
X70973028Y-123761356D01*
X71019934Y-123760331D01*
X71085624Y-123760089D01*
X71253771Y-123760089D01*
X71250386Y-123695178D01*
X71247000Y-123630267D01*
X71004923Y-123627214D01*
X70979907Y-123626886D01*
X70898287Y-123625406D01*
X70835968Y-123623022D01*
X70790354Y-123619027D01*
X70758852Y-123612713D01*
X70738867Y-123603374D01*
X70727804Y-123590303D01*
X70723069Y-123572792D01*
X70722067Y-123550135D01*
X70722073Y-123547770D01*
X70723227Y-123527739D01*
X70728024Y-123511946D01*
X70738832Y-123499890D01*
X70758017Y-123491067D01*
X70787945Y-123484975D01*
X70830983Y-123481111D01*
X70889499Y-123478974D01*
X70965857Y-123478060D01*
X71062426Y-123477867D01*
X71352606Y-123477867D01*
X71376003Y-123507611D01*
G36*
X71376003Y-123507611D02*
G01*
X71380952Y-123514295D01*
X71386796Y-123524866D01*
X71391257Y-123538953D01*
X71394521Y-123559278D01*
X71396774Y-123588565D01*
X71398202Y-123629537D01*
X71398992Y-123684917D01*
X71399329Y-123757428D01*
X71399400Y-123849794D01*
X71399371Y-123915711D01*
X71399139Y-123994028D01*
X71398519Y-124054296D01*
X71397326Y-124099193D01*
X71395379Y-124131402D01*
X71392494Y-124153600D01*
X71388488Y-124168469D01*
X71383179Y-124178689D01*
X71376383Y-124186938D01*
X71371868Y-124191595D01*
X71363638Y-124198082D01*
X71352278Y-124202994D01*
X71335010Y-124206549D01*
X71309055Y-124208967D01*
X71271636Y-124210467D01*
X71219973Y-124211267D01*
X71151289Y-124211587D01*
X71062806Y-124211645D01*
X71043131Y-124211638D01*
X70956106Y-124211372D01*
X70888454Y-124210606D01*
X70837499Y-124209192D01*
X70800567Y-124206980D01*
X70774983Y-124203822D01*
X70758071Y-124199569D01*
X70747157Y-124194071D01*
X70736664Y-124184085D01*
X70723403Y-124152968D01*
X70724586Y-124117080D01*
X70740750Y-124085533D01*
X70742939Y-124083257D01*
X70751627Y-124076989D01*
X70764969Y-124072323D01*
X70785952Y-124069027D01*
X70817563Y-124066868D01*
X70862790Y-124065614D01*
X70924620Y-124065031D01*
X71006039Y-124064889D01*
X71252645Y-124064889D01*
X71252645Y-123906845D01*
X71090206Y-123906845D01*
X71054538Y-123906764D01*
X70998768Y-123905967D01*
X70959630Y-123903962D01*
X70933176Y-123900321D01*
X70915459Y-123894612D01*
X70902529Y-123886407D01*
X70898886Y-123883223D01*
X70880478Y-123852248D01*
X70879844Y-123815912D01*
X70897383Y-123782293D01*
X70897445Y-123782224D01*
X70907116Y-123773598D01*
X70920409Y-123767542D01*
X70941117Y-123763611D01*
X70973028Y-123761356D01*
X71019934Y-123760331D01*
X71085624Y-123760089D01*
X71253771Y-123760089D01*
X71250386Y-123695178D01*
X71247000Y-123630267D01*
X71004923Y-123627214D01*
X70979907Y-123626886D01*
X70898287Y-123625406D01*
X70835968Y-123623022D01*
X70790354Y-123619027D01*
X70758852Y-123612713D01*
X70738867Y-123603374D01*
X70727804Y-123590303D01*
X70723069Y-123572792D01*
X70722067Y-123550135D01*
X70722073Y-123547770D01*
X70723227Y-123527739D01*
X70728024Y-123511946D01*
X70738832Y-123499890D01*
X70758017Y-123491067D01*
X70787945Y-123484975D01*
X70830983Y-123481111D01*
X70889499Y-123478974D01*
X70965857Y-123478060D01*
X71062426Y-123477867D01*
X71352606Y-123477867D01*
X71376003Y-123507611D01*
G37*
X76052934Y-123477883D02*
X76130031Y-123478075D01*
X76188977Y-123478660D01*
X76232564Y-123479851D01*
X76263583Y-123481864D01*
X76284825Y-123484912D01*
X76299082Y-123489209D01*
X76309145Y-123494972D01*
X76317806Y-123502412D01*
X76319591Y-123504093D01*
X76326835Y-123511632D01*
X76332477Y-123520650D01*
X76336717Y-123533784D01*
X76339756Y-123553672D01*
X76341794Y-123582951D01*
X76343030Y-123624258D01*
X76343665Y-123680231D01*
X76343900Y-123753507D01*
X76343934Y-123846723D01*
X76343897Y-123919513D01*
X76343648Y-123997689D01*
X76343012Y-124057903D01*
X76341815Y-124102782D01*
X76339884Y-124134952D01*
X76337046Y-124157039D01*
X76333127Y-124171670D01*
X76327955Y-124181470D01*
X76321356Y-124189067D01*
X76318022Y-124192244D01*
X76309500Y-124198354D01*
X76297498Y-124203029D01*
X76279287Y-124206459D01*
X76252140Y-124208836D01*
X76213329Y-124210352D01*
X76160124Y-124211198D01*
X76089798Y-124211565D01*
X75999622Y-124211645D01*
X75957514Y-124211633D01*
X75876367Y-124211451D01*
X75813875Y-124210898D01*
X75767309Y-124209782D01*
X75733941Y-124207913D01*
X75711044Y-124205098D01*
X75695888Y-124201146D01*
X75685746Y-124195866D01*
X75677889Y-124189067D01*
X75663163Y-124167467D01*
X75655311Y-124138267D01*
X75660810Y-124114360D01*
X75677889Y-124087467D01*
X75682868Y-124082859D01*
X75692643Y-124076572D01*
X75706759Y-124071946D01*
X75728254Y-124068730D01*
X75760168Y-124066670D01*
X75805542Y-124065512D01*
X75867413Y-124065002D01*
X75948822Y-124064889D01*
X76197178Y-124064889D01*
X76197178Y-123906845D01*
X76036001Y-123906845D01*
X76000183Y-123906699D01*
X75934559Y-123904976D01*
X75887318Y-123900541D01*
X75855583Y-123892437D01*
X75836477Y-123879706D01*
X75827123Y-123861392D01*
X75824645Y-123836538D01*
X75825442Y-123816282D01*
X75830694Y-123794456D01*
X75843488Y-123779104D01*
X75866828Y-123769109D01*
X75903717Y-123763353D01*
X75957159Y-123760719D01*
X76030158Y-123760089D01*
X76198305Y-123760089D01*
X76194919Y-123695178D01*
X76191534Y-123630267D01*
X75943817Y-123627218D01*
X75881226Y-123626339D01*
X75812765Y-123624895D01*
X75761861Y-123622964D01*
X75725608Y-123620314D01*
X75701101Y-123616710D01*
X75685435Y-123611921D01*
X75675706Y-123605713D01*
X75669691Y-123599310D01*
X75656682Y-123567628D01*
X75660243Y-123531942D01*
X75680018Y-123500884D01*
X75683269Y-123497961D01*
X75692249Y-123491610D01*
X75704353Y-123486757D01*
X75722359Y-123483203D01*
X75749047Y-123480746D01*
X75787197Y-123479185D01*
X75839586Y-123478318D01*
X75908994Y-123477946D01*
X75998201Y-123477867D01*
X76052934Y-123477883D01*
G36*
X76052934Y-123477883D02*
G01*
X76130031Y-123478075D01*
X76188977Y-123478660D01*
X76232564Y-123479851D01*
X76263583Y-123481864D01*
X76284825Y-123484912D01*
X76299082Y-123489209D01*
X76309145Y-123494972D01*
X76317806Y-123502412D01*
X76319591Y-123504093D01*
X76326835Y-123511632D01*
X76332477Y-123520650D01*
X76336717Y-123533784D01*
X76339756Y-123553672D01*
X76341794Y-123582951D01*
X76343030Y-123624258D01*
X76343665Y-123680231D01*
X76343900Y-123753507D01*
X76343934Y-123846723D01*
X76343897Y-123919513D01*
X76343648Y-123997689D01*
X76343012Y-124057903D01*
X76341815Y-124102782D01*
X76339884Y-124134952D01*
X76337046Y-124157039D01*
X76333127Y-124171670D01*
X76327955Y-124181470D01*
X76321356Y-124189067D01*
X76318022Y-124192244D01*
X76309500Y-124198354D01*
X76297498Y-124203029D01*
X76279287Y-124206459D01*
X76252140Y-124208836D01*
X76213329Y-124210352D01*
X76160124Y-124211198D01*
X76089798Y-124211565D01*
X75999622Y-124211645D01*
X75957514Y-124211633D01*
X75876367Y-124211451D01*
X75813875Y-124210898D01*
X75767309Y-124209782D01*
X75733941Y-124207913D01*
X75711044Y-124205098D01*
X75695888Y-124201146D01*
X75685746Y-124195866D01*
X75677889Y-124189067D01*
X75663163Y-124167467D01*
X75655311Y-124138267D01*
X75660810Y-124114360D01*
X75677889Y-124087467D01*
X75682868Y-124082859D01*
X75692643Y-124076572D01*
X75706759Y-124071946D01*
X75728254Y-124068730D01*
X75760168Y-124066670D01*
X75805542Y-124065512D01*
X75867413Y-124065002D01*
X75948822Y-124064889D01*
X76197178Y-124064889D01*
X76197178Y-123906845D01*
X76036001Y-123906845D01*
X76000183Y-123906699D01*
X75934559Y-123904976D01*
X75887318Y-123900541D01*
X75855583Y-123892437D01*
X75836477Y-123879706D01*
X75827123Y-123861392D01*
X75824645Y-123836538D01*
X75825442Y-123816282D01*
X75830694Y-123794456D01*
X75843488Y-123779104D01*
X75866828Y-123769109D01*
X75903717Y-123763353D01*
X75957159Y-123760719D01*
X76030158Y-123760089D01*
X76198305Y-123760089D01*
X76194919Y-123695178D01*
X76191534Y-123630267D01*
X75943817Y-123627218D01*
X75881226Y-123626339D01*
X75812765Y-123624895D01*
X75761861Y-123622964D01*
X75725608Y-123620314D01*
X75701101Y-123616710D01*
X75685435Y-123611921D01*
X75675706Y-123605713D01*
X75669691Y-123599310D01*
X75656682Y-123567628D01*
X75660243Y-123531942D01*
X75680018Y-123500884D01*
X75683269Y-123497961D01*
X75692249Y-123491610D01*
X75704353Y-123486757D01*
X75722359Y-123483203D01*
X75749047Y-123480746D01*
X75787197Y-123479185D01*
X75839586Y-123478318D01*
X75908994Y-123477946D01*
X75998201Y-123477867D01*
X76052934Y-123477883D01*
G37*
X67485902Y-123487278D02*
X67503863Y-123505789D01*
X67524463Y-123536871D01*
X67549295Y-123582556D01*
X67579950Y-123644878D01*
X67618020Y-123725871D01*
X67632654Y-123757254D01*
X67662403Y-123820438D01*
X67688497Y-123875044D01*
X67709492Y-123918090D01*
X67723939Y-123946593D01*
X67730391Y-123957570D01*
X67731750Y-123956989D01*
X67741742Y-123943042D01*
X67759033Y-123913504D01*
X67781630Y-123871887D01*
X67807538Y-123821703D01*
X67823511Y-123790214D01*
X67852461Y-123734861D01*
X67874949Y-123695844D01*
X67893165Y-123670366D01*
X67909296Y-123655631D01*
X67925530Y-123648842D01*
X67944057Y-123647200D01*
X67954560Y-123647675D01*
X67970676Y-123651882D01*
X67985990Y-123662746D01*
X68002588Y-123683019D01*
X68022557Y-123715454D01*
X68047983Y-123762804D01*
X68080952Y-123827822D01*
X68090685Y-123847077D01*
X68115143Y-123893746D01*
X68135378Y-123929909D01*
X68149511Y-123952297D01*
X68155660Y-123957645D01*
X68157027Y-123954373D01*
X68166402Y-123933464D01*
X68183262Y-123896525D01*
X68206179Y-123846674D01*
X68233720Y-123787026D01*
X68264455Y-123720698D01*
X68291170Y-123663477D01*
X68320793Y-123601488D01*
X68343864Y-123555749D01*
X68361843Y-123523708D01*
X68376190Y-123502814D01*
X68388366Y-123490518D01*
X68399832Y-123484266D01*
X68409242Y-123481374D01*
X68434347Y-123481225D01*
X68461490Y-123496568D01*
X68462790Y-123497553D01*
X68484874Y-123520188D01*
X68495923Y-123542413D01*
X68495969Y-123543053D01*
X68491428Y-123560715D01*
X68478564Y-123595281D01*
X68458805Y-123643626D01*
X68433581Y-123702625D01*
X68404319Y-123769155D01*
X68372450Y-123840091D01*
X68339401Y-123912307D01*
X68306601Y-123982680D01*
X68275480Y-124048085D01*
X68247465Y-124105397D01*
X68223986Y-124151492D01*
X68206472Y-124183246D01*
X68196351Y-124197533D01*
X68161943Y-124210902D01*
X68120246Y-124204541D01*
X68114881Y-124199844D01*
X68099052Y-124177693D01*
X68076850Y-124140932D01*
X68050433Y-124093215D01*
X68021960Y-124038193D01*
X67942186Y-123878950D01*
X67868999Y-124025542D01*
X67859303Y-124044832D01*
X67832325Y-124097180D01*
X67808296Y-124141970D01*
X67789532Y-124174954D01*
X67778346Y-124191889D01*
X67777200Y-124193132D01*
X67749079Y-124208419D01*
X67714017Y-124210102D01*
X67682976Y-124197533D01*
X67680550Y-124194684D01*
X67668290Y-124174059D01*
X67648552Y-124136508D01*
X67622648Y-124084680D01*
X67591885Y-124021223D01*
X67557575Y-123948785D01*
X67521025Y-123870016D01*
X67500785Y-123825893D01*
X67464012Y-123745165D01*
X67435555Y-123681487D01*
X67414531Y-123632552D01*
X67400054Y-123596057D01*
X67391239Y-123569695D01*
X67387204Y-123551161D01*
X67387062Y-123538152D01*
X67389930Y-123528361D01*
X67404587Y-123507478D01*
X67431190Y-123487177D01*
X67431945Y-123486835D01*
X67451535Y-123479834D01*
X67468990Y-123479304D01*
X67485902Y-123487278D01*
G36*
X67485902Y-123487278D02*
G01*
X67503863Y-123505789D01*
X67524463Y-123536871D01*
X67549295Y-123582556D01*
X67579950Y-123644878D01*
X67618020Y-123725871D01*
X67632654Y-123757254D01*
X67662403Y-123820438D01*
X67688497Y-123875044D01*
X67709492Y-123918090D01*
X67723939Y-123946593D01*
X67730391Y-123957570D01*
X67731750Y-123956989D01*
X67741742Y-123943042D01*
X67759033Y-123913504D01*
X67781630Y-123871887D01*
X67807538Y-123821703D01*
X67823511Y-123790214D01*
X67852461Y-123734861D01*
X67874949Y-123695844D01*
X67893165Y-123670366D01*
X67909296Y-123655631D01*
X67925530Y-123648842D01*
X67944057Y-123647200D01*
X67954560Y-123647675D01*
X67970676Y-123651882D01*
X67985990Y-123662746D01*
X68002588Y-123683019D01*
X68022557Y-123715454D01*
X68047983Y-123762804D01*
X68080952Y-123827822D01*
X68090685Y-123847077D01*
X68115143Y-123893746D01*
X68135378Y-123929909D01*
X68149511Y-123952297D01*
X68155660Y-123957645D01*
X68157027Y-123954373D01*
X68166402Y-123933464D01*
X68183262Y-123896525D01*
X68206179Y-123846674D01*
X68233720Y-123787026D01*
X68264455Y-123720698D01*
X68291170Y-123663477D01*
X68320793Y-123601488D01*
X68343864Y-123555749D01*
X68361843Y-123523708D01*
X68376190Y-123502814D01*
X68388366Y-123490518D01*
X68399832Y-123484266D01*
X68409242Y-123481374D01*
X68434347Y-123481225D01*
X68461490Y-123496568D01*
X68462790Y-123497553D01*
X68484874Y-123520188D01*
X68495923Y-123542413D01*
X68495969Y-123543053D01*
X68491428Y-123560715D01*
X68478564Y-123595281D01*
X68458805Y-123643626D01*
X68433581Y-123702625D01*
X68404319Y-123769155D01*
X68372450Y-123840091D01*
X68339401Y-123912307D01*
X68306601Y-123982680D01*
X68275480Y-124048085D01*
X68247465Y-124105397D01*
X68223986Y-124151492D01*
X68206472Y-124183246D01*
X68196351Y-124197533D01*
X68161943Y-124210902D01*
X68120246Y-124204541D01*
X68114881Y-124199844D01*
X68099052Y-124177693D01*
X68076850Y-124140932D01*
X68050433Y-124093215D01*
X68021960Y-124038193D01*
X67942186Y-123878950D01*
X67868999Y-124025542D01*
X67859303Y-124044832D01*
X67832325Y-124097180D01*
X67808296Y-124141970D01*
X67789532Y-124174954D01*
X67778346Y-124191889D01*
X67777200Y-124193132D01*
X67749079Y-124208419D01*
X67714017Y-124210102D01*
X67682976Y-124197533D01*
X67680550Y-124194684D01*
X67668290Y-124174059D01*
X67648552Y-124136508D01*
X67622648Y-124084680D01*
X67591885Y-124021223D01*
X67557575Y-123948785D01*
X67521025Y-123870016D01*
X67500785Y-123825893D01*
X67464012Y-123745165D01*
X67435555Y-123681487D01*
X67414531Y-123632552D01*
X67400054Y-123596057D01*
X67391239Y-123569695D01*
X67387204Y-123551161D01*
X67387062Y-123538152D01*
X67389930Y-123528361D01*
X67404587Y-123507478D01*
X67431190Y-123487177D01*
X67431945Y-123486835D01*
X67451535Y-123479834D01*
X67468990Y-123479304D01*
X67485902Y-123487278D01*
G37*
X75037053Y-123478736D02*
X75103300Y-123484166D01*
X75158600Y-123493764D01*
X75209483Y-123508625D01*
X75280795Y-123541758D01*
X75331952Y-123584440D01*
X75362775Y-123636505D01*
X75373089Y-123697783D01*
X75372152Y-123729032D01*
X75366360Y-123753829D01*
X75351553Y-123775499D01*
X75323580Y-123802849D01*
X75315602Y-123810178D01*
X75291892Y-123831081D01*
X75269498Y-123848051D01*
X75245465Y-123862005D01*
X75216837Y-123873856D01*
X75180660Y-123884520D01*
X75133980Y-123894911D01*
X75073841Y-123905946D01*
X74997290Y-123918538D01*
X74901371Y-123933604D01*
X74883008Y-123936638D01*
X74820678Y-123950258D01*
X74775460Y-123965992D01*
X74749176Y-123983063D01*
X74743647Y-124000697D01*
X74746268Y-124004968D01*
X74764200Y-124020033D01*
X74792326Y-124036667D01*
X74805126Y-124042657D01*
X74826424Y-124049850D01*
X74852810Y-124054627D01*
X74888654Y-124057446D01*
X74938328Y-124058764D01*
X75006200Y-124059037D01*
X75023985Y-124058964D01*
X75091606Y-124057853D01*
X75156545Y-124055628D01*
X75212170Y-124052562D01*
X75251851Y-124048927D01*
X75287362Y-124044859D01*
X75316615Y-124044076D01*
X75335515Y-124048676D01*
X75350629Y-124059351D01*
X75354285Y-124062944D01*
X75370627Y-124094718D01*
X75369307Y-124130372D01*
X75350350Y-124160990D01*
X75329980Y-124172596D01*
X75293996Y-124185291D01*
X75251572Y-124195341D01*
X75248122Y-124195940D01*
X75205452Y-124201156D01*
X75148066Y-124205530D01*
X75083049Y-124208618D01*
X75017489Y-124209977D01*
X75001257Y-124210018D01*
X74902944Y-124207541D01*
X74822892Y-124199535D01*
X74757713Y-124185003D01*
X74704017Y-124162949D01*
X74658416Y-124132376D01*
X74617523Y-124092286D01*
X74597402Y-124066059D01*
X74585776Y-124036512D01*
X74582867Y-123996795D01*
X74583008Y-123984826D01*
X74586881Y-123952145D01*
X74599265Y-123925619D01*
X74624430Y-123894771D01*
X74645642Y-123872631D01*
X74672038Y-123850085D01*
X74701755Y-123831717D01*
X74737985Y-123816461D01*
X74783917Y-123803249D01*
X74842744Y-123791014D01*
X74917656Y-123778689D01*
X75011845Y-123765206D01*
X75057157Y-123758196D01*
X75125111Y-123743637D01*
X75174247Y-123727137D01*
X75203814Y-123709239D01*
X75213064Y-123690485D01*
X75201248Y-123671415D01*
X75167616Y-123652571D01*
X75164570Y-123651357D01*
X75118211Y-123639279D01*
X75055561Y-123631079D01*
X74982127Y-123626919D01*
X74903417Y-123626961D01*
X74824939Y-123631369D01*
X74752200Y-123640305D01*
X74748273Y-123640954D01*
X74699457Y-123648661D01*
X74667205Y-123652273D01*
X74646208Y-123651676D01*
X74631154Y-123646754D01*
X74616734Y-123637396D01*
X74615564Y-123636525D01*
X74591047Y-123606151D01*
X74586254Y-123570650D01*
X74602060Y-123536069D01*
X74606606Y-123531613D01*
X74636220Y-123516473D01*
X74683202Y-123503350D01*
X74743506Y-123492550D01*
X74813088Y-123484381D01*
X74887903Y-123479151D01*
X74963906Y-123477167D01*
X75037053Y-123478736D01*
G36*
X75037053Y-123478736D02*
G01*
X75103300Y-123484166D01*
X75158600Y-123493764D01*
X75209483Y-123508625D01*
X75280795Y-123541758D01*
X75331952Y-123584440D01*
X75362775Y-123636505D01*
X75373089Y-123697783D01*
X75372152Y-123729032D01*
X75366360Y-123753829D01*
X75351553Y-123775499D01*
X75323580Y-123802849D01*
X75315602Y-123810178D01*
X75291892Y-123831081D01*
X75269498Y-123848051D01*
X75245465Y-123862005D01*
X75216837Y-123873856D01*
X75180660Y-123884520D01*
X75133980Y-123894911D01*
X75073841Y-123905946D01*
X74997290Y-123918538D01*
X74901371Y-123933604D01*
X74883008Y-123936638D01*
X74820678Y-123950258D01*
X74775460Y-123965992D01*
X74749176Y-123983063D01*
X74743647Y-124000697D01*
X74746268Y-124004968D01*
X74764200Y-124020033D01*
X74792326Y-124036667D01*
X74805126Y-124042657D01*
X74826424Y-124049850D01*
X74852810Y-124054627D01*
X74888654Y-124057446D01*
X74938328Y-124058764D01*
X75006200Y-124059037D01*
X75023985Y-124058964D01*
X75091606Y-124057853D01*
X75156545Y-124055628D01*
X75212170Y-124052562D01*
X75251851Y-124048927D01*
X75287362Y-124044859D01*
X75316615Y-124044076D01*
X75335515Y-124048676D01*
X75350629Y-124059351D01*
X75354285Y-124062944D01*
X75370627Y-124094718D01*
X75369307Y-124130372D01*
X75350350Y-124160990D01*
X75329980Y-124172596D01*
X75293996Y-124185291D01*
X75251572Y-124195341D01*
X75248122Y-124195940D01*
X75205452Y-124201156D01*
X75148066Y-124205530D01*
X75083049Y-124208618D01*
X75017489Y-124209977D01*
X75001257Y-124210018D01*
X74902944Y-124207541D01*
X74822892Y-124199535D01*
X74757713Y-124185003D01*
X74704017Y-124162949D01*
X74658416Y-124132376D01*
X74617523Y-124092286D01*
X74597402Y-124066059D01*
X74585776Y-124036512D01*
X74582867Y-123996795D01*
X74583008Y-123984826D01*
X74586881Y-123952145D01*
X74599265Y-123925619D01*
X74624430Y-123894771D01*
X74645642Y-123872631D01*
X74672038Y-123850085D01*
X74701755Y-123831717D01*
X74737985Y-123816461D01*
X74783917Y-123803249D01*
X74842744Y-123791014D01*
X74917656Y-123778689D01*
X75011845Y-123765206D01*
X75057157Y-123758196D01*
X75125111Y-123743637D01*
X75174247Y-123727137D01*
X75203814Y-123709239D01*
X75213064Y-123690485D01*
X75201248Y-123671415D01*
X75167616Y-123652571D01*
X75164570Y-123651357D01*
X75118211Y-123639279D01*
X75055561Y-123631079D01*
X74982127Y-123626919D01*
X74903417Y-123626961D01*
X74824939Y-123631369D01*
X74752200Y-123640305D01*
X74748273Y-123640954D01*
X74699457Y-123648661D01*
X74667205Y-123652273D01*
X74646208Y-123651676D01*
X74631154Y-123646754D01*
X74616734Y-123637396D01*
X74615564Y-123636525D01*
X74591047Y-123606151D01*
X74586254Y-123570650D01*
X74602060Y-123536069D01*
X74606606Y-123531613D01*
X74636220Y-123516473D01*
X74683202Y-123503350D01*
X74743506Y-123492550D01*
X74813088Y-123484381D01*
X74887903Y-123479151D01*
X74963906Y-123477167D01*
X75037053Y-123478736D01*
G37*
X71184911Y-119170833D02*
X71280468Y-119188323D01*
X71444758Y-119233364D01*
X71598789Y-119296456D01*
X71744709Y-119378715D01*
X71884666Y-119481257D01*
X72020808Y-119605199D01*
X72064673Y-119650461D01*
X72176958Y-119782665D01*
X72270172Y-119920632D01*
X72346919Y-120068550D01*
X72409803Y-120230603D01*
X72413620Y-120242191D01*
X72463707Y-120428192D01*
X72497099Y-120624321D01*
X72513784Y-120826368D01*
X72513751Y-121030125D01*
X72496991Y-121231381D01*
X72463492Y-121425928D01*
X72413244Y-121609556D01*
X72369390Y-121726853D01*
X72291548Y-121889751D01*
X72198028Y-122043666D01*
X72091022Y-122185471D01*
X71972719Y-122312039D01*
X71845311Y-122420241D01*
X71767806Y-122472920D01*
X71640925Y-122542550D01*
X71503443Y-122601268D01*
X71361916Y-122646387D01*
X71222902Y-122675222D01*
X71208797Y-122676906D01*
X71165353Y-122680234D01*
X71107923Y-122683075D01*
X71042322Y-122685173D01*
X70974367Y-122686268D01*
X70847578Y-122683940D01*
X70699873Y-122670936D01*
X70561979Y-122645933D01*
X70428214Y-122608118D01*
X70404762Y-122599689D01*
X70356812Y-122580208D01*
X70300340Y-122555273D01*
X70238579Y-122526522D01*
X70174763Y-122495590D01*
X70112126Y-122464115D01*
X70053903Y-122433734D01*
X70003327Y-122406083D01*
X69963633Y-122382799D01*
X69938054Y-122365518D01*
X69929825Y-122355879D01*
X69931276Y-122352784D01*
X69942450Y-122332879D01*
X69963334Y-122297220D01*
X69992465Y-122248259D01*
X70028381Y-122188446D01*
X70069620Y-122120233D01*
X70114717Y-122046071D01*
X70295985Y-121748808D01*
X70342515Y-121793339D01*
X70433923Y-121871665D01*
X70547534Y-121946239D01*
X70665322Y-122000274D01*
X70785759Y-122033090D01*
X70907317Y-122044011D01*
X70948785Y-122042668D01*
X71066280Y-122024412D01*
X71176289Y-121985417D01*
X71277630Y-121926470D01*
X71369121Y-121848357D01*
X71449580Y-121751864D01*
X71517827Y-121637778D01*
X71534108Y-121603524D01*
X71580182Y-121480040D01*
X71615306Y-121341718D01*
X71639397Y-121192361D01*
X71652373Y-121035773D01*
X71654149Y-120875756D01*
X71644643Y-120716114D01*
X71623772Y-120560650D01*
X71591452Y-120413166D01*
X71547599Y-120277467D01*
X71510182Y-120190876D01*
X71445385Y-120077488D01*
X71369972Y-119983870D01*
X71283618Y-119909759D01*
X71185995Y-119854894D01*
X71076777Y-119819012D01*
X70955639Y-119801851D01*
X70886238Y-119800680D01*
X70763368Y-119814941D01*
X70647864Y-119850041D01*
X70541153Y-119905482D01*
X70444664Y-119980764D01*
X70428920Y-119995240D01*
X70398350Y-120021762D01*
X70376009Y-120038938D01*
X70365891Y-120043587D01*
X70363906Y-120041397D01*
X70349441Y-120022521D01*
X70325600Y-119989197D01*
X70294229Y-119944180D01*
X70257174Y-119890225D01*
X70216283Y-119830085D01*
X70173402Y-119766518D01*
X70130378Y-119702276D01*
X70089057Y-119640115D01*
X70051286Y-119582791D01*
X70018912Y-119533057D01*
X69993782Y-119493668D01*
X69977742Y-119467380D01*
X69972639Y-119456947D01*
X69977250Y-119452741D01*
X69996467Y-119447733D01*
X70006038Y-119445186D01*
X70034009Y-119434049D01*
X70075648Y-119415602D01*
X70127195Y-119391525D01*
X70184890Y-119363499D01*
X70196157Y-119357954D01*
X70373887Y-119278689D01*
X70543690Y-119219185D01*
X70707630Y-119179045D01*
X70867771Y-119157871D01*
X71026177Y-119155266D01*
X71184911Y-119170833D01*
G36*
X71184911Y-119170833D02*
G01*
X71280468Y-119188323D01*
X71444758Y-119233364D01*
X71598789Y-119296456D01*
X71744709Y-119378715D01*
X71884666Y-119481257D01*
X72020808Y-119605199D01*
X72064673Y-119650461D01*
X72176958Y-119782665D01*
X72270172Y-119920632D01*
X72346919Y-120068550D01*
X72409803Y-120230603D01*
X72413620Y-120242191D01*
X72463707Y-120428192D01*
X72497099Y-120624321D01*
X72513784Y-120826368D01*
X72513751Y-121030125D01*
X72496991Y-121231381D01*
X72463492Y-121425928D01*
X72413244Y-121609556D01*
X72369390Y-121726853D01*
X72291548Y-121889751D01*
X72198028Y-122043666D01*
X72091022Y-122185471D01*
X71972719Y-122312039D01*
X71845311Y-122420241D01*
X71767806Y-122472920D01*
X71640925Y-122542550D01*
X71503443Y-122601268D01*
X71361916Y-122646387D01*
X71222902Y-122675222D01*
X71208797Y-122676906D01*
X71165353Y-122680234D01*
X71107923Y-122683075D01*
X71042322Y-122685173D01*
X70974367Y-122686268D01*
X70847578Y-122683940D01*
X70699873Y-122670936D01*
X70561979Y-122645933D01*
X70428214Y-122608118D01*
X70404762Y-122599689D01*
X70356812Y-122580208D01*
X70300340Y-122555273D01*
X70238579Y-122526522D01*
X70174763Y-122495590D01*
X70112126Y-122464115D01*
X70053903Y-122433734D01*
X70003327Y-122406083D01*
X69963633Y-122382799D01*
X69938054Y-122365518D01*
X69929825Y-122355879D01*
X69931276Y-122352784D01*
X69942450Y-122332879D01*
X69963334Y-122297220D01*
X69992465Y-122248259D01*
X70028381Y-122188446D01*
X70069620Y-122120233D01*
X70114717Y-122046071D01*
X70295985Y-121748808D01*
X70342515Y-121793339D01*
X70433923Y-121871665D01*
X70547534Y-121946239D01*
X70665322Y-122000274D01*
X70785759Y-122033090D01*
X70907317Y-122044011D01*
X70948785Y-122042668D01*
X71066280Y-122024412D01*
X71176289Y-121985417D01*
X71277630Y-121926470D01*
X71369121Y-121848357D01*
X71449580Y-121751864D01*
X71517827Y-121637778D01*
X71534108Y-121603524D01*
X71580182Y-121480040D01*
X71615306Y-121341718D01*
X71639397Y-121192361D01*
X71652373Y-121035773D01*
X71654149Y-120875756D01*
X71644643Y-120716114D01*
X71623772Y-120560650D01*
X71591452Y-120413166D01*
X71547599Y-120277467D01*
X71510182Y-120190876D01*
X71445385Y-120077488D01*
X71369972Y-119983870D01*
X71283618Y-119909759D01*
X71185995Y-119854894D01*
X71076777Y-119819012D01*
X70955639Y-119801851D01*
X70886238Y-119800680D01*
X70763368Y-119814941D01*
X70647864Y-119850041D01*
X70541153Y-119905482D01*
X70444664Y-119980764D01*
X70428920Y-119995240D01*
X70398350Y-120021762D01*
X70376009Y-120038938D01*
X70365891Y-120043587D01*
X70363906Y-120041397D01*
X70349441Y-120022521D01*
X70325600Y-119989197D01*
X70294229Y-119944180D01*
X70257174Y-119890225D01*
X70216283Y-119830085D01*
X70173402Y-119766518D01*
X70130378Y-119702276D01*
X70089057Y-119640115D01*
X70051286Y-119582791D01*
X70018912Y-119533057D01*
X69993782Y-119493668D01*
X69977742Y-119467380D01*
X69972639Y-119456947D01*
X69977250Y-119452741D01*
X69996467Y-119447733D01*
X70006038Y-119445186D01*
X70034009Y-119434049D01*
X70075648Y-119415602D01*
X70127195Y-119391525D01*
X70184890Y-119363499D01*
X70196157Y-119357954D01*
X70373887Y-119278689D01*
X70543690Y-119219185D01*
X70707630Y-119179045D01*
X70867771Y-119157871D01*
X71026177Y-119155266D01*
X71184911Y-119170833D01*
G37*
X67382194Y-121451511D02*
X67381468Y-121528958D01*
X67372889Y-121680394D01*
X67354033Y-121817083D01*
X67324037Y-121943076D01*
X67282036Y-122062425D01*
X67227169Y-122179181D01*
X67160367Y-122289979D01*
X67069563Y-122403539D01*
X66965908Y-122499011D01*
X66850087Y-122575873D01*
X66722786Y-122633597D01*
X66584689Y-122671658D01*
X66546993Y-122677466D01*
X66467952Y-122683196D01*
X66379829Y-122683383D01*
X66290436Y-122678339D01*
X66207584Y-122668378D01*
X66139087Y-122653812D01*
X66108235Y-122644164D01*
X66030930Y-122613923D01*
X65953879Y-122576417D01*
X65884400Y-122535414D01*
X65829815Y-122494679D01*
X65807116Y-122475305D01*
X65784401Y-122457462D01*
X65772979Y-122450578D01*
X65771737Y-122452224D01*
X65768928Y-122470005D01*
X65766976Y-122503170D01*
X65766245Y-122546533D01*
X65766245Y-122642489D01*
X64908096Y-122642489D01*
X64942361Y-122581774D01*
X64947555Y-122572668D01*
X64955915Y-122558049D01*
X64963488Y-122543973D01*
X64970312Y-122529340D01*
X64976427Y-122513049D01*
X64981873Y-122493998D01*
X64986687Y-122471086D01*
X64990908Y-122443213D01*
X64994577Y-122409278D01*
X64997731Y-122368179D01*
X65000411Y-122318815D01*
X65002654Y-122260086D01*
X65004499Y-122190890D01*
X65005987Y-122110126D01*
X65007155Y-122016694D01*
X65007878Y-121929521D01*
X65811400Y-121929521D01*
X65881956Y-121975889D01*
X65922617Y-121999591D01*
X65976746Y-122025439D01*
X66025889Y-122043629D01*
X66089365Y-122059351D01*
X66185531Y-122070341D01*
X66270100Y-122062165D01*
X66343419Y-122034605D01*
X66405837Y-121987442D01*
X66457702Y-121920458D01*
X66499360Y-121833433D01*
X66531162Y-121726150D01*
X66533745Y-121713809D01*
X66542200Y-121652572D01*
X66547863Y-121575492D01*
X66550776Y-121487802D01*
X66550983Y-121394734D01*
X66548530Y-121301520D01*
X66543461Y-121213394D01*
X66535819Y-121135588D01*
X66525648Y-121073333D01*
X66524367Y-121067466D01*
X66495326Y-120956921D01*
X66460810Y-120866375D01*
X66419656Y-120793753D01*
X66370699Y-120736981D01*
X66312774Y-120693984D01*
X66280820Y-120678415D01*
X66207984Y-120659522D01*
X66126643Y-120656265D01*
X66041519Y-120668189D01*
X65957333Y-120694840D01*
X65878808Y-120735762D01*
X65811400Y-120779330D01*
X65811400Y-121929521D01*
X65007878Y-121929521D01*
X65008044Y-121909492D01*
X65008691Y-121787420D01*
X65009136Y-121649376D01*
X65009418Y-121494259D01*
X65009575Y-121320968D01*
X65009648Y-121128403D01*
X65009674Y-120915462D01*
X65009693Y-120681045D01*
X65009889Y-118996178D01*
X65915217Y-118996178D01*
X65890785Y-119032867D01*
X65884518Y-119042447D01*
X65858408Y-119088781D01*
X65840669Y-119135902D01*
X65829108Y-119191051D01*
X65821531Y-119261467D01*
X65821039Y-119268450D01*
X65819262Y-119306441D01*
X65817644Y-119360376D01*
X65816199Y-119427503D01*
X65814940Y-119505071D01*
X65813880Y-119590328D01*
X65813029Y-119680524D01*
X65812403Y-119772907D01*
X65812012Y-119864725D01*
X65811870Y-119953227D01*
X65811990Y-120035662D01*
X65812383Y-120109279D01*
X65813062Y-120171326D01*
X65814041Y-120219051D01*
X65815332Y-120249704D01*
X65816947Y-120260533D01*
X65825157Y-120256133D01*
X65846847Y-120241162D01*
X65876214Y-120219248D01*
X65925079Y-120185036D01*
X66013325Y-120138514D01*
X66112116Y-120104846D01*
X66224710Y-120083031D01*
X66354364Y-120072065D01*
X66446870Y-120071019D01*
X66568211Y-120080814D01*
X66678299Y-120104974D01*
X66781589Y-120144585D01*
X66882538Y-120200732D01*
X66927703Y-120231683D01*
X67033111Y-120322915D01*
X67124738Y-120431906D01*
X67202532Y-120558526D01*
X67266441Y-120702645D01*
X67316414Y-120864132D01*
X67352398Y-121042859D01*
X67374343Y-121238695D01*
X67380100Y-121394734D01*
X67382194Y-121451511D01*
G36*
X67382194Y-121451511D02*
G01*
X67381468Y-121528958D01*
X67372889Y-121680394D01*
X67354033Y-121817083D01*
X67324037Y-121943076D01*
X67282036Y-122062425D01*
X67227169Y-122179181D01*
X67160367Y-122289979D01*
X67069563Y-122403539D01*
X66965908Y-122499011D01*
X66850087Y-122575873D01*
X66722786Y-122633597D01*
X66584689Y-122671658D01*
X66546993Y-122677466D01*
X66467952Y-122683196D01*
X66379829Y-122683383D01*
X66290436Y-122678339D01*
X66207584Y-122668378D01*
X66139087Y-122653812D01*
X66108235Y-122644164D01*
X66030930Y-122613923D01*
X65953879Y-122576417D01*
X65884400Y-122535414D01*
X65829815Y-122494679D01*
X65807116Y-122475305D01*
X65784401Y-122457462D01*
X65772979Y-122450578D01*
X65771737Y-122452224D01*
X65768928Y-122470005D01*
X65766976Y-122503170D01*
X65766245Y-122546533D01*
X65766245Y-122642489D01*
X64908096Y-122642489D01*
X64942361Y-122581774D01*
X64947555Y-122572668D01*
X64955915Y-122558049D01*
X64963488Y-122543973D01*
X64970312Y-122529340D01*
X64976427Y-122513049D01*
X64981873Y-122493998D01*
X64986687Y-122471086D01*
X64990908Y-122443213D01*
X64994577Y-122409278D01*
X64997731Y-122368179D01*
X65000411Y-122318815D01*
X65002654Y-122260086D01*
X65004499Y-122190890D01*
X65005987Y-122110126D01*
X65007155Y-122016694D01*
X65007878Y-121929521D01*
X65811400Y-121929521D01*
X65881956Y-121975889D01*
X65922617Y-121999591D01*
X65976746Y-122025439D01*
X66025889Y-122043629D01*
X66089365Y-122059351D01*
X66185531Y-122070341D01*
X66270100Y-122062165D01*
X66343419Y-122034605D01*
X66405837Y-121987442D01*
X66457702Y-121920458D01*
X66499360Y-121833433D01*
X66531162Y-121726150D01*
X66533745Y-121713809D01*
X66542200Y-121652572D01*
X66547863Y-121575492D01*
X66550776Y-121487802D01*
X66550983Y-121394734D01*
X66548530Y-121301520D01*
X66543461Y-121213394D01*
X66535819Y-121135588D01*
X66525648Y-121073333D01*
X66524367Y-121067466D01*
X66495326Y-120956921D01*
X66460810Y-120866375D01*
X66419656Y-120793753D01*
X66370699Y-120736981D01*
X66312774Y-120693984D01*
X66280820Y-120678415D01*
X66207984Y-120659522D01*
X66126643Y-120656265D01*
X66041519Y-120668189D01*
X65957333Y-120694840D01*
X65878808Y-120735762D01*
X65811400Y-120779330D01*
X65811400Y-121929521D01*
X65007878Y-121929521D01*
X65008044Y-121909492D01*
X65008691Y-121787420D01*
X65009136Y-121649376D01*
X65009418Y-121494259D01*
X65009575Y-121320968D01*
X65009648Y-121128403D01*
X65009674Y-120915462D01*
X65009693Y-120681045D01*
X65009889Y-118996178D01*
X65915217Y-118996178D01*
X65890785Y-119032867D01*
X65884518Y-119042447D01*
X65858408Y-119088781D01*
X65840669Y-119135902D01*
X65829108Y-119191051D01*
X65821531Y-119261467D01*
X65821039Y-119268450D01*
X65819262Y-119306441D01*
X65817644Y-119360376D01*
X65816199Y-119427503D01*
X65814940Y-119505071D01*
X65813880Y-119590328D01*
X65813029Y-119680524D01*
X65812403Y-119772907D01*
X65812012Y-119864725D01*
X65811870Y-119953227D01*
X65811990Y-120035662D01*
X65812383Y-120109279D01*
X65813062Y-120171326D01*
X65814041Y-120219051D01*
X65815332Y-120249704D01*
X65816947Y-120260533D01*
X65825157Y-120256133D01*
X65846847Y-120241162D01*
X65876214Y-120219248D01*
X65925079Y-120185036D01*
X66013325Y-120138514D01*
X66112116Y-120104846D01*
X66224710Y-120083031D01*
X66354364Y-120072065D01*
X66446870Y-120071019D01*
X66568211Y-120080814D01*
X66678299Y-120104974D01*
X66781589Y-120144585D01*
X66882538Y-120200732D01*
X66927703Y-120231683D01*
X67033111Y-120322915D01*
X67124738Y-120431906D01*
X67202532Y-120558526D01*
X67266441Y-120702645D01*
X67316414Y-120864132D01*
X67352398Y-121042859D01*
X67374343Y-121238695D01*
X67380100Y-121394734D01*
X67382194Y-121451511D01*
G37*
X69923955Y-121852267D02*
X69923461Y-121886163D01*
X69919832Y-121961002D01*
X69912222Y-122023201D01*
X69899888Y-122079784D01*
X69855513Y-122205876D01*
X69792600Y-122320479D01*
X69712438Y-122421368D01*
X69615940Y-122507724D01*
X69504022Y-122578732D01*
X69377597Y-122633576D01*
X69237578Y-122671438D01*
X69201349Y-122677151D01*
X69122355Y-122683113D01*
X69034041Y-122683446D01*
X68944275Y-122678459D01*
X68860922Y-122668466D01*
X68791851Y-122653778D01*
X68705387Y-122623549D01*
X68595486Y-122568857D01*
X68498156Y-122501343D01*
X68436067Y-122450356D01*
X68432805Y-122546422D01*
X68429543Y-122642489D01*
X68006650Y-122642489D01*
X67995743Y-122642486D01*
X67901256Y-122642180D01*
X67814531Y-122641416D01*
X67738037Y-122640251D01*
X67674243Y-122638742D01*
X67625618Y-122636947D01*
X67594633Y-122634921D01*
X67583756Y-122632722D01*
X67583778Y-122632263D01*
X67590814Y-122616710D01*
X67606634Y-122593871D01*
X67610934Y-122588438D01*
X67621977Y-122574406D01*
X67631511Y-122560986D01*
X67639661Y-122546522D01*
X67646552Y-122529356D01*
X67652311Y-122507834D01*
X67657062Y-122480298D01*
X67660931Y-122445092D01*
X67664044Y-122400560D01*
X67666525Y-122345046D01*
X67668500Y-122276893D01*
X67670094Y-122194445D01*
X67671434Y-122096046D01*
X67672644Y-121980039D01*
X67673096Y-121929262D01*
X68475578Y-121929262D01*
X68520248Y-121985773D01*
X68532985Y-122001012D01*
X68579804Y-122043644D01*
X68640455Y-122079472D01*
X68651097Y-122084650D01*
X68689876Y-122101545D01*
X68724892Y-122111709D01*
X68764922Y-122117125D01*
X68818741Y-122119778D01*
X68836848Y-122120183D01*
X68912211Y-122117340D01*
X68972943Y-122105420D01*
X69024652Y-122082837D01*
X69072946Y-122048011D01*
X69078003Y-122043598D01*
X69126472Y-121987960D01*
X69154659Y-121924133D01*
X69163952Y-121849082D01*
X69156720Y-121777493D01*
X69131996Y-121714445D01*
X69087449Y-121656558D01*
X69032519Y-121609608D01*
X68960094Y-121569761D01*
X68873540Y-121542063D01*
X68770870Y-121525896D01*
X68650094Y-121520642D01*
X68641207Y-121520657D01*
X68585860Y-121521455D01*
X68538936Y-121523288D01*
X68505153Y-121525911D01*
X68489228Y-121529074D01*
X68485143Y-121535541D01*
X68480772Y-121557675D01*
X68477804Y-121596788D01*
X68476114Y-121654739D01*
X68475578Y-121733386D01*
X68475578Y-121929262D01*
X67673096Y-121929262D01*
X67673849Y-121844768D01*
X67675175Y-121688578D01*
X67676428Y-121545812D01*
X67677851Y-121400742D01*
X67679376Y-121274827D01*
X67681133Y-121166236D01*
X67683251Y-121073134D01*
X67685860Y-120993691D01*
X67689090Y-120926073D01*
X67693069Y-120868449D01*
X67697928Y-120818985D01*
X67703797Y-120775850D01*
X67710804Y-120737210D01*
X67719080Y-120701234D01*
X67728754Y-120666089D01*
X67739956Y-120629942D01*
X67752816Y-120590961D01*
X67768290Y-120547891D01*
X67811194Y-120455671D01*
X67864935Y-120375899D01*
X67933776Y-120301765D01*
X68011385Y-120238205D01*
X68115961Y-120176525D01*
X68235444Y-120129002D01*
X68370708Y-120095367D01*
X68522626Y-120075352D01*
X68692072Y-120068689D01*
X68750090Y-120069087D01*
X68815598Y-120071135D01*
X68876893Y-120075504D01*
X68938297Y-120082835D01*
X69004132Y-120093769D01*
X69078720Y-120108947D01*
X69166384Y-120129009D01*
X69271445Y-120154597D01*
X69300006Y-120161620D01*
X69375254Y-120179576D01*
X69445588Y-120195620D01*
X69506767Y-120208828D01*
X69554554Y-120218274D01*
X69584711Y-120223031D01*
X69612983Y-120226710D01*
X69639260Y-120231987D01*
X69649259Y-120236742D01*
X69646152Y-120245581D01*
X69635394Y-120272872D01*
X69618064Y-120315706D01*
X69595326Y-120371225D01*
X69568347Y-120436572D01*
X69538290Y-120508889D01*
X69531693Y-120524679D01*
X69493107Y-120615284D01*
X69461968Y-120685017D01*
X69438117Y-120734205D01*
X69421398Y-120763174D01*
X69411654Y-120772252D01*
X69403966Y-120770205D01*
X69377615Y-120760560D01*
X69339182Y-120744990D01*
X69294022Y-120725615D01*
X69199493Y-120687614D01*
X69062680Y-120646580D01*
X68921489Y-120621412D01*
X68883514Y-120617411D01*
X68780259Y-120615247D01*
X68693152Y-120628422D01*
X68621329Y-120657556D01*
X68563931Y-120703266D01*
X68520096Y-120766172D01*
X68488962Y-120846892D01*
X68469670Y-120946045D01*
X68462250Y-121005024D01*
X68624136Y-120998245D01*
X68750695Y-120996613D01*
X68902151Y-121002994D01*
X69050596Y-121017577D01*
X69186778Y-121039682D01*
X69251445Y-121054621D01*
X69383690Y-121097541D01*
X69505962Y-121154140D01*
X69615885Y-121222817D01*
X69711083Y-121301970D01*
X69789180Y-121389996D01*
X69847799Y-121485293D01*
X69871795Y-121537664D01*
X69897432Y-121608390D01*
X69913678Y-121679612D01*
X69922022Y-121758512D01*
X69923890Y-121849082D01*
X69923955Y-121852267D01*
G36*
X69923955Y-121852267D02*
G01*
X69923461Y-121886163D01*
X69919832Y-121961002D01*
X69912222Y-122023201D01*
X69899888Y-122079784D01*
X69855513Y-122205876D01*
X69792600Y-122320479D01*
X69712438Y-122421368D01*
X69615940Y-122507724D01*
X69504022Y-122578732D01*
X69377597Y-122633576D01*
X69237578Y-122671438D01*
X69201349Y-122677151D01*
X69122355Y-122683113D01*
X69034041Y-122683446D01*
X68944275Y-122678459D01*
X68860922Y-122668466D01*
X68791851Y-122653778D01*
X68705387Y-122623549D01*
X68595486Y-122568857D01*
X68498156Y-122501343D01*
X68436067Y-122450356D01*
X68432805Y-122546422D01*
X68429543Y-122642489D01*
X68006650Y-122642489D01*
X67995743Y-122642486D01*
X67901256Y-122642180D01*
X67814531Y-122641416D01*
X67738037Y-122640251D01*
X67674243Y-122638742D01*
X67625618Y-122636947D01*
X67594633Y-122634921D01*
X67583756Y-122632722D01*
X67583778Y-122632263D01*
X67590814Y-122616710D01*
X67606634Y-122593871D01*
X67610934Y-122588438D01*
X67621977Y-122574406D01*
X67631511Y-122560986D01*
X67639661Y-122546522D01*
X67646552Y-122529356D01*
X67652311Y-122507834D01*
X67657062Y-122480298D01*
X67660931Y-122445092D01*
X67664044Y-122400560D01*
X67666525Y-122345046D01*
X67668500Y-122276893D01*
X67670094Y-122194445D01*
X67671434Y-122096046D01*
X67672644Y-121980039D01*
X67673096Y-121929262D01*
X68475578Y-121929262D01*
X68520248Y-121985773D01*
X68532985Y-122001012D01*
X68579804Y-122043644D01*
X68640455Y-122079472D01*
X68651097Y-122084650D01*
X68689876Y-122101545D01*
X68724892Y-122111709D01*
X68764922Y-122117125D01*
X68818741Y-122119778D01*
X68836848Y-122120183D01*
X68912211Y-122117340D01*
X68972943Y-122105420D01*
X69024652Y-122082837D01*
X69072946Y-122048011D01*
X69078003Y-122043598D01*
X69126472Y-121987960D01*
X69154659Y-121924133D01*
X69163952Y-121849082D01*
X69156720Y-121777493D01*
X69131996Y-121714445D01*
X69087449Y-121656558D01*
X69032519Y-121609608D01*
X68960094Y-121569761D01*
X68873540Y-121542063D01*
X68770870Y-121525896D01*
X68650094Y-121520642D01*
X68641207Y-121520657D01*
X68585860Y-121521455D01*
X68538936Y-121523288D01*
X68505153Y-121525911D01*
X68489228Y-121529074D01*
X68485143Y-121535541D01*
X68480772Y-121557675D01*
X68477804Y-121596788D01*
X68476114Y-121654739D01*
X68475578Y-121733386D01*
X68475578Y-121929262D01*
X67673096Y-121929262D01*
X67673849Y-121844768D01*
X67675175Y-121688578D01*
X67676428Y-121545812D01*
X67677851Y-121400742D01*
X67679376Y-121274827D01*
X67681133Y-121166236D01*
X67683251Y-121073134D01*
X67685860Y-120993691D01*
X67689090Y-120926073D01*
X67693069Y-120868449D01*
X67697928Y-120818985D01*
X67703797Y-120775850D01*
X67710804Y-120737210D01*
X67719080Y-120701234D01*
X67728754Y-120666089D01*
X67739956Y-120629942D01*
X67752816Y-120590961D01*
X67768290Y-120547891D01*
X67811194Y-120455671D01*
X67864935Y-120375899D01*
X67933776Y-120301765D01*
X68011385Y-120238205D01*
X68115961Y-120176525D01*
X68235444Y-120129002D01*
X68370708Y-120095367D01*
X68522626Y-120075352D01*
X68692072Y-120068689D01*
X68750090Y-120069087D01*
X68815598Y-120071135D01*
X68876893Y-120075504D01*
X68938297Y-120082835D01*
X69004132Y-120093769D01*
X69078720Y-120108947D01*
X69166384Y-120129009D01*
X69271445Y-120154597D01*
X69300006Y-120161620D01*
X69375254Y-120179576D01*
X69445588Y-120195620D01*
X69506767Y-120208828D01*
X69554554Y-120218274D01*
X69584711Y-120223031D01*
X69612983Y-120226710D01*
X69639260Y-120231987D01*
X69649259Y-120236742D01*
X69646152Y-120245581D01*
X69635394Y-120272872D01*
X69618064Y-120315706D01*
X69595326Y-120371225D01*
X69568347Y-120436572D01*
X69538290Y-120508889D01*
X69531693Y-120524679D01*
X69493107Y-120615284D01*
X69461968Y-120685017D01*
X69438117Y-120734205D01*
X69421398Y-120763174D01*
X69411654Y-120772252D01*
X69403966Y-120770205D01*
X69377615Y-120760560D01*
X69339182Y-120744990D01*
X69294022Y-120725615D01*
X69199493Y-120687614D01*
X69062680Y-120646580D01*
X68921489Y-120621412D01*
X68883514Y-120617411D01*
X68780259Y-120615247D01*
X68693152Y-120628422D01*
X68621329Y-120657556D01*
X68563931Y-120703266D01*
X68520096Y-120766172D01*
X68488962Y-120846892D01*
X68469670Y-120946045D01*
X68462250Y-121005024D01*
X68624136Y-120998245D01*
X68750695Y-120996613D01*
X68902151Y-121002994D01*
X69050596Y-121017577D01*
X69186778Y-121039682D01*
X69251445Y-121054621D01*
X69383690Y-121097541D01*
X69505962Y-121154140D01*
X69615885Y-121222817D01*
X69711083Y-121301970D01*
X69789180Y-121389996D01*
X69847799Y-121485293D01*
X69871795Y-121537664D01*
X69897432Y-121608390D01*
X69913678Y-121679612D01*
X69922022Y-121758512D01*
X69923890Y-121849082D01*
X69923955Y-121852267D01*
G37*
X77471814Y-119320592D02*
X77472259Y-119451811D01*
X77472562Y-119599016D01*
X77472748Y-119763149D01*
X77472842Y-119945152D01*
X77472871Y-120145965D01*
X77472861Y-120366532D01*
X77472836Y-120607792D01*
X77472822Y-120870689D01*
X77472822Y-120912840D01*
X77472846Y-121173468D01*
X77472885Y-121412596D01*
X77472908Y-121631160D01*
X77472887Y-121830095D01*
X77472793Y-122010335D01*
X77472595Y-122172815D01*
X77472263Y-122318470D01*
X77471769Y-122448234D01*
X77471083Y-122563043D01*
X77470176Y-122663830D01*
X77469017Y-122751530D01*
X77467578Y-122827079D01*
X77465829Y-122891411D01*
X77463740Y-122945461D01*
X77461283Y-122990163D01*
X77458427Y-123026452D01*
X77455143Y-123055263D01*
X77451402Y-123077531D01*
X77447174Y-123094190D01*
X77442429Y-123106175D01*
X77437139Y-123114421D01*
X77431273Y-123119862D01*
X77424802Y-123123434D01*
X77417697Y-123126070D01*
X77409928Y-123128706D01*
X77401466Y-123132277D01*
X77397108Y-123133945D01*
X77388595Y-123135911D01*
X77375894Y-123137711D01*
X77358085Y-123139355D01*
X77334249Y-123140847D01*
X77303466Y-123142197D01*
X77264817Y-123143411D01*
X77217382Y-123144497D01*
X77160243Y-123145461D01*
X77092479Y-123146311D01*
X77013171Y-123147053D01*
X76921399Y-123147697D01*
X76816244Y-123148247D01*
X76696787Y-123148713D01*
X76562108Y-123149100D01*
X76411288Y-123149416D01*
X76243406Y-123149669D01*
X76057545Y-123149866D01*
X75852783Y-123150013D01*
X75628202Y-123150118D01*
X75382882Y-123150189D01*
X75115904Y-123150232D01*
X75077521Y-123150237D01*
X74812122Y-123150280D01*
X74568250Y-123150325D01*
X74344983Y-123150348D01*
X74141396Y-123150324D01*
X73956567Y-123150230D01*
X73789573Y-123150043D01*
X73639490Y-123149739D01*
X73505396Y-123149294D01*
X73386366Y-123148685D01*
X73281479Y-123147889D01*
X73189810Y-123146880D01*
X73110437Y-123145637D01*
X73042437Y-123144135D01*
X72984886Y-123142351D01*
X72936862Y-123140261D01*
X72897440Y-123137842D01*
X72865699Y-123135070D01*
X72840714Y-123131921D01*
X72821564Y-123128372D01*
X72807323Y-123124398D01*
X72797071Y-123119978D01*
X72789882Y-123115086D01*
X72784835Y-123109700D01*
X72781005Y-123103796D01*
X72777471Y-123097349D01*
X72773308Y-123090337D01*
X72772225Y-123088487D01*
X72770013Y-123082980D01*
X72767986Y-123074668D01*
X72766138Y-123062609D01*
X72764461Y-123045863D01*
X72762945Y-123023487D01*
X72761583Y-122994540D01*
X72760367Y-122958080D01*
X72759289Y-122913167D01*
X72758340Y-122858857D01*
X72757512Y-122794210D01*
X72756797Y-122718284D01*
X72756187Y-122630138D01*
X72756142Y-122621293D01*
X73047578Y-122621293D01*
X73051460Y-122622565D01*
X73074720Y-122624591D01*
X73117074Y-122626426D01*
X73176332Y-122628027D01*
X73250307Y-122629349D01*
X73336810Y-122630348D01*
X73433652Y-122630980D01*
X73538645Y-122631200D01*
X74236851Y-122631200D01*
X75391290Y-122631200D01*
X75390656Y-122555000D01*
X75391774Y-122512960D01*
X75397504Y-122477134D01*
X75410090Y-122439572D01*
X75431768Y-122391377D01*
X75434989Y-122384697D01*
X75460388Y-122335159D01*
X75487196Y-122287169D01*
X75510117Y-122250266D01*
X75514685Y-122243634D01*
X75536716Y-122212393D01*
X75568893Y-122167454D01*
X75609657Y-122110947D01*
X75657445Y-122045004D01*
X75710698Y-121971757D01*
X75767855Y-121893336D01*
X75827355Y-121811872D01*
X75887637Y-121729498D01*
X75947140Y-121648344D01*
X76004305Y-121570542D01*
X76057570Y-121498223D01*
X76105374Y-121433518D01*
X76146157Y-121378559D01*
X76178358Y-121335476D01*
X76200416Y-121306402D01*
X76210771Y-121293467D01*
X76215244Y-121289151D01*
X76219436Y-121287112D01*
X76222843Y-121289726D01*
X76225525Y-121298786D01*
X76227541Y-121316085D01*
X76228948Y-121343414D01*
X76229805Y-121382565D01*
X76230170Y-121435333D01*
X76230103Y-121503507D01*
X76229660Y-121588882D01*
X76228902Y-121693249D01*
X76227885Y-121818400D01*
X76227508Y-121863100D01*
X76226369Y-121984195D01*
X76225172Y-122085488D01*
X76223836Y-122169062D01*
X76222277Y-122237004D01*
X76220415Y-122291399D01*
X76218166Y-122334332D01*
X76215448Y-122367889D01*
X76212179Y-122394155D01*
X76208278Y-122415216D01*
X76203661Y-122433157D01*
X76195392Y-122459570D01*
X76171783Y-122521572D01*
X76145885Y-122574373D01*
X76120735Y-122611445D01*
X76119539Y-122612875D01*
X76117368Y-122617224D01*
X76119528Y-122620826D01*
X76127844Y-122623751D01*
X76144140Y-122626069D01*
X76170241Y-122627851D01*
X76207971Y-122629167D01*
X76259156Y-122630086D01*
X76325620Y-122630678D01*
X76409187Y-122631015D01*
X76511683Y-122631165D01*
X76634932Y-122631200D01*
X77166496Y-122631200D01*
X77127723Y-122573583D01*
X77121632Y-122564693D01*
X77111176Y-122549869D01*
X77101779Y-122536222D01*
X77093383Y-122522565D01*
X77085933Y-122507711D01*
X77079373Y-122490470D01*
X77073646Y-122469655D01*
X77068695Y-122444080D01*
X77064466Y-122412555D01*
X77060901Y-122373893D01*
X77057944Y-122326907D01*
X77055540Y-122270408D01*
X77053631Y-122203209D01*
X77052162Y-122124122D01*
X77051076Y-122031960D01*
X77050318Y-121925534D01*
X77049830Y-121803657D01*
X77049558Y-121665141D01*
X77049443Y-121508799D01*
X77049431Y-121333442D01*
X77049465Y-121137882D01*
X77049489Y-120920933D01*
X77049480Y-120798313D01*
X77049443Y-120593247D01*
X77049427Y-120408916D01*
X77049488Y-120244134D01*
X77049684Y-120097716D01*
X77050070Y-119968474D01*
X77050705Y-119855222D01*
X77051644Y-119756775D01*
X77052945Y-119671944D01*
X77054664Y-119599544D01*
X77056859Y-119538389D01*
X77059585Y-119487292D01*
X77062901Y-119445067D01*
X77066862Y-119410527D01*
X77071525Y-119382486D01*
X77076947Y-119359758D01*
X77083186Y-119341156D01*
X77090297Y-119325493D01*
X77098338Y-119311584D01*
X77107366Y-119298241D01*
X77117436Y-119284279D01*
X77128607Y-119268511D01*
X77168397Y-119210667D01*
X76108514Y-119210667D01*
X76146511Y-119273766D01*
X76161193Y-119298805D01*
X76175731Y-119326386D01*
X76187827Y-119354500D01*
X76197732Y-119385351D01*
X76205694Y-119421144D01*
X76211961Y-119464083D01*
X76216782Y-119516374D01*
X76220406Y-119580219D01*
X76223081Y-119657825D01*
X76225057Y-119751394D01*
X76226582Y-119863133D01*
X76227904Y-119995245D01*
X76228813Y-120115234D01*
X76229220Y-120231863D01*
X76228967Y-120327331D01*
X76228057Y-120401356D01*
X76226493Y-120453655D01*
X76224279Y-120483949D01*
X76221420Y-120491956D01*
X76218361Y-120488658D01*
X76200206Y-120467208D01*
X76170475Y-120430689D01*
X76130839Y-120381242D01*
X76082971Y-120321007D01*
X76028543Y-120252127D01*
X75969227Y-120176743D01*
X75906695Y-120096996D01*
X75842621Y-120015028D01*
X75778675Y-119932980D01*
X75716531Y-119852994D01*
X75657861Y-119777211D01*
X75604337Y-119707773D01*
X75557630Y-119646821D01*
X75519414Y-119596496D01*
X75491361Y-119558940D01*
X75475143Y-119536295D01*
X75429835Y-119464012D01*
X75389861Y-119384263D01*
X75368330Y-119315988D01*
X75365027Y-119258644D01*
X75370316Y-119210667D01*
X74238556Y-119210917D01*
X74278067Y-119241522D01*
X74287448Y-119248889D01*
X74350383Y-119303238D01*
X74419197Y-119371059D01*
X74495796Y-119454316D01*
X74582088Y-119554978D01*
X74599252Y-119575647D01*
X74640033Y-119625209D01*
X74689788Y-119686126D01*
X74747155Y-119756698D01*
X74810769Y-119835224D01*
X74879269Y-119920004D01*
X74951290Y-120009337D01*
X75025470Y-120101522D01*
X75040717Y-120120502D01*
X75100446Y-120194860D01*
X75174853Y-120287648D01*
X75247331Y-120378188D01*
X75316514Y-120464778D01*
X75381041Y-120545718D01*
X75439547Y-120619306D01*
X75490670Y-120683844D01*
X75533047Y-120737629D01*
X75565315Y-120778962D01*
X75586110Y-120806142D01*
X75594069Y-120817468D01*
X75592311Y-120821571D01*
X75579430Y-120842134D01*
X75555085Y-120878361D01*
X75520447Y-120928624D01*
X75476686Y-120991292D01*
X75424975Y-121064736D01*
X75366484Y-121147327D01*
X75302384Y-121237436D01*
X75233846Y-121333431D01*
X75162043Y-121433685D01*
X75088144Y-121536568D01*
X75013321Y-121640450D01*
X74938745Y-121743701D01*
X74865587Y-121844692D01*
X74795019Y-121941794D01*
X74728211Y-122033377D01*
X74666335Y-122117811D01*
X74610561Y-122193467D01*
X74562062Y-122258716D01*
X74522007Y-122311928D01*
X74491569Y-122351473D01*
X74471144Y-122376826D01*
X74425099Y-122431095D01*
X74374812Y-122487575D01*
X74328015Y-122537469D01*
X74236851Y-122631200D01*
X73538645Y-122631200D01*
X73607556Y-122631149D01*
X73705807Y-122630891D01*
X73795230Y-122630437D01*
X73873533Y-122629810D01*
X73938423Y-122629035D01*
X73987611Y-122628135D01*
X74018804Y-122627134D01*
X74029711Y-122626057D01*
X74028522Y-122622837D01*
X74018376Y-122605252D01*
X74001240Y-122578958D01*
X73992740Y-122566491D01*
X73983529Y-122552422D01*
X73975433Y-122538151D01*
X73968385Y-122522279D01*
X73962317Y-122503409D01*
X73957161Y-122480141D01*
X73952851Y-122451078D01*
X73949319Y-122414821D01*
X73946497Y-122369970D01*
X73944318Y-122315128D01*
X73942714Y-122248897D01*
X73941619Y-122169877D01*
X73940965Y-122076671D01*
X73940684Y-121967879D01*
X73940709Y-121842103D01*
X73940972Y-121697945D01*
X73941406Y-121534007D01*
X73941945Y-121348889D01*
X73942479Y-121170032D01*
X73943005Y-121011174D01*
X73943550Y-120872116D01*
X73944145Y-120751465D01*
X73944819Y-120647828D01*
X73945603Y-120559811D01*
X73946526Y-120486023D01*
X73947619Y-120425069D01*
X73948912Y-120375557D01*
X73950435Y-120336093D01*
X73952219Y-120305284D01*
X73954292Y-120281738D01*
X73956686Y-120264060D01*
X73959430Y-120250859D01*
X73962556Y-120240740D01*
X73966092Y-120232311D01*
X73969991Y-120224175D01*
X73989638Y-120187344D01*
X74008425Y-120157191D01*
X74009472Y-120155708D01*
X74023802Y-120133459D01*
X74029711Y-120120502D01*
X74028704Y-120120049D01*
X74011505Y-120118603D01*
X73974856Y-120117280D01*
X73921162Y-120116116D01*
X73852830Y-120115147D01*
X73772264Y-120114411D01*
X73681870Y-120113942D01*
X73584053Y-120113778D01*
X73138395Y-120113778D01*
X73135320Y-121290645D01*
X73132245Y-122467511D01*
X73105607Y-122526422D01*
X73093685Y-122550983D01*
X73076446Y-122581234D01*
X73063274Y-122598360D01*
X73055276Y-122606391D01*
X73047578Y-122621293D01*
X72756142Y-122621293D01*
X72755674Y-122528829D01*
X72755250Y-122413417D01*
X72754906Y-122282960D01*
X72754634Y-122136516D01*
X72754427Y-121973144D01*
X72754276Y-121791901D01*
X72754172Y-121591848D01*
X72754108Y-121372041D01*
X72754076Y-121131539D01*
X72754067Y-120869402D01*
X72754067Y-118677831D01*
X72792449Y-118639449D01*
X72819555Y-118615711D01*
X72846453Y-118603911D01*
X72882760Y-118601067D01*
X72934689Y-118601067D01*
X72934689Y-118689006D01*
X72936627Y-118738902D01*
X72955399Y-118849323D01*
X72992417Y-118950787D01*
X73045569Y-119041952D01*
X73112746Y-119121473D01*
X73191838Y-119188005D01*
X73280734Y-119240206D01*
X73377325Y-119276730D01*
X73479500Y-119296234D01*
X73585150Y-119297373D01*
X73692164Y-119278805D01*
X73798432Y-119239184D01*
X73895419Y-119181316D01*
X73980493Y-119106484D01*
X74049215Y-119018415D01*
X74100118Y-118919416D01*
X74131735Y-118811793D01*
X74142600Y-118697854D01*
X74142600Y-118601067D01*
X75762953Y-118601067D01*
X75974097Y-118601080D01*
X76178220Y-118601130D01*
X76361886Y-118601230D01*
X76526191Y-118601392D01*
X76672229Y-118601629D01*
X76801094Y-118601953D01*
X76913883Y-118602375D01*
X77011688Y-118602909D01*
X77095604Y-118603567D01*
X77166727Y-118604361D01*
X77226150Y-118605304D01*
X77274968Y-118606408D01*
X77314277Y-118607684D01*
X77345169Y-118609147D01*
X77368741Y-118610807D01*
X77386086Y-118612678D01*
X77398299Y-118614772D01*
X77406475Y-118617100D01*
X77411708Y-118619676D01*
X77417704Y-118623245D01*
X77424479Y-118626778D01*
X77430678Y-118630288D01*
X77436326Y-118634718D01*
X77441447Y-118641008D01*
X77446069Y-118650101D01*
X77450215Y-118662939D01*
X77453913Y-118680462D01*
X77457187Y-118703613D01*
X77460063Y-118733334D01*
X77462567Y-118770565D01*
X77464724Y-118816249D01*
X77466560Y-118871327D01*
X77468100Y-118936741D01*
X77469370Y-119013433D01*
X77470395Y-119102344D01*
X77471201Y-119204417D01*
X77471234Y-119210667D01*
X77471814Y-119320592D01*
G36*
X77471814Y-119320592D02*
G01*
X77472259Y-119451811D01*
X77472562Y-119599016D01*
X77472748Y-119763149D01*
X77472842Y-119945152D01*
X77472871Y-120145965D01*
X77472861Y-120366532D01*
X77472836Y-120607792D01*
X77472822Y-120870689D01*
X77472822Y-120912840D01*
X77472846Y-121173468D01*
X77472885Y-121412596D01*
X77472908Y-121631160D01*
X77472887Y-121830095D01*
X77472793Y-122010335D01*
X77472595Y-122172815D01*
X77472263Y-122318470D01*
X77471769Y-122448234D01*
X77471083Y-122563043D01*
X77470176Y-122663830D01*
X77469017Y-122751530D01*
X77467578Y-122827079D01*
X77465829Y-122891411D01*
X77463740Y-122945461D01*
X77461283Y-122990163D01*
X77458427Y-123026452D01*
X77455143Y-123055263D01*
X77451402Y-123077531D01*
X77447174Y-123094190D01*
X77442429Y-123106175D01*
X77437139Y-123114421D01*
X77431273Y-123119862D01*
X77424802Y-123123434D01*
X77417697Y-123126070D01*
X77409928Y-123128706D01*
X77401466Y-123132277D01*
X77397108Y-123133945D01*
X77388595Y-123135911D01*
X77375894Y-123137711D01*
X77358085Y-123139355D01*
X77334249Y-123140847D01*
X77303466Y-123142197D01*
X77264817Y-123143411D01*
X77217382Y-123144497D01*
X77160243Y-123145461D01*
X77092479Y-123146311D01*
X77013171Y-123147053D01*
X76921399Y-123147697D01*
X76816244Y-123148247D01*
X76696787Y-123148713D01*
X76562108Y-123149100D01*
X76411288Y-123149416D01*
X76243406Y-123149669D01*
X76057545Y-123149866D01*
X75852783Y-123150013D01*
X75628202Y-123150118D01*
X75382882Y-123150189D01*
X75115904Y-123150232D01*
X75077521Y-123150237D01*
X74812122Y-123150280D01*
X74568250Y-123150325D01*
X74344983Y-123150348D01*
X74141396Y-123150324D01*
X73956567Y-123150230D01*
X73789573Y-123150043D01*
X73639490Y-123149739D01*
X73505396Y-123149294D01*
X73386366Y-123148685D01*
X73281479Y-123147889D01*
X73189810Y-123146880D01*
X73110437Y-123145637D01*
X73042437Y-123144135D01*
X72984886Y-123142351D01*
X72936862Y-123140261D01*
X72897440Y-123137842D01*
X72865699Y-123135070D01*
X72840714Y-123131921D01*
X72821564Y-123128372D01*
X72807323Y-123124398D01*
X72797071Y-123119978D01*
X72789882Y-123115086D01*
X72784835Y-123109700D01*
X72781005Y-123103796D01*
X72777471Y-123097349D01*
X72773308Y-123090337D01*
X72772225Y-123088487D01*
X72770013Y-123082980D01*
X72767986Y-123074668D01*
X72766138Y-123062609D01*
X72764461Y-123045863D01*
X72762945Y-123023487D01*
X72761583Y-122994540D01*
X72760367Y-122958080D01*
X72759289Y-122913167D01*
X72758340Y-122858857D01*
X72757512Y-122794210D01*
X72756797Y-122718284D01*
X72756187Y-122630138D01*
X72756142Y-122621293D01*
X73047578Y-122621293D01*
X73051460Y-122622565D01*
X73074720Y-122624591D01*
X73117074Y-122626426D01*
X73176332Y-122628027D01*
X73250307Y-122629349D01*
X73336810Y-122630348D01*
X73433652Y-122630980D01*
X73538645Y-122631200D01*
X74236851Y-122631200D01*
X75391290Y-122631200D01*
X75390656Y-122555000D01*
X75391774Y-122512960D01*
X75397504Y-122477134D01*
X75410090Y-122439572D01*
X75431768Y-122391377D01*
X75434989Y-122384697D01*
X75460388Y-122335159D01*
X75487196Y-122287169D01*
X75510117Y-122250266D01*
X75514685Y-122243634D01*
X75536716Y-122212393D01*
X75568893Y-122167454D01*
X75609657Y-122110947D01*
X75657445Y-122045004D01*
X75710698Y-121971757D01*
X75767855Y-121893336D01*
X75827355Y-121811872D01*
X75887637Y-121729498D01*
X75947140Y-121648344D01*
X76004305Y-121570542D01*
X76057570Y-121498223D01*
X76105374Y-121433518D01*
X76146157Y-121378559D01*
X76178358Y-121335476D01*
X76200416Y-121306402D01*
X76210771Y-121293467D01*
X76215244Y-121289151D01*
X76219436Y-121287112D01*
X76222843Y-121289726D01*
X76225525Y-121298786D01*
X76227541Y-121316085D01*
X76228948Y-121343414D01*
X76229805Y-121382565D01*
X76230170Y-121435333D01*
X76230103Y-121503507D01*
X76229660Y-121588882D01*
X76228902Y-121693249D01*
X76227885Y-121818400D01*
X76227508Y-121863100D01*
X76226369Y-121984195D01*
X76225172Y-122085488D01*
X76223836Y-122169062D01*
X76222277Y-122237004D01*
X76220415Y-122291399D01*
X76218166Y-122334332D01*
X76215448Y-122367889D01*
X76212179Y-122394155D01*
X76208278Y-122415216D01*
X76203661Y-122433157D01*
X76195392Y-122459570D01*
X76171783Y-122521572D01*
X76145885Y-122574373D01*
X76120735Y-122611445D01*
X76119539Y-122612875D01*
X76117368Y-122617224D01*
X76119528Y-122620826D01*
X76127844Y-122623751D01*
X76144140Y-122626069D01*
X76170241Y-122627851D01*
X76207971Y-122629167D01*
X76259156Y-122630086D01*
X76325620Y-122630678D01*
X76409187Y-122631015D01*
X76511683Y-122631165D01*
X76634932Y-122631200D01*
X77166496Y-122631200D01*
X77127723Y-122573583D01*
X77121632Y-122564693D01*
X77111176Y-122549869D01*
X77101779Y-122536222D01*
X77093383Y-122522565D01*
X77085933Y-122507711D01*
X77079373Y-122490470D01*
X77073646Y-122469655D01*
X77068695Y-122444080D01*
X77064466Y-122412555D01*
X77060901Y-122373893D01*
X77057944Y-122326907D01*
X77055540Y-122270408D01*
X77053631Y-122203209D01*
X77052162Y-122124122D01*
X77051076Y-122031960D01*
X77050318Y-121925534D01*
X77049830Y-121803657D01*
X77049558Y-121665141D01*
X77049443Y-121508799D01*
X77049431Y-121333442D01*
X77049465Y-121137882D01*
X77049489Y-120920933D01*
X77049480Y-120798313D01*
X77049443Y-120593247D01*
X77049427Y-120408916D01*
X77049488Y-120244134D01*
X77049684Y-120097716D01*
X77050070Y-119968474D01*
X77050705Y-119855222D01*
X77051644Y-119756775D01*
X77052945Y-119671944D01*
X77054664Y-119599544D01*
X77056859Y-119538389D01*
X77059585Y-119487292D01*
X77062901Y-119445067D01*
X77066862Y-119410527D01*
X77071525Y-119382486D01*
X77076947Y-119359758D01*
X77083186Y-119341156D01*
X77090297Y-119325493D01*
X77098338Y-119311584D01*
X77107366Y-119298241D01*
X77117436Y-119284279D01*
X77128607Y-119268511D01*
X77168397Y-119210667D01*
X76108514Y-119210667D01*
X76146511Y-119273766D01*
X76161193Y-119298805D01*
X76175731Y-119326386D01*
X76187827Y-119354500D01*
X76197732Y-119385351D01*
X76205694Y-119421144D01*
X76211961Y-119464083D01*
X76216782Y-119516374D01*
X76220406Y-119580219D01*
X76223081Y-119657825D01*
X76225057Y-119751394D01*
X76226582Y-119863133D01*
X76227904Y-119995245D01*
X76228813Y-120115234D01*
X76229220Y-120231863D01*
X76228967Y-120327331D01*
X76228057Y-120401356D01*
X76226493Y-120453655D01*
X76224279Y-120483949D01*
X76221420Y-120491956D01*
X76218361Y-120488658D01*
X76200206Y-120467208D01*
X76170475Y-120430689D01*
X76130839Y-120381242D01*
X76082971Y-120321007D01*
X76028543Y-120252127D01*
X75969227Y-120176743D01*
X75906695Y-120096996D01*
X75842621Y-120015028D01*
X75778675Y-119932980D01*
X75716531Y-119852994D01*
X75657861Y-119777211D01*
X75604337Y-119707773D01*
X75557630Y-119646821D01*
X75519414Y-119596496D01*
X75491361Y-119558940D01*
X75475143Y-119536295D01*
X75429835Y-119464012D01*
X75389861Y-119384263D01*
X75368330Y-119315988D01*
X75365027Y-119258644D01*
X75370316Y-119210667D01*
X74238556Y-119210917D01*
X74278067Y-119241522D01*
X74287448Y-119248889D01*
X74350383Y-119303238D01*
X74419197Y-119371059D01*
X74495796Y-119454316D01*
X74582088Y-119554978D01*
X74599252Y-119575647D01*
X74640033Y-119625209D01*
X74689788Y-119686126D01*
X74747155Y-119756698D01*
X74810769Y-119835224D01*
X74879269Y-119920004D01*
X74951290Y-120009337D01*
X75025470Y-120101522D01*
X75040717Y-120120502D01*
X75100446Y-120194860D01*
X75174853Y-120287648D01*
X75247331Y-120378188D01*
X75316514Y-120464778D01*
X75381041Y-120545718D01*
X75439547Y-120619306D01*
X75490670Y-120683844D01*
X75533047Y-120737629D01*
X75565315Y-120778962D01*
X75586110Y-120806142D01*
X75594069Y-120817468D01*
X75592311Y-120821571D01*
X75579430Y-120842134D01*
X75555085Y-120878361D01*
X75520447Y-120928624D01*
X75476686Y-120991292D01*
X75424975Y-121064736D01*
X75366484Y-121147327D01*
X75302384Y-121237436D01*
X75233846Y-121333431D01*
X75162043Y-121433685D01*
X75088144Y-121536568D01*
X75013321Y-121640450D01*
X74938745Y-121743701D01*
X74865587Y-121844692D01*
X74795019Y-121941794D01*
X74728211Y-122033377D01*
X74666335Y-122117811D01*
X74610561Y-122193467D01*
X74562062Y-122258716D01*
X74522007Y-122311928D01*
X74491569Y-122351473D01*
X74471144Y-122376826D01*
X74425099Y-122431095D01*
X74374812Y-122487575D01*
X74328015Y-122537469D01*
X74236851Y-122631200D01*
X73538645Y-122631200D01*
X73607556Y-122631149D01*
X73705807Y-122630891D01*
X73795230Y-122630437D01*
X73873533Y-122629810D01*
X73938423Y-122629035D01*
X73987611Y-122628135D01*
X74018804Y-122627134D01*
X74029711Y-122626057D01*
X74028522Y-122622837D01*
X74018376Y-122605252D01*
X74001240Y-122578958D01*
X73992740Y-122566491D01*
X73983529Y-122552422D01*
X73975433Y-122538151D01*
X73968385Y-122522279D01*
X73962317Y-122503409D01*
X73957161Y-122480141D01*
X73952851Y-122451078D01*
X73949319Y-122414821D01*
X73946497Y-122369970D01*
X73944318Y-122315128D01*
X73942714Y-122248897D01*
X73941619Y-122169877D01*
X73940965Y-122076671D01*
X73940684Y-121967879D01*
X73940709Y-121842103D01*
X73940972Y-121697945D01*
X73941406Y-121534007D01*
X73941945Y-121348889D01*
X73942479Y-121170032D01*
X73943005Y-121011174D01*
X73943550Y-120872116D01*
X73944145Y-120751465D01*
X73944819Y-120647828D01*
X73945603Y-120559811D01*
X73946526Y-120486023D01*
X73947619Y-120425069D01*
X73948912Y-120375557D01*
X73950435Y-120336093D01*
X73952219Y-120305284D01*
X73954292Y-120281738D01*
X73956686Y-120264060D01*
X73959430Y-120250859D01*
X73962556Y-120240740D01*
X73966092Y-120232311D01*
X73969991Y-120224175D01*
X73989638Y-120187344D01*
X74008425Y-120157191D01*
X74009472Y-120155708D01*
X74023802Y-120133459D01*
X74029711Y-120120502D01*
X74028704Y-120120049D01*
X74011505Y-120118603D01*
X73974856Y-120117280D01*
X73921162Y-120116116D01*
X73852830Y-120115147D01*
X73772264Y-120114411D01*
X73681870Y-120113942D01*
X73584053Y-120113778D01*
X73138395Y-120113778D01*
X73135320Y-121290645D01*
X73132245Y-122467511D01*
X73105607Y-122526422D01*
X73093685Y-122550983D01*
X73076446Y-122581234D01*
X73063274Y-122598360D01*
X73055276Y-122606391D01*
X73047578Y-122621293D01*
X72756142Y-122621293D01*
X72755674Y-122528829D01*
X72755250Y-122413417D01*
X72754906Y-122282960D01*
X72754634Y-122136516D01*
X72754427Y-121973144D01*
X72754276Y-121791901D01*
X72754172Y-121591848D01*
X72754108Y-121372041D01*
X72754076Y-121131539D01*
X72754067Y-120869402D01*
X72754067Y-118677831D01*
X72792449Y-118639449D01*
X72819555Y-118615711D01*
X72846453Y-118603911D01*
X72882760Y-118601067D01*
X72934689Y-118601067D01*
X72934689Y-118689006D01*
X72936627Y-118738902D01*
X72955399Y-118849323D01*
X72992417Y-118950787D01*
X73045569Y-119041952D01*
X73112746Y-119121473D01*
X73191838Y-119188005D01*
X73280734Y-119240206D01*
X73377325Y-119276730D01*
X73479500Y-119296234D01*
X73585150Y-119297373D01*
X73692164Y-119278805D01*
X73798432Y-119239184D01*
X73895419Y-119181316D01*
X73980493Y-119106484D01*
X74049215Y-119018415D01*
X74100118Y-118919416D01*
X74131735Y-118811793D01*
X74142600Y-118697854D01*
X74142600Y-118601067D01*
X75762953Y-118601067D01*
X75974097Y-118601080D01*
X76178220Y-118601130D01*
X76361886Y-118601230D01*
X76526191Y-118601392D01*
X76672229Y-118601629D01*
X76801094Y-118601953D01*
X76913883Y-118602375D01*
X77011688Y-118602909D01*
X77095604Y-118603567D01*
X77166727Y-118604361D01*
X77226150Y-118605304D01*
X77274968Y-118606408D01*
X77314277Y-118607684D01*
X77345169Y-118609147D01*
X77368741Y-118610807D01*
X77386086Y-118612678D01*
X77398299Y-118614772D01*
X77406475Y-118617100D01*
X77411708Y-118619676D01*
X77417704Y-118623245D01*
X77424479Y-118626778D01*
X77430678Y-118630288D01*
X77436326Y-118634718D01*
X77441447Y-118641008D01*
X77446069Y-118650101D01*
X77450215Y-118662939D01*
X77453913Y-118680462D01*
X77457187Y-118703613D01*
X77460063Y-118733334D01*
X77462567Y-118770565D01*
X77464724Y-118816249D01*
X77466560Y-118871327D01*
X77468100Y-118936741D01*
X77469370Y-119013433D01*
X77470395Y-119102344D01*
X77471201Y-119204417D01*
X77471234Y-119210667D01*
X77471814Y-119320592D01*
G37*
%TD*%
M02*
